<svg width="154" height="148" viewBox="0 0 154 148" fill="none" xmlns="http://www.w3.org/2000/svg">
<path d="M63.3164 84.2705L88.8872 96.4658L88.6905 98.8262L63.3164 86.6309V84.2705Z" fill="white"/>
<path d="M56.4297 70.3047L62.134 72.8618L62.3307 77.5825L56.8231 75.4189L56.4297 70.3047Z" fill="white"/>
<path d="M64.2296 103.217C64.8945 103.549 65.6768 103.066 65.6768 102.322V87.6143L88.6906 98.8261L86.1286 134.054C85.8594 137.755 81.7933 139.884 78.5981 137.996L20.6328 103.744L43.6466 92.9251L64.2296 103.217Z" fill="white"/>
<path d="M64.8826 78.8926C65.245 79.0525 65.4789 79.4113 65.4789 79.8074V100.893C65.4789 102.381 63.9108 103.348 62.5807 102.68L30.2567 86.4341C28.5355 85.569 27.3343 83.9302 27.0276 82.0285L24.4614 66.118C24.0825 63.7692 26.4577 61.9351 28.6343 62.8957L64.8826 78.8926Z" fill="white"/>
<path d="M146.323 60.8624L148.29 59.8789L147.503 62.436L145.93 62.6327L146.323 60.8624Z" fill="white"/>
<path d="M86.0573 146.082L80.1332 142.713C79.4369 142.317 78.9116 141.678 78.6583 140.918L27.9101 110.823L28.5001 111.413L27.7134 111.807L22.0091 108.463L21.6157 107.283L20.8031 106.836C18.8846 105.781 17.5868 103.875 17.3041 101.709L17.0916 101.578L4.5029 47.4862L0.962324 45.7159L0.765625 43.5522L1.35572 42.1753L4.1095 41.1918L56.038 28.2097H58.5951L65.0861 29.5866L81.8055 34.3526L82.5923 31.947L84.1659 31.3569H84.9527L97.3447 9.52331L98.9183 8.93322L86.5263 31.7503L87.9032 32.3404L88.0999 36.1468L116.031 43.9456L116.621 41.1918L118.195 40.405L118.982 40.6017L117.015 36.2743L104.032 10.7035L103.442 9.52331L102.459 8.93322L101.279 8.73652L99.3117 9.12992L100.098 6.96623L102.656 6.76953L104.426 7.55633L106.196 10.3101L117.801 34.1107L121.145 41.1918L121.932 41.5852L122.325 45.7159L150.65 53.9772L141.209 58.3046L134.914 56.5343L116.621 51.2235L60.9554 34.7008L62.1356 66.3693L56.038 64.0089L54.071 34.7008L30.6638 40.9951L6.46989 47.4862L8.83027 50.6334L21.2223 100.792L59.972 83.6787L89.0834 96.8576L89.6735 84.6622L96.1645 80.1382L151.634 54.1739L152.224 54.764L152.617 55.7475L152.334 57.0679C152.14 57.9724 151.54 58.7369 150.707 59.1398L148.202 60.3522L145.929 62.4353L139.045 65.7792L114.458 77.5811L100.098 84.6622L98.3282 101.382L131.374 116.527L146.126 62.4353L148.093 60.4683L131.964 118.888L130.587 120.068L130.39 120.855L123.702 125.379L123.309 124.789L98.5249 141.115C98.6427 141.704 98.3755 142.303 97.8585 142.609L92.0791 146.03C90.2265 147.126 87.9286 147.146 86.0573 146.082Z" fill="white"/>
<path d="M150.058 53.585L151.829 54.1751L142.387 58.6991L141.207 58.3057L150.058 53.585Z" fill="white"/>
<path d="M116.425 76.7949L115.638 80.5322L112.295 79.352L111.508 78.9586L116.425 76.7949Z" fill="white"/>
<path d="M10.4035 46.1092L19.4516 49.6498L31.8436 24.079L33.6139 20.7351L34.9908 19.3582L37.3512 18.5714L54.6607 14.8341L79.2481 9.52325L98.9179 5.39258L99.9014 5.78598L100.295 7.35957L99.9014 8.93316L93.8038 10.1133L74.1339 14.4407L43.6456 20.9318L42.072 21.3252L41.0885 22.3087L40.4984 23.8823L41.0885 25.8493L43.2522 31.7502L41.2852 32.1436L38.5314 24.8658L38.9248 22.3087L40.4984 20.3417L37.5479 20.9318L36.171 21.5219L34.9908 22.7021L22.4021 48.2729L24.3691 49.2564L24.9592 52.0102L90.2632 77.7777C93.5039 78.5555 96.8736 78.6302 100.146 77.997L101.278 77.7777L91.2467 86.2358L89.2797 84.2688L8.63319 50.6333L4.69922 47.4861L10.4035 46.1092Z" fill="white"/>
<path d="M118.754 56.6631C119.224 56.8155 119.513 57.2886 119.432 57.7764L117.408 70.1069L105 76.033C104.508 76.2682 103.941 76.292 103.43 76.0988L80.639 67.4707C78.2709 66.5742 76.7205 64.2876 76.7642 61.7559L77.015 47.2105C77.0497 45.1953 79.0221 43.787 80.9394 44.4083L118.754 56.6631Z" fill="white"/>
<path d="M95.0979 133.669L98.3299 103.35L129.998 118.495L101.277 137.432C98.4546 139.293 94.7395 137.031 95.0979 133.669Z" fill="white"/>
<path d="M44.6285 35.4883L55.2503 63.2228L55.8404 61.8459L61.938 65.9766V66.5667L55.447 66.9601L54.0701 66.1733L42.4648 35.4883H44.6285Z" fill="white"/>
<path d="M120.621 42.11V38.3728M120.621 38.3728L116.49 37.1926M120.621 38.3728L121.998 37.3893M116.49 37.1926L118.26 36.4058L119.047 36.6128M116.49 37.1926L116.019 40.0174M115.9 40.7331L116.019 40.0174M121.998 37.3893L122.194 41.7587L151.155 49.9257C152.217 50.2253 152.709 51.2267 152.564 52.1417M121.998 37.3893L121.25 37.1926M121.25 37.1926L105.925 5.9087C104.851 3.71731 102.424 2.5375 100.038 3.04689V3.04689M121.25 37.1926L119.047 36.6128M58.0705 62.37L56.2175 62.7976L55.8688 62.8781C55.6357 62.9319 55.3927 62.9256 55.1627 62.8599V62.8599C54.5172 62.6755 53.9971 62.1961 53.7608 61.5677L52.7663 58.9232M57.4804 60.403L56.0849 60.7519V60.7519C55.9832 60.7773 55.8786 60.7229 55.841 60.625L55.6245 60.0605L45.2815 33.0949M119.047 36.6128L104.766 8.04168C103.677 5.86325 101.256 4.69381 98.8725 5.19553V5.19553M148.038 56.469L132.207 113.922C131.966 114.798 131.413 115.557 130.652 116.054V116.054M152.564 52.1417C152.47 52.7357 152.108 53.2932 151.46 53.5984L101.544 77.107C97.5331 78.996 92.9115 79.1054 88.8158 77.4084L62.1081 66.3422L19.7802 48.804M152.564 52.1417V52.1417C152.564 53.4638 151.805 54.6684 150.612 55.2386L101.544 78.696L100.164 79.2871V79.2871C97.5016 80.4275 94.5152 80.5599 91.7623 79.6596L88.8158 78.696L5.805 43.8803L4.39804 43.2902M4.39804 43.2902L1.97991 42.3381V42.3381C1.28596 42.0815 0.817885 41.4286 0.79768 40.689L0.766645 39.553M4.39804 43.2902L17.6083 99.6869L17.6668 99.9366C17.8438 100.692 18.3217 101.343 18.9899 101.738V101.738L21.604 103.283M0.766645 39.553C0.742804 40.309 1.13671 41.0792 1.97991 41.4286L4.17501 42.3381L18.6652 48.2077M0.766645 39.553C0.79225 38.7409 1.29974 37.9452 2.25002 37.7046L26.2787 31.6204M21.604 103.283V103.283C21.604 103.892 21.9295 104.453 22.4572 104.756L27.7789 107.807M21.604 103.283L27.7789 106.934M27.7789 107.807V106.934M27.7789 107.807L28.5657 107.399M27.7789 106.934L28.5657 107.399M28.5657 107.399L78.7238 137.05M78.7238 137.05L84.123 140.242C87.2052 142.064 91.0506 141.996 94.0664 140.066V140.066L98.5668 137.05M78.7238 137.05V137.05C78.7238 137.578 79.0038 138.066 79.4593 138.332L83.8407 140.895C87.0963 142.799 91.1464 142.71 94.3147 140.664L97.8744 138.365C98.319 138.078 98.5815 137.579 98.5668 137.05V137.05M98.5668 137.05L123.112 120.988M123.571 120.688V121.38M123.571 120.688L130.652 116.054M123.571 120.688L123.112 120.988M123.571 121.38L130.149 116.994C130.464 116.785 130.652 116.432 130.652 116.054V116.054M123.571 121.38L123.112 120.988M59.8408 64.1403L59.4474 59.8129M59.4474 59.8129L55.5134 58.2393M59.4474 59.8129L61.021 59.0261M55.5134 58.2393L55.3167 59.2228M55.5134 58.2393L55.913 58.101M61.021 59.0261L57.2182 57.6492L55.913 58.101M61.021 59.0261L61.8078 63.1568M24.435 45.2572L22.6647 45.6506M24.435 45.2572L22.3232 44.3333M24.435 45.2572L24.8382 47.8107M25.0251 48.9945L24.8382 47.8107M23.0581 49.5846L22.6647 45.6506M22.6647 45.6506L21.8549 45.2825M21.8779 48.4044L19.7802 48.804M86.5263 27.8546L98.8725 5.19553M84.756 27.4819L97.3196 5.52245M21.8779 46.6329V46.6329C21.5678 46.7109 21.3086 46.39 21.45 46.1032L21.8549 45.2825M11.0841 42.3381V42.3381C8.40837 41.2734 8.65459 37.4078 11.4438 36.6912L25.5799 33.0595M11.0841 42.3381L19.4571 45.6696M11.0841 42.3381L22.584 39.2298M142.258 54.6237L142.815 54.3643C145.335 53.1913 145.042 49.5179 142.368 48.7586L68.2784 27.7178C61.4643 25.7827 54.2586 25.6918 47.3979 27.4544L43.502 28.4553M142.258 54.6237L61.021 30.7015L61.9938 62.5948L87.7049 72.8251C93.0206 74.9402 98.973 74.7706 104.16 72.3565V72.3565M142.258 54.6237L117.448 66.1712M9.05137 46.8308V46.8308C7.8674 46.3378 6.62239 47.3917 6.91316 48.6409L18.0761 96.5956V96.5956C18.3685 97.8516 19.1633 98.9326 20.275 99.5862L79.9153 134.652C82.466 136.152 85.7058 134.459 85.931 131.509L88.7387 94.7386M9.05137 46.8308L20.4679 94.6527C20.758 95.8682 22.0794 96.5229 23.2222 96.0174L41.4823 87.9408M9.05137 46.8308L56.4623 66.5727M43.4637 88.956L64.0997 99.2205C64.7644 99.5512 65.545 99.0677 65.545 98.3252V83.6819M43.4637 88.956L41.4823 87.9408M43.4637 88.956L20.6322 99.7962M41.4823 87.9408L31.2678 82.8818C28.9546 81.7361 27.3364 79.5447 26.9221 76.9968L24.2372 60.4848C23.983 58.9217 25.5602 57.6973 27.0116 58.331L56.7704 71.3242M56.7704 71.3242L62.3342 73.7535M56.7704 71.3242L56.4623 66.5727M62.3342 73.7535L63.1456 74.1078C64.603 74.7441 65.545 76.1833 65.545 77.7736V78.6246V81.4498M62.3342 73.7535L62.1879 68.9568M65.545 83.6819L88.7387 94.7386M65.545 83.6819V81.4498M88.7387 94.7386L88.915 92.4292M98.1631 99.2314L95.118 129.583C94.7825 132.927 98.4703 135.169 101.285 133.332L130.159 114.484M98.1631 99.2314L130.159 114.484M98.1631 99.2314L98.3486 97.3824M130.159 114.484V114.484C130.73 114.111 131.144 113.541 131.321 112.882L131.439 112.445M104.16 72.3565L82.0197 63.9701C78.8626 62.7742 76.796 59.7252 76.8547 56.3497L77.1035 42.0449C77.1268 40.7051 78.4353 39.7668 79.7118 40.1745L116.344 51.8765C118.235 52.4807 119.397 54.3804 119.073 56.3392L117.448 66.1712M104.16 72.3565L117.448 66.1712M111.311 75.0652L114.561 76.2965C115.152 76.5202 115.799 76.1474 115.902 75.5245L116.38 72.6349M111.311 75.0652L102.072 79.4947C100.814 80.0981 99.9607 81.3137 99.8214 82.7023L98.611 94.7671L98.3486 97.3824M111.311 75.0652L116.38 72.6349M116.38 72.6349L145.995 58.436L131.833 110.986L131.439 112.445M52.7663 58.9232L43.2587 33.6417M52.7663 58.9232L24.8382 47.8107M40.4988 16.3425V16.3425C37.4649 16.9575 34.845 18.9513 33.4754 21.7274L28.9255 30.9502M97.3196 5.52245L48.5656 15.7865C43.7483 16.8006 40.9813 21.8835 42.7443 26.4798L43.0839 27.3652M97.3196 5.52245L98.8725 5.19553M100.038 3.04689V3.04689C100.475 2.24068 99.7668 1.29239 98.8696 1.48239L41.4501 13.6418C36.9199 14.6011 33.0868 17.599 31.0642 21.7646L26.2787 31.6204M100.038 3.04689L48.6664 14.0121C42.4341 15.3424 38.8452 21.9056 41.0884 27.8705V27.8705M116.019 40.0174L88.0999 32.1441L87.9032 28.1444M41.0884 27.8705L41.5015 28.9692M41.0884 27.8705L28.9255 30.9502M41.5015 28.9692L43.2587 33.6417M41.5015 28.9692L28.2195 32.3814M43.502 28.4553L43.0839 27.3652M43.502 28.4553L45.2815 33.0949M43.0839 27.3652L53.7924 24.6538C56.4663 23.9767 59.2712 24.0144 61.9259 24.7631L81.8332 30.3769M43.2587 33.6417L25.1882 38.5259M45.2815 33.0949L54.1365 30.7015L55.913 58.101M19.7802 48.804V48.804C18.9407 48.9639 18.2779 48.0983 18.6511 47.3295L19.4571 45.6696M21.8549 45.2825L22.3232 44.3333M22.3232 44.3333L25.1882 38.5259M19.4571 45.6696L22.584 39.2298M22.584 39.2298L25.5799 33.0595M25.1882 38.5259L28.2195 32.3814M25.5799 33.0595L26.2787 31.6204M28.2195 32.3814L28.9255 30.9502M62.1879 68.9568L87.8252 79.6321C89.0207 80.1299 89.7619 81.3387 89.6633 82.63L89.0914 90.1197L88.915 92.4292M62.1879 68.9568L56.4623 66.5727M98.3486 97.3824L131.439 112.445M88.915 92.4292L65.545 81.4498M86.723 28.9312L82.5923 27.9477M86.723 28.9312L87.9032 28.1444M86.723 28.9312V32.4718M82.5923 27.9477L84.1659 27.3576L87.9032 28.1444M82.5923 27.9477L81.8332 30.3769M81.6088 31.0949L81.8332 30.3769" stroke="#081CB8"/>
</svg>
