<svg xmlns="http://www.w3.org/2000/svg" viewBox="0 0 102.33 33.85" fill="#017dfb"><path d="M28.71 16.89a43 43 0 00-5.66-2.3q-5.39 6.51-6.37 12.63a13.5 13.5 0 00-.15 2 11.6 11.6 0 00.19 2 16.06 16.06 0 01-4.36 2.33 4.07 4.07 0 01-1.27.27 2.24 2.24 0 01-1-.25 2.67 2.67 0 01-.94-.79 4.66 4.66 0 01-1-3.15 12 12 0 01.71-4 21.27 21.27 0 012-4.07 39.69 39.69 0 016.77-8.06c-1.16-.07-2.31-.11-3.45-.11a15.26 15.26 0 00-3.58.45q-3.93.93-4.7 3.55a4.09 4.09 0 00-.15 1.22 5.21 5.21 0 00.45 1.99c-.28.52-.94.73-2 .63a4.71 4.71 0 01-2.52-.86 3.84 3.84 0 01-1.71-3q0-3.18 4.45-5.1a25.09 25.09 0 0110.05-1.8 27.84 27.84 0 015.8.68 55.52 55.52 0 0116.31-9.67A20.87 20.87 0 0143.69 0a3.11 3.11 0 012.15.65 2.08 2.08 0 01.71 1.63A7.48 7.48 0 0146 4.72c-.34 1-.78 2.06-1.3 3.25l-1.68 3.84c-.6 1.37-1.16 2.77-1.68 4.19a25.25 25.25 0 00-1.82 8.43q0 2.52 2.22 2.52a3.74 3.74 0 001.4-.32 2.29 2.29 0 01.65.73 1.73 1.73 0 01.26.8 2.75 2.75 0 01-.27 1 6.35 6.35 0 01-.75 1.28 8.52 8.52 0 01-1.18 1.24 9.25 9.25 0 01-1.51 1.06 7.84 7.84 0 01-6.69.53 6.79 6.79 0 01-4.25-4.11 9.75 9.75 0 01-.64-3.66 11.47 11.47 0 01.64-3.87 19.62 19.62 0 011.66-3.55 27 27 0 012.35-3.38c.88-1.09 1.78-2.13 2.71-3.12S38 9.62 38.86 8.74s1.66-1.68 2.34-2.43c1.53-1.65 2.3-2.79 2.3-3.41 0-.32-.29-.49-.89-.49q-3.84 0-8.78 2.88a40.46 40.46 0 00-8.93 7.22c2.24.81 3.6 1.53 4.08 2.18a1.52 1.52 0 01-.27 2.2zM53 33.05q-6.75 0-6.76-5.74 0-4 5.32-11.09c-.35-.12-.68-.22-1-.3l-.72-.22a.49.49 0 01-.33-.31 1.26 1.26 0 01-.05-.49 3 3 0 01.3-1l3.2.53a29.86 29.86 0 016.45-6.25 2.81 2.81 0 011.17-.51 1.84 1.84 0 01.6.1 3.19 3.19 0 01.54.24 2.84 2.84 0 01.93.74 43.47 43.47 0 00-5.35 6.42c3.23.56 5.2.87 5.92.91-.38 1.51-.81 2.26-1.31 2.26a29.87 29.87 0 01-6-1 12 12 0 00-2.1 5.8c0 2.12 1.43 3.17 4.28 3.17q4.78 0 7.88-4.63c.63 0 1 .22 1 .78a5 5 0 01-.89 2.21 21.63 21.63 0 01-1.78 2.55 20.3 20.3 0 01-2 2.13 15.81 15.81 0 01-2.58 1.88A13 13 0 0153 33.05z"/><path d="M63.59 30.57a5.65 5.65 0 01-.44-2.34 8.11 8.11 0 01.6-2.93 18.91 18.91 0 011.55-3.08 28.53 28.53 0 012.1-3 30.83 30.83 0 012.31-2.53q2.52-2.38 3.71-2.39a2.05 2.05 0 011.13.44 4.13 4.13 0 01.79.64 16.08 16.08 0 00-4 6.63 7.09 7.09 0 00-.34 1.92 2.44 2.44 0 002.44 2.38 4.84 4.84 0 001.94-.39 9.31 9.31 0 001.76-1 13.08 13.08 0 003-3.22c.63 0 1 .22 1 .78a5.13 5.13 0 01-.88 2.2 20.91 20.91 0 01-1.74 2.6 21.64 21.64 0 01-2 2.14 14.92 14.92 0 01-2.43 1.89 11.19 11.19 0 01-6 1.86 4.42 4.42 0 01-4.5-2.6zm16.3-20.91a8 8 0 01-1.87.66 8.1 8.1 0 01-1.75.22 4.6 4.6 0 01-1.33-.18 3.49 3.49 0 01-1.06-.52 2.13 2.13 0 01-1-1.77 3.76 3.76 0 01.37-1.76 3.39 3.39 0 011.07-1.23A5.94 5.94 0 0177.91 4a4.49 4.49 0 013.09.85 2.6 2.6 0 011 2 2.47 2.47 0 01-.6 1.76 4.86 4.86 0 01-1.51 1.05z"/><path d="M95.41 15.54a12.13 12.13 0 00-2.26 0v.74a14.2 14.2 0 00.14 1.59c.1.71.22 1.48.36 2.33a36.45 36.45 0 01.6 4.87 10.55 10.55 0 01-.17 2.07 11.94 11.94 0 005.86-3.68 14.37 14.37 0 001.44-1.82c.41 0 .67 0 .78.22a1 1 0 01.17.56 5.51 5.51 0 01-.48 1.44 14.26 14.26 0 01-1.85 2.92 15.26 15.26 0 01-3.39 3.13 19.26 19.26 0 01-11 3.2h-1.72a6.1 6.1 0 01-2.48-.62 6.89 6.89 0 01-2.3-1.71 8.23 8.23 0 01-2-5.69c0-1 .73-2 2.18-3.24a10.54 10.54 0 011.2-.85 18.31 18.31 0 016-5.5 14.33 14.33 0 017.31-2.33 1.9 1.9 0 011.7.68 1.43 1.43 0 01-.09 1.69zm-10.65 9.84a1.66 1.66 0 001 .36 1.79 1.79 0 001.12-.44 4.66 4.66 0 001-1.19 9.06 9.06 0 00.8-1.71c.24-.65.44-1.33.63-2 .31-1.19.62-2.59.93-4.22A17.23 17.23 0 0084 19.65a12.56 12.56 0 00-1.44 1.5 7.47 7.47 0 002.2 4.23z"/></svg>