<svg xmlns="http://www.w3.org/2000/svg" viewBox="0 0 387.04 387.04" fill="#fff"><circle cx="112.81" cy="233.17" r="15.37"/><circle cx="274.23" cy="233.17" r="15.37"/><path d="M387.04 226.65a45.39 45.39 0 00-37.33-44.6v-6.72c0-86.13-70.06-156.2-156.19-156.2S37.32 89.2 37.32 175.33v6.71A45.39 45.39 0 000 226.64a45.39 45.39 0 0037.87 44.7c3.02 34.42 18.77 59.84 46.94 75.66 25.06 14.07 60.62 20.9 108.71 20.9 48.1 0 83.65-6.83 108.7-20.9 28.18-15.82 43.93-41.24 46.95-75.65a45.39 45.39 0 0037.87-44.7zm-371.04 0c0-13.4 9.03-24.72 21.32-28.2v56.4A29.37 29.37 0 0116 226.65zm317.71 32.1c0 35.14-12.86 59.44-39.32 74.3-22.6 12.69-55.6 18.86-100.87 18.86s-78.27-6.17-100.87-18.86c-26.46-14.86-39.33-39.16-39.33-74.3v-83.42c0-63.31 42.19-116.94 99.92-134.3 43.99.56 67.4 32.31 67.4 55.3a31.97 31.97 0 01-31.92 31.94 23.97 23.97 0 01-23.95-23.95c0-9.68 7.87-17.56 17.56-17.56a8 8 0 000-16 33.6 33.6 0 00-33.56 33.56 40 40 0 0039.94 39.95 47.99 47.99 0 0047.94-47.94c0-16.6-8.34-34.47-22.32-47.79a81.38 81.38 0 00-18.89-13.38c76.42 1.03 138.28 63.5 138.28 140.17v83.43zm16-3.9v-56.4c12.3 3.49 21.33 14.8 21.33 28.2s-9.03 24.71-21.33 28.2z"/><path d="M224.46 255.2a43.8 43.8 0 01-61.88 0 8 8 0 00-11.31 11.32c11.65 11.65 26.95 17.47 42.25 17.47s30.6-5.82 42.25-17.47a8 8 0 00-11.31-11.32z"/></svg>