<svg xmlns="http://www.w3.org/2000/svg" viewBox="0 0 512 512" fill="#fff"><path d="M256 0C156.75 0 76 80.75 76 180c0 33.53 9.29 66.26 26.87 94.65l142.88 230.26A15 15 0 00258.5 512h.12a15 15 0 0012.75-7.3L410.6 272.23A179.79 179.79 0 00436 180C436 80.75 355.25 0 256 0zm128.87 256.82l-126.6 211.37-129.9-209.34A149.82 149.82 0 01105.8 180c0-82.71 67.49-150.2 150.2-150.2S406.1 97.29 406.1 180c0 27.12-7.41 53.69-21.23 76.82z"/><path d="M256 90c-49.63 0-90 40.37-90 90 0 49.3 39.72 90 90 90 50.9 0 90-41.23 90-90 0-49.63-40.37-90-90-90zm0 150.2a60.25 60.25 0 01-60.2-60.2c0-33.08 27.12-60.2 60.2-60.2s60.1 27.12 60.1 60.2c0 32.68-26.32 60.2-60.1 60.2z"/></svg>