<svg width="36" height="36" viewBox="0 0 36 108" fill="none" xmlns="http://www.w3.org/2000/svg"><svg><path d="M33.26 11.543h-1.865l-.043-.047L21.178 1.322a1.174 1.174 0 10-1.66 1.66l8.56 8.561H7.922l8.561-8.56a1.174 1.174 0 10-1.66-1.66L4.648 11.495l-.043.047H2.74A2.742 2.742 0 000 14.284v1.565a2.743 2.743 0 002.526 2.73l2.25 13.501a3.51 3.51 0 003.474 2.943h19.844a3.54 3.54 0 003.486-3.024l1.918-13.421A2.743 2.743 0 0036 15.847v-1.564c0-1.51-1.229-2.74-2.74-2.74zm.392 4.305a.392.392 0 01-.391.391H21.52a1.174 1.174 0 000 2.348h9.604l-1.869 13.08a1.18 1.18 0 01-1.162 1.007H8.25a1.17 1.17 0 01-1.158-.981L4.908 18.587h9.57a1.174 1.174 0 000-2.348H2.74a.392.392 0 01-.391-.391v-1.565c0-.216.175-.392.391-.392h30.522c.216 0 .391.176.391.392v1.565z" fill="#E33439"/><path d="M10.957 20.935c-.649 0-1.174.525-1.174 1.174v7.043a1.174 1.174 0 002.348 0V22.11c0-.649-.526-1.174-1.174-1.174zm7.043 0c-.648 0-1.174.525-1.174 1.174v7.043a1.174 1.174 0 002.348 0V22.11c0-.649-.526-1.174-1.174-1.174zm7.043 0c-.648 0-1.174.525-1.174 1.174v7.043a1.174 1.174 0 002.348 0V22.11c0-.649-.525-1.174-1.174-1.174z" fill="#E33439"/></svg><svg y="36"><path d="M33.26 11.543h-1.865l-.043-.047L21.178 1.322a1.174 1.174 0 10-1.66 1.66l8.56 8.561H7.922l8.561-8.56a1.174 1.174 0 10-1.66-1.66L4.648 11.495l-.043.047H2.74A2.742 2.742 0 000 14.284v1.565a2.743 2.743 0 002.526 2.73l2.25 13.501a3.51 3.51 0 003.474 2.943h19.844a3.54 3.54 0 003.486-3.024l1.918-13.421A2.743 2.743 0 0036 15.847v-1.564c0-1.51-1.229-2.74-2.74-2.74zm.392 4.305a.392.392 0 01-.391.391H21.52a1.174 1.174 0 000 2.348h9.604l-1.869 13.08a1.18 1.18 0 01-1.162 1.007H8.25a1.17 1.17 0 01-1.158-.981L4.908 18.587h9.57a1.174 1.174 0 000-2.348H2.74a.392.392 0 01-.391-.391v-1.565c0-.216.175-.392.391-.392h30.522c.216 0 .391.176.391.392v1.565z" fill="#323232"/><path d="M10.957 20.935c-.649 0-1.174.525-1.174 1.174v7.043a1.174 1.174 0 002.348 0V22.11c0-.649-.526-1.174-1.174-1.174zm7.043 0c-.648 0-1.174.525-1.174 1.174v7.043a1.174 1.174 0 002.348 0V22.11c0-.649-.526-1.174-1.174-1.174zm7.043 0c-.648 0-1.174.525-1.174 1.174v7.043a1.174 1.174 0 002.348 0V22.11c0-.649-.525-1.174-1.174-1.174z" fill="#323232"/></svg><svg y="72"><path d="M33.26 11.543h-1.865l-.043-.047L21.178 1.322a1.174 1.174 0 10-1.66 1.66l8.56 8.561H7.922l8.561-8.56a1.174 1.174 0 10-1.66-1.66L4.648 11.495l-.043.047H2.74A2.742 2.742 0 000 14.284v1.565a2.743 2.743 0 002.526 2.73l2.25 13.501a3.51 3.51 0 003.474 2.943h19.844a3.54 3.54 0 003.486-3.024l1.918-13.421A2.743 2.743 0 0036 15.847v-1.564c0-1.51-1.229-2.74-2.74-2.74zm.392 4.305a.392.392 0 01-.391.391H21.52a1.174 1.174 0 000 2.348h9.604l-1.869 13.08a1.18 1.18 0 01-1.162 1.007H8.25a1.17 1.17 0 01-1.158-.981L4.908 18.587h9.57a1.174 1.174 0 000-2.348H2.74a.392.392 0 01-.391-.391v-1.565c0-.216.175-.392.391-.392h30.522c.216 0 .391.176.391.392v1.565z" fill="#fff"/><path d="M10.957 20.935c-.649 0-1.174.525-1.174 1.174v7.043a1.174 1.174 0 002.348 0V22.11c0-.649-.526-1.174-1.174-1.174zm7.043 0c-.648 0-1.174.525-1.174 1.174v7.043a1.174 1.174 0 002.348 0V22.11c0-.649-.526-1.174-1.174-1.174zm7.043 0c-.648 0-1.174.525-1.174 1.174v7.043a1.174 1.174 0 002.348 0V22.11c0-.649-.525-1.174-1.174-1.174z" fill="#fff"/></svg></svg>