<svg xmlns="http://www.w3.org/2000/svg" xmlns:xlink="http://www.w3.org/1999/xlink"><symbol id="facebook"><path fill-rule="evenodd" clip-rule="evenodd" d="M0 13.417C0 6.007 6.007 0 13.417 0s13.416 6.007 13.416 13.417-6.006 13.416-13.416 13.416S0 20.827 0 13.417z" fill="#3B5998"/><path fill-rule="evenodd" clip-rule="evenodd" d="M14.815 21.305v-7.299h2.015l.267-2.515h-2.282l.004-1.26c0-.655.062-1.007 1.004-1.007h1.26V6.708h-2.015c-2.421 0-3.273 1.22-3.273 3.273v1.51h-1.509v2.515h1.509v7.3h3.02z" fill="#fff"/></symbol><symbol id="instagram"><mask id="a" maskUnits="userSpaceOnUse" x="0" y="0" width="28" height="27"><path fill-rule="evenodd" clip-rule="evenodd" d="M.5 13.417C.5 6.007 6.507 0 13.917 0s13.417 6.007 13.417 13.417-6.007 13.416-13.417 13.416S.5 20.827.5 13.417z" fill="#fff"/></mask><g mask="url(#a)" fill-rule="evenodd" clip-rule="evenodd"><path d="M.5 13.417C.5 6.007 6.507 0 13.917 0s13.417 6.007 13.417 13.417-6.007 13.416-13.417 13.416S.5 20.827.5 13.417z" fill="#F9FAFE"/><path d="M13.918 6.261c-1.943 0-2.187.009-2.95.043-.762.035-1.282.156-1.737.333-.47.183-.87.427-1.268.825a3.513 3.513 0 00-.826 1.267c-.177.455-.298.976-.332 1.737-.034.763-.043 1.007-.043 2.95 0 1.944.008 2.187.043 2.95.035.762.156 1.282.332 1.737.183.47.428.87.826 1.268.397.398.796.643 1.267.826.455.177.975.297 1.737.332.763.035 1.007.043 2.95.043 1.944 0 2.187-.008 2.95-.043.762-.035 1.282-.155 1.738-.332a3.5 3.5 0 001.266-.826c.398-.398.643-.797.826-1.268.176-.455.297-.975.333-1.736.034-.764.043-1.007.043-2.95 0-1.944-.01-2.188-.043-2.95-.036-.763-.157-1.283-.333-1.738a3.513 3.513 0 00-.826-1.267 3.498 3.498 0 00-1.267-.825c-.456-.177-.976-.298-1.738-.333-.763-.034-1.006-.043-2.95-.043h.002zm-.642 1.29h.642c1.91 0 2.137.006 2.892.04.697.033 1.076.15 1.328.247.334.13.572.285.822.535.25.25.406.49.536.823.098.252.215.63.246 1.329.034.754.042.98.042 2.89 0 1.91-.008 2.136-.042 2.89-.032.698-.148 1.077-.246 1.329-.13.334-.285.572-.536.822-.25.25-.488.405-.822.535-.252.099-.63.215-1.329.247-.754.034-.98.041-2.891.041-1.91 0-2.137-.007-2.891-.041-.698-.032-1.077-.15-1.33-.247a2.216 2.216 0 01-.822-.535 2.218 2.218 0 01-.536-.823c-.097-.252-.214-.63-.246-1.328-.034-.754-.041-.98-.041-2.892 0-1.91.007-2.136.041-2.89.032-.698.149-1.077.246-1.329a2.22 2.22 0 01.536-.823c.25-.25.489-.405.823-.535.252-.099.63-.215 1.329-.247.66-.03.916-.039 2.25-.04v.002zm4.462 1.188a.859.859 0 100 1.717.859.859 0 000-1.718zm-3.82 1.003a3.675 3.675 0 100 7.35 3.675 3.675 0 000-7.35zm0 1.29a2.385 2.385 0 110 4.77 2.385 2.385 0 010-4.77z" fill="#000"/></g></symbol><symbol id="vkontakte"><path fill-rule="evenodd" clip-rule="evenodd" d="M.833 13.417C.833 6.007 6.84 0 14.25 0s13.417 6.007 13.417 13.417S21.66 26.833 14.25 26.833.833 20.827.833 13.417z" fill="#4C6C91"/><path fill-rule="evenodd" clip-rule="evenodd" d="M14.952 17.82s.258-.029.39-.168c.122-.128.118-.369.118-.369s-.017-1.126.516-1.292c.525-.164 1.2 1.089 1.914 1.57.54.364.951.285.951.285l1.912-.026s1-.06.525-.832c-.039-.064-.276-.571-1.42-1.614-1.2-1.092-1.039-.916.405-2.804.879-1.15 1.23-1.853 1.12-2.153-.104-.287-.75-.21-.75-.21l-2.152.012s-.16-.021-.278.048c-.116.068-.19.227-.19.227s-.34.89-.795 1.647c-.958 1.597-1.341 1.681-1.498 1.582-.365-.231-.274-.929-.274-1.424 0-1.548.24-2.193-.465-2.36-.234-.056-.406-.092-1.005-.098-.768-.008-1.417.002-1.785.179-.245.117-.434.38-.319.395.142.019.464.085.635.313.22.295.213.956.213.956s.127 1.822-.296 2.048c-.29.155-.688-.161-1.542-1.61-.438-.742-.768-1.563-.768-1.563s-.064-.153-.178-.235c-.138-.1-.33-.13-.33-.13l-2.045.012s-.307.008-.42.14c-.1.116-.007.357-.007.357s1.6 3.676 3.413 5.53c1.663 1.698 3.55 1.587 3.55 1.587h.855z" fill="#fff"/></symbol><symbol id="youtube"><path fill-rule="evenodd" clip-rule="evenodd" d="M.667 13.417C.667 6.007 6.674 0 14.084 0S27.5 6.007 27.5 13.417s-6.006 13.416-13.416 13.416S.667 20.827.667 13.417z" fill="red"/><path fill-rule="evenodd" clip-rule="evenodd" d="M20.94 10.103a1.817 1.817 0 00-1.265-1.299c-1.116-.307-5.591-.307-5.591-.307s-4.475 0-5.591.307a1.82 1.82 0 00-1.266 1.3c-.299 1.145-.299 3.536-.299 3.536s0 2.391.3 3.537c.164.632.649 1.13 1.265 1.3 1.116.306 5.59.306 5.59.306s4.476 0 5.592-.307a1.817 1.817 0 001.265-1.299c.3-1.146.3-3.537.3-3.537s0-2.39-.3-3.537z" fill="#fff"/><path fill-rule="evenodd" clip-rule="evenodd" d="M12.742 16.1v-4.472l3.578 2.236-3.578 2.236z" fill="red"/></symbol></svg>