<?xml version="1.0" encoding="utf-8"?><svg xmlns="http://www.w3.org/2000/svg" xmlns:xlink="http://www.w3.org/1999/xlink"><symbol class="adont-remove" viewBox="0 0 533.5 514.5" id="left" xmlns="http://www.w3.org/2000/svg"><path class="adont-remove" stroke="#D2DBE4" fill="none" d="M234.583 371.993l-.166-.986 279-47 .166.986-279 47zM408 .5C476.759.5 532.5 56.241 532.5 125S476.759 249.5 408 249.5 283.5 193.759 283.5 125 339.241.5 408 .5z"/><path class="adont-remove" stroke="#D2DBE4" fill="none" d="M238.549 37.412L476.136 275 238.549 512.588.961 275 238.549 37.412z"/></symbol><symbol class="bdont-remove" viewBox="0 0 404.5 440.5" id="right" xmlns="http://www.w3.org/2000/svg"><path class="bdont-remove" stroke="#D2DBE4" fill="none" d="M248.017 1.629l.966-.258 81 303-.966.258-81-303z"/><path class="bdont-remove" stroke="#D2DBE4" fill="none" d="M33.656 142.869l369.706 49.46-33.018 246.802L.638 389.671l33.018-246.802z"/><path class="bdont-remove" stroke="#D2DBE4" fill="none" d="M65.948 287.723l-.896-.446 115-231 .896.446-115 231z"/><path class="bdont-remove" stroke="#D2DBE4" fill="none" d="M180.025 56.655l.95-.31 57 175-.95.31-57-175z"/><path class="bdont-remove" stroke="#D2DBE4" fill="none" d="M65.654 286.976l-.308-.952 173-56 .308.952-173 56zM195.5 285.5c21.539 0 39 17.461 39 39s-17.461 39-39 39-39-17.461-39-39 17.461-39 39-39z"/></symbol></svg>