<?xml version="1.0" encoding="utf-8"?><svg xmlns="http://www.w3.org/2000/svg" xmlns:xlink="http://www.w3.org/1999/xlink"><symbol viewBox="0 0 60 60" id="airWater" xmlns="http://www.w3.org/2000/svg"><path d="M57 32h-9.952c.21-2.842 1.044-6.435 2.78-8.172A22.45 22.45 0 0055.953 10H59a1 1 0 00.753-1.659l-7-8a1.035 1.035 0 00-1.506 0l-7 8A1 1 0 0045 10l2.912.005a14.214 14.214 0 01-3.74 8.167c-4.188 4.187-4.987 10.985-5.137 13.712 0 .039.005.077.006.116h-9.993c.21-2.842 1.044-6.435 2.78-8.172A22.45 22.45 0 0037.953 10H41a1 1 0 00.753-1.659l-7-8a1.035 1.035 0 00-1.506 0l-7 8A1 1 0 0027 10l2.912.005a14.214 14.214 0 01-3.74 8.167c-4.188 4.187-4.987 10.985-5.137 13.712 0 .039 0 .077.006.116H11.017c.21-2.842 1.044-6.435 2.78-8.172A22.447 22.447 0 0019.921 10h3.048a1 1 0 00.753-1.659l-7-8a1.035 1.035 0 00-1.506 0l-7 8A1 1 0 008.969 10h2.912a14.232 14.232 0 01-3.74 8.168C3.953 22.359 3.153 29.157 3 31.884V32a3 3 0 000 6h1.234l-2.091 3.485a1 1 0 101.714 1.03L6.566 38h2.668l-2.091 3.485a1 1 0 101.714 1.03L11.566 38h2.668l-2.091 3.485a1 1 0 101.714 1.03L16.566 38h2.668l-2.091 3.485a1 1 0 101.714 1.03L21.566 38h2.668l-2.091 3.485a1 1 0 101.714 1.03L26.566 38h2.668l-2.091 3.485a1 1 0 101.714 1.03L31.566 38h2.668l-2.091 3.485a1 1 0 101.714 1.03L36.566 38h2.668l-2.091 3.485a1 1 0 101.714 1.03L41.566 38h2.668l-2.091 3.485a1 1 0 101.714 1.03L46.566 38h2.668l-2.091 3.485a1 1 0 101.714 1.03L51.566 38h2.668l-2.091 3.485a1 1 0 101.714 1.03L56.566 38H57a3 3 0 000-6zm-15.969 0c.138-2.5.856-8.71 4.555-12.409a16.216 16.216 0 004.31-9.33A2 2 0 0047.912 8H47.2L52 2.519 56.8 8h-.843a2 2 0 00-1.997 1.836 20.43 20.43 0 01-5.546 12.578C45.7 25.127 45.145 30.438 45.04 32h-1.909zm-18 0c.138-2.5.856-8.71 4.555-12.409a16.216 16.216 0 004.31-9.33A2 2 0 0029.912 8H29.2L34 2.519 38.8 8h-.843a2 2 0 00-1.997 1.836 20.43 20.43 0 01-5.546 12.578C27.7 25.127 27.145 30.438 27.04 32h-1.909zM5 32c.138-2.5.855-8.71 4.555-12.409a16.229 16.229 0 004.31-9.33A2 2 0 0011.881 8h-.708l4.8-5.481L20.765 8h-.844a2 2 0 00-1.992 1.836 20.43 20.43 0 01-5.546 12.578C9.67 25.127 9.113 30.438 9.009 32H7.1zm52 4H3a1 1 0 010-2h6.009c.017 0 .033-.005.05-.005h17.979c.017 0 .033-.005.051-.005h17.949c.017 0 .033-.005.051-.005H57a1 1 0 010 2zm-34.375 8.219a1 1 0 00-1.25 0C21.156 44.4 16 48.582 16 54a6 6 0 0012 0c0-5.418-5.156-9.6-5.375-9.781zM22 58a4 4 0 01-4-4c0-3.439 2.736-6.451 4-7.658 1.264 1.207 4 4.219 4 7.658a4 4 0 01-4 4zM6 60a6.006 6.006 0 006-6c0-5.418-5.156-9.6-5.375-9.781a1 1 0 00-1.25 0C5.156 44.4 0 48.582 0 54a6.006 6.006 0 006 6zm0-13.658c1.264 1.207 4 4.219 4 7.658a4 4 0 11-8 0c0-3.439 2.736-6.451 4-7.658zm48.625-2.123a1 1 0 00-1.25 0C53.156 44.4 48 48.582 48 54a6 6 0 1012 0c0-5.418-5.156-9.6-5.375-9.781zM54 58a4 4 0 01-4-4c0-3.439 2.736-6.451 4-7.658 1.264 1.207 4 4.219 4 7.658a4 4 0 01-4 4zm-16 2a6.006 6.006 0 006-6c0-5.418-5.156-9.6-5.375-9.781a1 1 0 00-1.25 0C37.156 44.4 32 48.582 32 54a6.006 6.006 0 006 6zm0-13.658c1.264 1.207 4 4.219 4 7.658a4 4 0 11-8 0c0-3.439 2.736-6.451 4-7.658z"/></symbol><symbol id="calendar" viewBox="0 0 64 64" xml:space="preserve" xmlns="http://www.w3.org/2000/svg"><style>.bst0{fill:#134563}</style><g id="bIcon-Calendar" transform="translate(30 478)"><path class="bst0" d="M19.6-424h-35.2c-2.4 0-4.4-2-4.4-4.4v-32.3c0-2.4 1.6-4.4 3.7-4.4h2.2v2.9h-2.2c-.3 0-.7.6-.7 1.5v32.3c0 .8.7 1.5 1.5 1.5h35.2c.8 0 1.5-.7 1.5-1.5v-32.3c0-.9-.5-1.5-.7-1.5h-2.2v-2.9h2.2c2 0 3.7 2 3.7 4.4v32.3C24-426 22-424 19.6-424" id="bFill-133"/><path class="bst0" d="M-9.7-459.2c-.8 0-1.5-.7-1.5-1.5v-5.9c0-.8.7-1.5 1.5-1.5s1.5.7 1.5 1.5v5.9c-.1.8-.7 1.5-1.5 1.5" id="bFill-134"/><path class="bst0" d="M13.7-459.2c-.8 0-1.5-.7-1.5-1.5v-5.9c0-.8.7-1.5 1.5-1.5s1.5.7 1.5 1.5v5.9c0 .8-.7 1.5-1.5 1.5" id="bFill-135"/><path class="bst0" id="bFill-136" d="M-5.3-465.1H9.3v3H-5.3z"/><path class="bst0" id="bFill-137" d="M-17.1-456.3h38.2v3h-38.2z"/><path class="bst0" id="bFill-138" d="M15.2-450.4h2.9v2.9h-2.9z"/><path class="bst0" id="bFill-139" d="M9.3-450.4h3v2.9h-3z"/><path class="bst0" id="bFill-140" d="M3.5-450.4h2.9v2.9H3.5z"/><path class="bst0" id="bFill-141" d="M-2.4-450.4H.5v2.9h-2.9z"/><path class="bst0" id="bFill-142" d="M-8.3-450.4h3v2.9h-3z"/><path class="bst0" id="bFill-143" d="M15.2-444.5h2.9v2.9h-2.9z"/><path class="bst0" id="bFill-144" d="M9.3-444.5h3v2.9h-3z"/><path class="bst0" id="bFill-145" d="M3.5-444.5h2.9v2.9H3.5z"/><path class="bst0" id="bFill-146" d="M-2.4-444.5H.5v2.9h-2.9z"/><path class="bst0" id="bFill-147" d="M-8.3-444.5h3v2.9h-3z"/><path class="bst0" id="bFill-148" d="M-14.1-444.5h2.9v2.9h-2.9z"/><path class="bst0" id="bFill-149" d="M15.2-438.7h2.9v3h-2.9z"/><path class="bst0" id="bFill-150" d="M9.3-438.7h3v3h-3z"/><path class="bst0" id="bFill-151" d="M3.5-438.7h2.9v3H3.5z"/><path class="bst0" id="bFill-152" d="M-2.4-438.7H.5v3h-2.9z"/><path class="bst0" id="bFill-153" d="M-8.3-438.7h3v3h-3z"/><path class="bst0" id="bFill-154" d="M-14.1-438.7h2.9v3h-2.9z"/><path class="bst0" id="bFill-155" d="M9.3-432.8h3v2.9h-3z"/><path class="bst0" id="bFill-156" d="M3.5-432.8h2.9v2.9H3.5z"/><path class="bst0" id="bFill-157" d="M-2.4-432.8H.5v2.9h-2.9z"/><path class="bst0" id="bFill-158" d="M-8.3-432.8h3v2.9h-3z"/><path class="bst0" id="bFill-159" d="M-14.1-432.8h2.9v2.9h-2.9z"/></g></symbol><symbol viewBox="0 0 496 496" id="colors" xmlns="http://www.w3.org/2000/svg"><path d="M437.656 146.344L427.312 136l54.743-54.742C491.047 72.266 496 60.313 496 47.602 496 21.352 474.648 0 448.398 0c-12.71 0-24.664 4.953-33.656 13.945L360 68.687l-10.344-10.343a7.99 7.99 0 00-11.312 0l-24 24a7.99 7.99 0 000 11.312L324.688 104l-62.583 62.586C235.887 151.856 206.29 144 176 144 78.953 144 0 222.953 0 320s78.953 176 176 176 176-78.953 176-176c0-30.29-7.855-59.887-22.586-86.105L392 171.312l10.344 10.344c1.558 1.559 3.61 2.344 5.656 2.344s4.098-.785 5.656-2.344l24-24a7.99 7.99 0 000-11.312zM426.055 25.258C432.023 19.289 439.96 16 448.398 16 465.824 16 480 30.176 480 47.602c0 8.437-3.29 16.375-9.258 22.343L416 124.688 371.312 80zM380.687 160h-36.12c-12.825 0-24.872 4.992-33.942 14.055l-.57.57c-6.04 6.047-14.078 9.375-22.621 9.375h-20.122L336 115.312zm-93.093 168h48c-1.899 38.07-17.098 72.617-41.13 99.16l-33.929-33.93c15.418-17.757 25.29-40.367 27.059-65.23zM168 208.406c-24.863 1.77-47.473 11.64-65.23 27.051l-33.93-33.93c26.543-24.03 61.082-39.23 99.16-41.129zM91.457 246.77c-15.41 17.757-25.281 40.375-27.05 65.23h-48c1.898-38.07 17.097-72.617 41.128-99.16zM64.407 328c1.769 24.863 11.64 47.473 27.05 65.23l-33.93 33.93c-24.03-26.543-39.222-61.09-41.12-99.16zm38.363 76.543c17.757 15.41 40.375 25.281 65.23 27.05v48c-38.07-1.898-72.617-17.097-99.16-41.128zm81.23 27.05c24.863-1.769 47.473-11.64 65.23-27.05l33.93 33.93c-26.543 24.03-61.082 39.23-99.16 41.129zM176 416c-52.938 0-96-43.063-96-96s43.063-96 96-96c17 0 33.352 4.441 47.863 12.824l-16.55 16.551c-4.711 4.715-7.313 10.984-7.313 17.656 0 13.77 11.2 24.969 24.969 24.969 6.672 0 12.941-2.602 17.656-7.313l16.55-16.55C267.56 286.648 272 303 272 320c0 52.938-43.063 96-96 96zm55.313-138.625a8.937 8.937 0 01-6.344 2.625c-4.946 0-8.969-4.023-8.969-8.969 0-2.398.938-4.648 2.625-6.344l43.031-43.03a8.014 8.014 0 001.938-8.184L259.098 200h28.328c12.82 0 24.87-4.992 33.941-14.055l.57-.57c6.047-6.047 14.086-9.375 22.63-9.375h20.12l-62.847 62.848-19.313-6.442a7.998 7.998 0 00-8.183 1.938zm11.03-91.031a8.014 8.014 0 00-1.937 8.183l6.442 19.313-11.336 11.336c-15.567-9.809-33.13-15.574-51.512-16.871v-48.032c23.238 1.16 45.879 7.278 66.36 18.047zM335.728 312h-48.032c-1.289-18.383-7.054-35.945-16.863-51.512l11.336-11.336 19.312 6.442a7.97 7.97 0 008.184-1.938l8.024-8.023c10.761 20.488 16.878 43.129 18.039 66.367zM408 164.687L331.312 88 344 75.312 420.688 152zM488 416h-64c-4.414 0-8 3.586-8 8v64c0 4.414 3.586 8 8 8h64c4.414 0 8-3.586 8-8v-64c0-4.414-3.586-8-8-8zm-8 64h-48v-48h48zm8-160h-64c-4.414 0-8 3.586-8 8v64c0 4.414 3.586 8 8 8h64c4.414 0 8-3.586 8-8v-64c0-4.414-3.586-8-8-8zm-8 64h-48v-48h48zm0 0"/><path d="M488 224h-64c-4.414 0-8 3.586-8 8v64c0 4.414 3.586 8 8 8h64c4.414 0 8-3.586 8-8v-64c0-4.414-3.586-8-8-8zm-8 64h-48v-48h48zm0 0"/></symbol><symbol viewBox="0 0 512.007 512.007" id="eco" xmlns="http://www.w3.org/2000/svg"><path d="M135.975 347.442c-1.673-1.51-4.625-3.311-9.122-3.311H82.3v-20.779h38.298c3.652 0 6.997-1.348 9.446-3.797a12.304 12.304 0 003.678-8.798c0-3.447-1.246-6.528-4.002-9.25-2.423-2.202-5.572-3.354-9.122-3.354H82.027l-.529-17.374h43.648c3.575 0 6.878-1.348 9.327-3.797a12.348 12.348 0 003.678-8.798c0-3.396-1.297-6.579-4.002-9.25-2.424-2.202-5.547-3.354-9.003-3.354H77.649c-6.596 0-12.177 2.423-16.179 7.023-3.371 3.925-5.146 8.977-5.146 14.575v70.673c0 5.547 1.724 10.402 5.171 14.473 2.748 3.174 7.799 6.972 16.154 6.972h49.203c4.779 0 7.825-2.099 9.353-3.678 2.449-2.347 3.772-5.521 3.772-8.926 0-3.405-1.297-6.579-4.002-9.25zm105.139-23.219c-1.877-3.012-4.779-5.018-8.354-5.811a14.15 14.15 0 00-3.021-.324l-4.429.529-2.074 1.178c-3.354 1.929-5.598 5.171-6.246 8.875-1.476 6.75-3.977 11.401-7.552 14.097-3.174 2.372-7.629 3.576-13.252 3.576-7.501 0-12.979-2.347-17.271-7.398-4.975-5.854-7.501-14.754-7.501-26.479 0-11.426 2.551-20.275 7.475-26.197 4.497-5.222 10.001-7.671 17.297-7.671 5.726 0 10.172 1.178 13.602 3.575 3.524 2.475 5.726 6.221 6.724 11.273.896 5.103 3.678 7.876 5.572 9.122 2.125 1.502 4.599 2.304 7.151 2.304l2.876-.324c3.251-.725 6.101-2.603 8.098-5.453 1.929-2.876 2.671-6.221 2.125-10.027-1.929-10.3-6.528-18.722-13.798-25.096-8.226-7.023-19.123-10.573-32.35-10.573-15.147 0-27.571 5.675-36.898 16.828-9.199 10.803-13.85 25.028-13.85 42.249 0 17.604 4.676 31.923 13.824 42.479 9.301 11.025 21.726 16.597 36.924 16.597 13.278 0 24.201-3.849 32.452-11.426 6.903-6.246 11.648-14.729 14.174-25.25 1.126-5.03-.375-8.682-1.698-10.653zm104.832-52.002c-9.6-12.527-23.1-18.85-40.201-18.85-17.203.009-30.78 6.366-40.397 18.961-7.902 10.65-11.904 24.149-11.904 40.124 0 15.974 4.002 29.448 11.947 40.021 9.549 12.646 23.125 19.046 40.354 19.046 17.101 0 30.626-6.4 40.175-19.004 8.149-10.598 12.254-24.073 12.254-40.073 0-15.974-4.096-29.499-12.228-40.225zm-20.369 65.032c-4.548 6.272-10.871 9.199-19.823 9.199-9.028 0-15.326-2.927-19.797-9.148-4.326-6.05-6.528-14.396-6.528-24.849 0-10.522 2.202-18.876 6.554-24.875 4.446-6.221 10.752-9.148 19.772-9.148 8.951 0 15.249 2.927 19.823 9.225 4.395 6.024 6.622 14.379 6.622 24.798-.001 10.351-2.254 18.723-6.623 24.798z"/><path d="M500.681 8.387c-1.562-4.25-5.291-7.373-9.839-8.201l-2.159-.179c-3.772 0-7.322 1.621-9.754 4.446-8.286 9.677-31.223 13.722-53.478 17.647-31.403 5.555-70.613 12.979-93.961 40.226-12.51-27.896-38.528-50.458-61.423-61.124a12.818 12.818 0 00-12.698 1.067c-3.678 2.577-5.828 6.955-5.47 11.52.623 8.004-9.856 20.855-19.985 33.28-12.578 15.403-27.605 34.219-31.292 55.543C89.468 104.865.005 195.506.005 307.207c0 113.109 91.691 204.8 204.8 204.8s204.8-91.691 204.8-204.8c0-38.801-10.991-74.948-29.73-105.873a106.444 106.444 0 0026.871 3.447c35.934 0 63.565-13.397 82.099-39.876 32.973-47.044 24.764-120.968 11.836-156.518zM251.746 63.239c8.474-10.385 16.674-20.42 21.47-30.805 18.534 12.723 35.78 32.879 39.543 54.221 2.466 13.995-1.399 27.443-10.914 40.192a202.99 202.99 0 00-17.596-8.448c2.193-10.701 3.601-22.622 1.894-37.06-.828-7.023-7.194-12.041-14.216-11.204-7.006.862-12.032 7.219-11.204 14.217 1.135 9.591.418 17.929-.956 25.745-10.692-2.978-21.666-5.257-32.99-6.468 3.047-12.187 12.332-24.885 24.969-40.39zm132.259 243.968c0 98.807-80.393 179.2-179.2 179.2s-179.2-80.393-179.2-179.2 80.393-179.2 179.2-179.2 179.2 80.393 179.2 179.2zm83.882-156.97c-13.449 19.2-34.014 28.954-61.141 28.954-19.328 0-36.463-5.897-49.135-16.776 9.66-7.296 20.659-13.278 32.776-17.749l2.697-1.05c22.059-7.697 42.684-7.501 44.297-7.125l2.748.299c6.025 0 11.162-4.096 12.501-10.001 1.263-5.7-1.502-11.375-6.409-14.046 12.015-10.846 21.513-23.45 28.373-37.649a12.752 12.752 0 00.546-9.779 12.645 12.645 0 00-6.528-7.296c-6.11-2.901-14.123-.154-17.084 5.948-10.197 21.129-27.221 37.299-51.797 49.126 1.51-10.675-.154-21.274-4.975-30.925-3.046-6.153-11.187-8.678-17.135-5.751a12.725 12.725 0 00-6.451 7.398 12.634 12.634 0 00.691 9.779c7.697 15.428-2.022 29.5-5.786 34.074-8.422 4.198-16.358 9.097-23.697 14.626-4.361-9.498-6.025-19.977-4.813-30.797 5.41-48.802 47.616-56.252 92.339-64.154 19.098-3.379 37.325-6.579 51.575-13.602 8.603 36.692 7.904 85.793-13.592 116.496z"/></symbol><symbol viewBox="0 0 60 60" id="elasticity" xmlns="http://www.w3.org/2000/svg"><path d="M56.981 20c-.536 0-1.2.027-1.945.076l-1.115-3.909A43.36 43.36 0 0157 16a3 3 0 000-6c-.834 0-20.522.124-29.322 10.878C20.157 30.07 10.107 32 3 32a3 3 0 000 6c.349 0 .712-.011 1.072-.019l1.133 3.964C4.475 41.978 3.741 42 3 42a3 3 0 000 6c14.935 0 28.1-6.034 37.062-16.99 2.6-3.174 11.674-4.977 16.957-5.01a3 3 0 00-.038-6zm-3.974.257c-1.16.125-2.429.3-3.76.546l-1.1-3.851a56.13 56.13 0 013.751-.578zm-24.122 13.3L27.7 29.385a35.993 35.993 0 003.075-2.937l1.261 4.4a39.331 39.331 0 01-3.151 2.71zm-15.892 7.354L11.9 37.084c1.2-.254 2.411-.567 3.638-.957l1.093 3.805a41.689 41.689 0 01-3.638.979zm5.529-1.637l-1.094-3.8a35.646 35.646 0 003.479-1.547l1.108 3.857c-1.136.544-2.3 1.04-3.493 1.49zm5.305-2.427l-1.122-3.908a34.546 34.546 0 003.3-2.2l1.159 4.067a39.364 39.364 0 01-3.337 2.041zm9.819-7.625l-1.307-4.563a15.845 15.845 0 013.111-2.852l1.187 4.164c-.439.38-.846.794-1.219 1.239a40.166 40.166 0 01-1.772 2.012zm4.7-4.538l-1.139-4a27.019 27.019 0 013.455-1.632l1.1 3.857a21.039 21.039 0 00-3.412 1.775zm5.3-2.462l-1.1-3.845c1.216-.4 2.44-.736 3.634-1.012l1.1 3.846c-1.209.276-2.433.61-3.631 1.011zM2 35a1 1 0 011-1c7.539 0 18.209-2.057 26.226-11.855C37.432 12.115 56.205 12 57 12a1 1 0 010 2c-3.49.086-6.965.497-10.379 1.228h-.009a44.375 44.375 0 00-5.522 1.546h-.035c-.012 0-.044.026-.069.035-3.89 1.395-7.66 3.477-10.213 6.6C22.261 33.816 10.972 36 3 36a1 1 0 01-1-1zm4.125 2.889a42.449 42.449 0 003.8-.434l1.1 3.844c-1.24.218-2.5.385-3.78.5zM57.712 23.7a.994.994 0 01-.705.3c-4.344.027-15.031 1.511-18.493 5.744C29.937 40.227 17.324 46 3 46a1 1 0 010-2c1.172 0 2.328-.055 3.475-.135.012 0 .022.006.034.006.043-.004.085-.01.127-.018a47.3 47.3 0 005.925-.8 44.38 44.38 0 005.522-1.493c.016 0 .033 0 .049-.007s.043-.026.067-.035a41.79 41.79 0 0010.773-5.551 41.647 41.647 0 007.99-7.488C40.912 23.653 52.163 22.03 57 22a1 1 0 01.712 1.7z"/><path d="M14 0h-4a2 2 0 00-2 2v16H5.852a1.85 1.85 0 00-1.436 3.016l6.124 7.27c.35.452.889.716 1.46.714a1.817 1.817 0 001.436-.684l6.173-7.33A1.85 1.85 0 0018.148 18H16V2a2 2 0 00-2-2zm3.825 20L12 26.917 6.174 20H8.15A1.852 1.852 0 0010 18.15V2h4v16.15A1.852 1.852 0 0015.85 20zm31.636 11.715a1.922 1.922 0 00-2.9-.031l-6.173 7.33A1.85 1.85 0 0041.852 42H44v16a2 2 0 002 2h4a2 2 0 002-2V42h2.148a1.849 1.849 0 001.436-3.016zM51.85 40A1.852 1.852 0 0050 41.85V58h-4V41.85A1.852 1.852 0 0044.15 40h-1.975L48 33.083 53.826 40z"/></symbol><symbol viewBox="0 0 128 128" id="house" xmlns="http://www.w3.org/2000/svg"><path d="M37 82c0 14.9 12.1 27 27 27s27-12.1 27-27-12.1-27-27-27-27 12.1-27 27zm50 0c0 12.7-10.3 23-23 23S41 94.7 41 82s10.3-23 23-23 23 10.3 23 23z"/><path d="M62 69.3v1.5c-2.5.8-4.3 3.1-4.3 6.1 0 3.7 2.4 5.1 5.6 6.4 1.6.7 3.5 1.5 3.5 3.7 0 1.6-1.4 3-2.9 3-1.6 0-2.5-.8-3.1-1.9-1 .3-2 .7-3 1 .5 1.9 2 3.5 4.2 4.1V95h4v-1.8c2.5-.9 4.3-3.2 4.3-6.1 0-3.9-1.9-5.3-6.4-7.2-1.4-.7-2.6-1.3-2.6-3.1 0-1.4 1.3-2.7 2.7-2.7.9 0 1.9.4 2.4 1.4l3.2-1.5c-.7-1.5-2-2.6-3.5-3.1v-1.5H62z"/><path d="M111 12H92v17.2l-28-28L1.2 64 9 71.8l8-8V126h94V63.8l8 8 7.8-7.8L111 48.2V12zm-4 48v62H21V60h-.2L64 16.8 107.2 60h-.2zm14.2 4l-2.2 2.2-55-55-55 55L6.8 64 64 6.8l32 32V16h11v33.8L121.2 64z"/></symbol><symbol viewBox="0 0 512 512" id="like" xmlns="http://www.w3.org/2000/svg"><path d="M346 0c-5.522 0-10 4.478-10 10v46c0 5.522 4.478 10 10 10s10-4.478 10-10V10c0-5.522-4.478-10-10-10zM116 312c-5.52 0-10 4.48-10 10s4.48 10 10 10 10-4.48 10-10-4.48-10-10-10z"/><path d="M486 292c0-22.056-17.944-40-40-40h-74.652c11.557-29.603 16.235-64.447 15.333-95.464-.172-5.919-.399-9.342-.706-11.497C385.458 123.432 367.716 106 346 106c-22.056 0-40 17.944-40 40v10c0 63.246-81.214 98.781-142.504 114.019C158.862 259.425 148.284 252 136 252H36c-5.522 0-10 4.478-10 10v240c0 5.522 4.478 10 10 10h100c12.202 0 22.719-7.327 27.401-17.809a3274.4 3274.4 0 0114.135 3.668C212.451 506.978 231.684 512 278.46 512H386c22.056 0 40-17.944 40-40a39.764 39.764 0 00-6.77-22.238C434.678 444.359 446 429.599 446 412c0-8.194-2.436-15.869-6.696-22.262C454.684 384.326 466 369.6 466 352a39.764 39.764 0 00-6.77-22.238C474.678 324.359 486 309.599 486 292zM146 482c0 5.514-4.486 10-10 10H46V272h90c5.514 0 10 4.486 10 10v200zm300-170h-50c-5.522 0-10 4.478-10 10s4.478 10 10 10h30c11.028 0 20 8.972 20 20 0 11.046-8.954 20-20 20h-50c-5.522 0-10 4.478-10 10s4.478 10 10 10h30c10.897 0 20 8.705 20 20 0 11.046-8.954 20-20 20h-50c-5.522 0-10 4.478-10 10s4.478 10 10 10h30c11.028 0 20 8.972 20 20s-8.972 20-20 20H278.46c-44.207 0-61.473-4.509-95.87-13.492a2882.872 2882.872 0 00-16.59-4.295V290.025C238.368 272.787 326 230.711 326 156v-10c0-11.028 8.972-20 20-20 11.008 0 19.979 8.958 20 19.969V146c0 4.346 5.424 57.683-16.326 106H316c-5.522 0-10 4.478-10 10s4.478 10 10 10h130c11.028 0 20 8.972 20 20 0 11.046-8.954 20-20 20z"/><path d="M116 352c-5.522 0-10 4.478-10 10v80c0 5.522 4.478 10 10 10s10-4.478 10-10v-80c0-5.522-4.478-10-10-10zm150-226h-40c-5.522 0-10 4.478-10 10s4.478 10 10 10h40c5.522 0 10-4.478 10-10s-4.478-10-10-10zm200 0h-40c-5.522 0-10 4.478-10 10s4.478 10 10 10h40c5.522 0 10-4.478 10-10s-4.478-10-10-10zm-28.079-81.921c-3.906-3.904-10.236-3.904-14.143 0l-28.279 28.279c-3.905 3.905-3.905 10.237 0 14.143 3.907 3.905 10.236 3.904 14.143 0l28.279-28.279c3.905-3.905 3.905-10.237 0-14.143zm-141.42 28.279l-28.279-28.279c-3.906-3.904-10.236-3.904-14.143 0-3.905 3.905-3.905 10.237 0 14.143l28.279 28.279c3.908 3.905 10.237 3.904 14.143 0 3.905-3.905 3.905-10.237 0-14.143z"/></symbol><symbol viewBox="0 0 30 30" id="med" xmlns="http://www.w3.org/2000/svg"><style/><path class="hst0" d="M25 12h-6.5V5.5c0-.6-.4-1-1-1h-5c-.6 0-1 .4-1 1V12H5c-.6 0-1 .4-1 1v5c0 .6.4 1 1 1h6.5v6.5c0 .6.4 1 1 1h5c.6 0 1-.4 1-1V19H25c.6 0 1-.4 1-1v-5c0-.6-.4-1-1-1z"/></symbol><symbol viewBox="0 0 200 200" id="rocket" xmlns="http://www.w3.org/2000/svg"><path class="icls-1" d="M118.75 157a4.87 4.87 0 01-.66 0 5 5 0 01-3.67-2.46l-11.73-20.32L91 132.41A27.58 27.58 0 0167.59 109l-1.73-11.7-20.32-11.72a5 5 0 01-2.46-3.67 5 5 0 011.42-4.19L62.18 60a5 5 0 013.53-1.46H99l24.76-24.77a32.31 32.31 0 0126-9.35l19.46 1.83a5 5 0 014.51 4.51l1.83 19.46a32.3 32.3 0 01-9.35 26L141.42 101v33.29a5 5 0 01-1.46 3.53l-17.68 17.68a5 5 0 01-3.53 1.5zM56.18 80.18L73 89.86a5 5 0 012.45 3.6l2.08 14.09a17.65 17.65 0 0015 15l14.09 2.08a5 5 0 013.6 2.45l9.68 16.77 11.6-11.61V98.93a5 5 0 011.47-3.53l26.23-26.23a22.39 22.39 0 006.47-18l-1.45-15.34-15.42-1.42a22.41 22.41 0 00-18 6.47l-26.2 26.23a5 5 0 01-3.53 1.47H67.79zm-26.87 95.51a5 5 0 01-3.53-8.54l35.33-35.33a5 5 0 117.07 7.07l-35.33 35.33a5 5 0 01-3.54 1.47zm-.4-40.56a5 5 0 01-3.54-8.53l21.09-21.1a5 5 0 117.08 7.07l-21.1 21.1a5 5 0 01-3.53 1.46zm40.55 40.56a5 5 0 01-3.53-8.54L87 146.06a5 5 0 117.07 7.07L73 174.22a5 5 0 01-3.54 1.47z"/><path class="icls-1" d="M141 73a14 14 0 1114-14 14 14 0 01-14 14zm0-18a4 4 0 104 4 4 4 0 00-4-4z"/></symbol><symbol viewBox="0 0 16 16" id="shield" xmlns="http://www.w3.org/2000/svg"><path fill-rule="evenodd" d="M5.443 1.991a60.17 60.17 0 00-2.725.802.454.454 0 00-.315.366C1.87 7.056 3.1 9.9 4.567 11.773c.736.94 1.533 1.636 2.197 2.093.333.228.626.394.857.5.116.053.21.089.282.11A.73.73 0 008 14.5c.007-.001.038-.005.097-.023.072-.022.166-.058.282-.111.23-.106.525-.272.857-.5a10.197 10.197 0 002.197-2.093C12.9 9.9 14.13 7.056 13.597 3.159a.454.454 0 00-.315-.366c-.626-.2-1.682-.526-2.725-.802C9.491 1.71 8.51 1.5 8 1.5c-.51 0-1.49.21-2.557.491zm-.256-.966C6.23.749 7.337.5 8 .5c.662 0 1.77.249 2.813.525a61.09 61.09 0 012.772.815c.528.168.926.623 1.003 1.184.573 4.197-.756 7.307-2.367 9.365a11.191 11.191 0 01-2.418 2.3 6.942 6.942 0 01-1.007.586c-.27.124-.558.225-.796.225s-.526-.101-.796-.225a6.908 6.908 0 01-1.007-.586 11.192 11.192 0 01-2.417-2.3C2.167 10.331.839 7.221 1.412 3.024A1.454 1.454 0 012.415 1.84a61.11 61.11 0 012.772-.815z"/><path fill-rule="evenodd" d="M10.854 6.146a.5.5 0 010 .708l-3 3a.5.5 0 01-.708 0l-1.5-1.5a.5.5 0 11.708-.708L7.5 8.793l2.646-2.647a.5.5 0 01.708 0z"/></symbol><symbol viewBox="0 0 64 64" id="weather" xmlns="http://www.w3.org/2000/svg"><path d="M56.975 28.073C56.439 18.025 47.236 10 36 10c-1.959 0-3.854.275-5.658.769A13.847 13.847 0 0022 8C14.28 8 8 14.28 8 22c0 2.164.487 3.615 1.247 5.018C6.683 29.011 5 32.291 5 36c0 5.794 4.206 10 10 10h41c4.71 0 8-3.29 8-8 0-4.493-2.783-9.282-7.025-9.927zM10 22c0-6.617 5.383-12 12-12 2.119 0 4.143.547 5.943 1.58-5.84 2.384-10.312 7.286-11.754 13.42H15a9.17 9.17 0 00-4.05.951C10.292 24.7 10 23.618 10 22zm46 22H15c-4.71 0-8-3.29-8-8 0-4.962 3.589-9 8-9h2.83l.153-.815C19.528 17.965 27.105 12 36 12c10.477 0 19 7.626 19 17v1h1c3.536 0 6 4.216 6 8 0 3.645-2.355 6-6 6zM0 21h6v2H0zM21 0h2v6h-2zM4.707 3.293l6 6-1.415 1.414-6-6zM23 48h2v4h-2zm0 8h2v4h-2zm3.707-3.293l-1.414-1.414 2-2 1.414 1.415zm-6 6l-1.414-1.414 2-2 1.414 1.415zm8.001-1.414l-1.415 1.414-2-2 1.415-1.414zm-9.415-6.586l1.414-1.414 2 2-1.415 1.414zM26 53h4v2h-4zm-8 0h4v2h-4zm25-3h2v4h-2zm0 8h2v4h-2zm3.707-3.292l-1.414-1.415 2-2 1.414 1.415zm-6 6l-1.414-1.415 2-2 1.414 1.415zm8.001-1.415l-1.415 1.414-2-2 1.415-1.414zm-9.416-6.586l1.415-1.414 2 2-1.415 1.414zM46 55h4v2h-4zm-8 0h4v2h-4z"/></symbol></svg>