<?xml version="1.0" encoding="utf-8"?><svg xmlns="http://www.w3.org/2000/svg" xmlns:xlink="http://www.w3.org/1999/xlink"><symbol viewBox="0 0 36.5 8.5" id="arrow" xmlns="http://www.w3.org/2000/svg"><path class="adont-remove" fill-rule="evenodd" stroke="#4B4141" fill="#4B4141" d="M35.502 3.998l-3.005 3.504V4.497H.498v-.999h31.999V.493l3.005 3.505z"/></symbol><symbol viewBox="0 0 4 4" id="calendar" xmlns="http://www.w3.org/2000/svg"><path class="bdont-remove" d="M3.6.3a.1.1 0 00-.1.1h.3v.7H.3V.6h.2A.1.1 0 00.4.3C.2.3 0 .4 0 .6v3a.4.4 0 00.4.4h3.2a.4.4 0 00.4-.4v-3c0-.2-.2-.3-.4-.3zm.2 3.3a.2.2 0 01-.2.2H.4c-.1 0-.1-.1-.1-.2V1.5h3.5zM.8.8V.1H.6v.5a.2.2 0 00.2.2zm.5 0V.1h-.2v.5a.2.2 0 00.2.2zm.5 0V.1h-.2v.5a.2.2 0 00.2.2zm.5 0V.1h-.2v.5zm.5 0V.1h-.2v.5zm.5 0V.1h-.2v.5zM.8 2.4h.1v-.3A.1.1 0 00.8 2c-.1 0-.2 0-.2.1v.2zm.5 0h.1v-.3a.1.1 0 00-.1-.1c-.1 0-.2 0-.2.1v.2zm.5 0h.1v-.3a.1.1 0 00-.1-.1c-.1 0-.2 0-.2.1v.2zm.5 0h.1v-.3a.1.1 0 00-.1-.1c-.1 0-.2 0-.2.1v.2zm.5 0h.1v-.3a.1.1 0 00-.1-.1c-.1 0-.2 0-.2.1v.2zm.5 0h.1v-.3a.1.1 0 00-.1-.1c-.1 0-.2 0-.2.1v.2zm-2.5 1h.1v-.3A.1.1 0 00.8 3c-.1 0-.2 0-.2.1v.2zm.5 0h.1v-.3a.1.1 0 00-.1-.1c-.1 0-.2 0-.2.1v.2zm.5 0h.1v-.3a.1.1 0 00-.1-.1c-.1 0-.2 0-.2.1v.2zm.5 0h.1v-.3a.1.1 0 00-.1-.1c-.1 0-.2 0-.2.1v.2zm.5 0h.1v-.3a.1.1 0 00-.1-.1c-.1 0-.2 0-.2.1v.2zm.5 0h.1v-.3a.1.1 0 00-.1-.1c-.1 0-.2 0-.2.1v.2z" fill="#3e3e3e"/></symbol><symbol viewBox="0 0 4 2" id="eye" xmlns="http://www.w3.org/2000/svg"><path class="cdont-remove" d="M2 0C.9 0 0 .4 0 1s.9 1 2 1 2-.4 2-1-.9-1-2-1zM.3 1c0-.3.3-.5 1-.7A.9.9 0 001 1a.9.9 0 00.3.7c-.7-.2-1-.4-1-.7zm1.7.8a.8.8 0 01-.7-.8.7.7 0 01.7-.7.8.8 0 01.8.7.9.9 0 01-.8.8zm.7-.1A.9.9 0 003 1a.9.9 0 00-.3-.7c.7.2 1.1.4 1.1.7s-.4.5-1.1.7zM2 .6a.4.4 0 00-.4.4.4.4 0 00.4.4.4.4 0 00.4-.4.4.4 0 00-.4-.4zm0 .5c-.1 0-.1 0-.1-.1h.2c0 .1 0 .1-.1.1z" fill="#3e3e3e"/></symbol></svg>