<?xml version="1.0" encoding="utf-8"?><svg xmlns="http://www.w3.org/2000/svg" xmlns:xlink="http://www.w3.org/1999/xlink"><symbol class="adont-remove" viewBox="0 0 400.9 114.5" id="logo" xmlns="http://www.w3.org/2000/svg"><path class="adont-remove" d="M1.1 0h399.8v114.5H0V0zm396.8 3.1H3.1v108.4h394.8z" fill="#a2212b"/><path class="adont-remove" fill="#a2212b" fill-rule="evenodd" d="M72.2 38.1v9.3H60v28.8H49.9V47.4H38.2v-9.3h34zm271.3 12.8l7.3-12.8h11.8l-14 23.7v14.5h-10.2V61.8l-14-23.7h11.7l7.4 12.8zm-142 6.3a20.1 20.1 0 11-20.1-20 20.1 20.1 0 0120.1 20m-10.2 0a9.9 9.9 0 10-9.9 9.9 9.8 9.8 0 009.9-9.9m88.4 0a20.1 20.1 0 11-20.1-20 20.1 20.1 0 0120.1 20m-10.2 0a9.9 9.9 0 10-9.9 9.9 9.9 9.9 0 009.9-9.9m-50.3 9.9v-29h-10.1v38.2h26.6v-9.2h-16.5z"/><path class="adont-remove" d="M288.8 68.9a20.3 20.3 0 01-3.7-11.7A20 20 0 01320 43.9l-7.9 6.4a9.8 9.8 0 00-16.8 6.9 9.4 9.4 0 001.5 5.3 9.8 9.8 0 008.3 4.6 10.1 10.1 0 008.8-5.3h-8.1v-6.4h16.7v11.7a20 20 0 01-33.7 1.8" fill="#a2212b"/><path class="adont-remove" fill="#a2212b" fill-rule="evenodd" d="M138.1 45.8l-5.3-7.7h-12.1L132 54.7l6.1-8.9zm-5.4 30.5h-12l26.1-38.2h12.1l-26.2 38.2zm-27.6 0h10.6l-11.2-38.2H86.6L75.5 76.3H86l1.7-5.8h15.7zM90.2 61.7l4.2-14.3h2.3l4.2 14.3zm51.3 6.8l5.4 7.8h12l-11.4-16.6-6 8.8z"/></symbol><symbol class="bdont-remove" viewBox="0 0 511.999 511.999" id="tick" xmlns="http://www.w3.org/2000/svg"><path class="bdont-remove" d="M506.231 75.508c-7.689-7.69-20.158-7.69-27.849 0l-319.21 319.211L33.617 269.163c-7.689-7.691-20.158-7.691-27.849 0-7.69 7.69-7.69 20.158 0 27.849l139.481 139.481c7.687 7.687 20.16 7.689 27.849 0l333.133-333.136c7.69-7.691 7.69-20.159 0-27.849z" fill="#9d1932"/></symbol></svg>