<?xml version="1.0" encoding="utf-8"?><svg xmlns="http://www.w3.org/2000/svg" xmlns:xlink="http://www.w3.org/1999/xlink"><symbol viewBox="0 0 7 10" id="arrow" xmlns="http://www.w3.org/2000/svg"><path d="M1 1l4 4-4 4"/></symbol><symbol viewBox="0 0 12 7" id="arw" xmlns="http://www.w3.org/2000/svg"><path d="M10.59 7L6 2.673 1.41 7 0 5.668 6 0l6 5.668L10.59 7z"/></symbol><symbol viewBox="0 0 17 22" id="attach" xmlns="http://www.w3.org/2000/svg"><path d="M13.549 6.875l-2.646 9.872c-.508 1.898-2.736 2.948-4.978 2.347-2.242-.6-3.646-2.624-3.138-4.521L5.662 3.842C5.98 2.657 7.374 2 8.774 2.375c1.4.375 2.279 1.641 1.961 2.826L8.32 14.215c-.127.472-.687.736-1.245.587-.558-.15-.91-.659-.784-1.13l2.185-8.156-1.522-.408-2.185 8.155c-.318 1.185.561 2.451 1.961 2.826 1.4.376 2.794-.281 3.112-1.466l2.415-9.014c.508-1.897-.896-3.92-3.138-4.522-2.242-.6-4.47.45-4.979 2.347l-2.875 10.73c-.7 2.61 1.23 5.391 4.315 6.218 3.084.826 6.146-.617 6.845-3.227l2.646-9.872-1.522-.408z" fill-opacity=".5"/></symbol><symbol viewBox="0 0 19 18" id="back" xmlns="http://www.w3.org/2000/svg"><path d="M19 9H2m0 0l8-8M2 9l8 8"/></symbol><symbol viewBox="0 0 10 7" id="check" xmlns="http://www.w3.org/2000/svg"><path d="M9.754.235a.78.78 0 010 1.137L4.117 6.765a.867.867 0 01-1.188 0L.246 4.198a.78.78 0 010-1.137.867.867 0 011.188 0l2.09 1.999L8.565.235a.868.868 0 011.188 0z"/></symbol><symbol viewBox="0 0 15 16" id="clear" xmlns="http://www.w3.org/2000/svg"><path d="M12.656 1.938H9.874l-.307-.97-.002-.006A1.405 1.405 0 008.23 0H5.832C5.226 0 4.69.386 4.498.962l-.002.006-.308.97H1.406C.631 1.938 0 2.567 0 3.343v.937c0 .26.21.469.469.469h.506l.824 9.967v.004A1.4 1.4 0 003.2 16h7.664a1.4 1.4 0 001.4-1.279v-.004l.825-9.967h.506c.259 0 .469-.21.469-.469v-.937c0-.776-.631-1.406-1.407-1.406zm-7.268-.683a.468.468 0 01.444-.317h2.399c.2 0 .379.127.443.317l.217.683H5.17l.217-.683zm5.941 13.383a.467.467 0 01-.466.425H3.2a.466.466 0 01-.467-.425L1.915 4.75h10.232l-.818 9.888zm1.796-10.825H.937v-.47a.47.47 0 01.47-.468h11.249a.47.47 0 01.469.469v.469z"/><path d="M4.219 5.688a.469.469 0 00-.469.468v7.5a.469.469 0 10.938 0v-7.5a.469.469 0 00-.47-.468zm2.812 0a.469.469 0 00-.468.468v7.5a.469.469 0 10.937 0v-7.5a.469.469 0 00-.469-.468zm2.813 0a.469.469 0 00-.469.468v7.5a.469.469 0 10.938 0v-7.5a.469.469 0 00-.47-.468z"/></symbol><symbol viewBox="0 0 18 22" id="clip" xmlns="http://www.w3.org/2000/svg"><path d="M14.488 6.875l-2.645 9.872c-.508 1.898-2.736 2.948-4.978 2.347-2.243-.6-3.647-2.624-3.139-4.521L6.602 3.842C6.919 2.657 8.313 2 9.713 2.375c1.4.375 2.279 1.641 1.962 2.826l-2.416 9.014c-.126.472-.686.736-1.244.587-.558-.15-.911-.659-.785-1.13l2.185-8.156-1.521-.408-2.186 8.155c-.317 1.185.562 2.451 1.962 2.826 1.4.376 2.794-.281 3.111-1.466l2.415-9.014c.509-1.897-.896-3.92-3.138-4.522-2.242-.6-4.47.45-4.978 2.347l-2.875 10.73c-.7 2.61 1.23 5.391 4.314 6.218 3.085.826 6.146-.617 6.846-3.227l2.645-9.872-1.522-.408z"/></symbol><symbol viewBox="0 0 20 20" id="clock" xmlns="http://www.w3.org/2000/svg"><path d="M10 0C4.486 0 0 4.486 0 10s4.486 10 10 10 10-4.486 10-10S15.514 0 10 0zm0 18.75c-4.825 0-8.75-3.925-8.75-8.75S5.175 1.25 10 1.25s8.75 3.925 8.75 8.75-3.925 8.75-8.75 8.75z"/><path d="M10.625 3.75h-1.25v6.509l3.933 3.933.884-.884-3.567-3.567V3.75z"/></symbol><symbol viewBox="0 0 18 18" id="close" xmlns="http://www.w3.org/2000/svg"><path d="M1 1l16 16m0-16L1 17"/></symbol><symbol viewBox="0 0 34 34" id="closeSecond" xmlns="http://www.w3.org/2000/svg"><path d="M1 1l32 32m0-32L1 33"/></symbol><symbol viewBox="0 0 15 15" id="cls" xmlns="http://www.w3.org/2000/svg"><path opacity=".7" d="M0 13.5L1.5 15l6-6 6 6 1.5-1.5-6-6 6-6L13.5 0l-6 6-6-6L0 1.5l6 6-6 6z"/></symbol><symbol viewBox="0 0 12 12" id="delete" xmlns="http://www.w3.org/2000/svg"><path d="M10.4 0L12 1.6 1.6 12 0 10.4z"/><path d="M12 10.4L10.4 12 0 1.6 1.6 0z"/></symbol><symbol viewBox="0 0 13 9" id="delivered" xmlns="http://www.w3.org/2000/svg"><path opacity=".3" d="M4.136 7.12L1.034 4.298 0 5.239 4.136 9 13 .94 11.966 0l-7.83 7.12z"/></symbol><symbol viewBox="0 0 19 18" id="dialogarrow" xmlns="http://www.w3.org/2000/svg"><path d="M19 9H2m0 0l8-8M2 9l8 8"/></symbol><symbol viewBox="0 0 16 16" id="doc" xmlns="http://www.w3.org/2000/svg"><path d="M8.667 1.333H4a1.333 1.333 0 00-1.333 1.334v10.666A1.333 1.333 0 004 14.667h8a1.334 1.334 0 001.333-1.334V6L8.667 1.333z"/><path d="M8.667 1.333V6h4.666"/></symbol><symbol viewBox="0 0 13 19" id="document" xmlns="http://www.w3.org/2000/svg"><path d="M13 5.366v12.598a.52.52 0 01-.52.52H.52a.52.52 0 01-.52-.52V1.252a.52.52 0 01.52-.52h7.845a.52.52 0 01.368.152l4.114 4.114a.527.527 0 01.153.368zM8.846 2.47v2.376h2.376L8.846 2.47zM1.041 17.443H11.96V5.887H8.326a.52.52 0 01-.52-.52V1.772H1.04v15.67z"/></symbol><symbol viewBox="0 0 16 16" id="dots" xmlns="http://www.w3.org/2000/svg"><path d="M0 4h4V0H0v4zm6 12h4v-4H6v4zm-6 0h4v-4H0v4zm0-6h4V6H0v4zm6 0h4V6H6v4zm6-10v4h4V0h-4zM6 4h4V0H6v4zm6 6h4V6h-4v4zm0 6h4v-4h-4v4z" fill-opacity=".5"/></symbol><symbol viewBox="0 0 7 8" id="downloadarrow" xmlns="http://www.w3.org/2000/svg"><path d="M6.682 4H4.775V.333a.333.333 0 00-.09-.24A.301.301 0 004.459 0H2.55a.302.302 0 00-.229.094.333.333 0 00-.09.24V4H.327c-.146 0-.245.07-.298.208a.328.328 0 00.07.365l3.177 3.333A.348.348 0 003.504 8c.08 0 .155-.031.228-.094l3.169-3.322A.402.402 0 007 4.334a.333.333 0 00-.09-.24A.301.301 0 006.682 4z"/></symbol><symbol viewBox="0 0 12 12" id="edit" xmlns="http://www.w3.org/2000/svg"><path d="M0 9.5V12h2.5l7.372-7.372-2.5-2.5L0 9.5zm11.805-6.805c.26-.26.26-.68 0-.94l-1.56-1.56a.664.664 0 00-.94 0l-1.22 1.22 2.5 2.5 1.22-1.22z"/></symbol><symbol viewBox="0 0 9 18" id="fb" xmlns="http://www.w3.org/2000/svg"><path fill-rule="evenodd" clip-rule="evenodd" d="M5.842 18V9.79h2.654l.397-3.2h-3.05V4.547c0-.927.247-1.558 1.526-1.558h1.632V.125A21.091 21.091 0 006.623 0C4.271 0 2.661 1.49 2.661 4.23v2.36H0v3.2h2.66V18h3.183z"/></symbol><symbol viewBox="0 0 16 16" id="file" xmlns="http://www.w3.org/2000/svg"><path d="M8.666 1.333H4a1.333 1.333 0 00-1.333 1.334v10.666A1.333 1.333 0 004 14.667h8a1.333 1.333 0 001.333-1.334V6L8.666 1.333z"/><path d="M8.666 1.333V6h4.667"/></symbol><symbol viewBox="0 0 24 24" id="filters" xmlns="http://www.w3.org/2000/svg"><path fill-rule="evenodd" clip-rule="evenodd" d="M4 13a1 1 0 011 1v7a1 1 0 11-2 0v-7a1 1 0 011-1zM4 2a1 1 0 011 1v7a1 1 0 11-2 0V3a1 1 0 011-1zm8 9a1 1 0 011 1v9a1 1 0 11-2 0v-9a1 1 0 011-1zm0-9a1 1 0 011 1v5a1 1 0 11-2 0V3a1 1 0 011-1zm8 13a1 1 0 011 1v5a1 1 0 11-2 0v-5a1 1 0 011-1zm0-13a1 1 0 011 1v9a1 1 0 11-2 0V3a1 1 0 011-1z"/><path fill-rule="evenodd" clip-rule="evenodd" d="M0 14a1 1 0 011-1h6a1 1 0 110 2H1a1 1 0 01-1-1zm8-6a1 1 0 011-1h6a1 1 0 110 2H9a1 1 0 01-1-1zm8 8a1 1 0 011-1h6a1 1 0 110 2h-6a1 1 0 01-1-1z"/><path d="M0 0v-1h-1v1h1zm24 0h1v-1h-1v1zm0 24v1h1v-1h-1zM0 24h-1v1h1v-1zM0 1h24v-2H0v2zm23-1v24h2V0h-2zm1 23H0v2h24v-2zM1 24V0h-2v24h2z"/></symbol><symbol viewBox="0 0 16 16" id="fsactive" xmlns="http://www.w3.org/2000/svg"><path d="M3 0h2v5H3V0zm0 16h2v-5H3v5zM13 0h-2v5h2V0zm0 16h-2v-5h2v5z"/><path d="M5 3v2H0V3h5zm0 10v-2H0v2h5zm6-10v2h5V3h-5zm0 10v-2h5v2h-5z"/></symbol><symbol viewBox="0 0 20 20" id="fullscreen" xmlns="http://www.w3.org/2000/svg"><path d="M2 2h2v5H2V2zm0 16h2v-5H2v5zM18 2h-2v5h2V2zm0 16h-2v-5h2v5z"/><path d="M2 2h5v2H2V2zm0 16h5v-2H2v2zM18 2h-5v2h5V2zm0 16h-5v-2h5v2z"/></symbol><symbol viewBox="0 0 18 19" id="good" xmlns="http://www.w3.org/2000/svg"><path d="M13.447 19l-2.127-.002c-2.676 0-4.593-.22-6.034-.693-.306-.102-.575-.216-.811-.316-.42-.177-.75-.316-1.093-.316H1.985c-.423 0-1.036-.043-1.468-.414C.054 16.862 0 16.285 0 15.887V9.83c0-.556.18-1.026.521-1.358.245-.239.698-.523 1.464-.523h.124c.437.005 1.155.012 1.62-.37l.08-.143c.017-.032.033-.057.045-.077l.012-.02a.892.892 0 01.115-.194c.248-.393.527-.76.769-1.01.535-.555 1.032-.842 1.47-1.096.513-.298.885-.513 1.208-1.11l.023-.043c.484-.894.684-1.264.805-1.708.04-.151.059-.31.053-.47-.043-.628.283-1.59 1.37-1.705L9.71 0h.032c.661 0 1.215.148 1.645.441.641.435.966 1.143.966 2.103a9.818 9.818 0 01-.823 3.944l4.536.54a1.997 1.997 0 011.875 2.092 2.17 2.17 0 01-.67 1.477c.368.341.563.803.541 1.334-.007.533-.18.958-.512 1.265-.129.119-.272.21-.425.282a1.8 1.8 0 01.397 1.131 1.94 1.94 0 01-.638 1.458 2.196 2.196 0 01-1.238.543c.072.19.106.396.097.614a2.74 2.74 0 01-.023.322 1.4 1.4 0 01-.445.83 2.331 2.331 0 01-1.579.624zM1.985 9.062c-.568 0-.81.23-.81.768v6.057c0 .198.022.454.13.547.055.047.216.126.68.126h1.397c.593 0 1.068.2 1.57.413.227.095.461.194.721.28 1.293.425 3.14.632 5.647.632l2.128.002c.276 0 .535-.107.768-.318.03-.026.07-.063.095-.197a2.49 2.49 0 00.008-.152v-.012l.001-.025c.01-.217-.102-.377-.335-.474a.656.656 0 01-.41-.668c.035-.358.373-.625.752-.595l.79.063a1 1 0 00.707-.247.854.854 0 00.275-.653c0-.357-.275-.762-.88-.807a.65.65 0 01-.442-.218.583.583 0 01-.14-.453.623.623 0 01.644-.53c.36.005.964.016 1.201-.203.038-.035.154-.141.157-.486v-.019c.023-.491-.39-.683-.74-.758a.575.575 0 01-.466-.602.587.587 0 01.567-.518c.401-.02.746-.442.77-.942.022-.496-.328-.915-.78-.934l-.048-.003-4.619-.55a1.122 1.122 0 01-.837-.528c-.177-.293-.2-.64-.06-.951.282-.626.754-1.92.754-3.563 0-1.245-.74-1.424-1.4-1.43-.13.019-.195.074-.245.2a.886.886 0 00-.053.325v.018c.011.273-.019.541-.09.8-.153.563-.386.994-.897 1.938l-.022.041c-.474.877-1.068 1.22-1.642 1.553-.389.226-.792.459-1.215.898-.194.2-.435.522-.645.859l-.037.056a1.413 1.413 0 01-.062.111l-.013.022-.013.024a6.722 6.722 0 00-.116.21l-.043.08-.067.063c-.81.768-1.968.756-2.524.75h-.111zm12.328 8.3l-.001.005v-.006zm0-.003v.002-.002zm.007-.129v.004-.004zm.99-4.538h.001zm.75-1.566h-.001z"/></symbol><symbol viewBox="0 0 20 14" id="hamburger" xmlns="http://www.w3.org/2000/svg"><path d="M0 0h20v2H0V0zm0 6h20v2H0V6zm0 6h20v2H0v-2z"/></symbol><symbol viewBox="0 0 18 18" id="instagram" xmlns="http://www.w3.org/2000/svg"><path fill-rule="evenodd" clip-rule="evenodd" d="M9 1.622c2.403 0 2.687.009 3.637.052.877.04 1.354.187 1.671.31a2.98 2.98 0 011.708 1.708c.123.317.27.794.31 1.671.044.95.052 1.234.052 3.637s-.008 2.688-.052 3.637c-.04.878-.187 1.354-.31 1.671a2.982 2.982 0 01-1.708 1.709c-.317.123-.793.27-1.67.31-.95.043-1.235.052-3.638.052-2.403 0-2.687-.01-3.637-.053-.878-.04-1.354-.186-1.671-.31a2.98 2.98 0 01-1.708-1.708c-.123-.317-.27-.793-.31-1.67-.044-.95-.052-1.235-.052-3.638 0-2.403.008-2.688.052-3.637.04-.877.187-1.353.31-1.67a2.98 2.98 0 011.708-1.709c.317-.123.793-.27 1.67-.31.95-.043 1.235-.052 3.638-.052zM9 0C6.555 0 6.25.01 5.29.054a6.607 6.607 0 00-2.186.419A4.601 4.601 0 00.472 3.105 6.605 6.605 0 00.054 5.29C.01 6.25 0 6.556 0 9s.01 2.75.054 3.71c.015.747.157 1.486.418 2.185a4.603 4.603 0 002.632 2.633c.7.261 1.438.403 2.185.418C6.25 17.99 6.555 18 9 18c2.444 0 2.75-.01 3.71-.054a6.609 6.609 0 002.186-.419 4.602 4.602 0 002.631-2.632c.262-.7.404-1.438.419-2.184C17.99 11.75 18 11.444 18 9c0-2.445-.01-2.751-.054-3.71a6.603 6.603 0 00-.419-2.185A4.602 4.602 0 0014.896.473 6.607 6.607 0 0012.71.054C11.75.01 11.444 0 9 0zm0 4.379a4.62 4.62 0 10.002 9.241A4.62 4.62 0 009 4.38zM9 12a3 3 0 11.002-6A3 3 0 019 12zm5.885-7.804a1.08 1.08 0 11-2.16 0 1.08 1.08 0 012.16 0z"/></symbol><symbol viewBox="0 0 18 16" id="like" xmlns="http://www.w3.org/2000/svg"><path d="M8.435 14.063l-.022-.02-.023-.02c-2.358-2.015-4.225-3.635-5.513-5.15C1.599 7.373 1 6.097 1 4.784 1 2.67 2.68 1 4.95 1c1.244 0 2.499.573 3.298 1.485L9 3.344l.752-.86C10.552 1.574 11.806 1 13.05 1 15.32 1 17 2.671 17 4.783c0 1.313-.599 2.589-1.877 4.09-1.288 1.515-3.155 3.135-5.513 5.15l-.023.02-.022.02L9 14.61l-.565-.546z"/></symbol><symbol viewBox="0 0 14 14" id="loading" xmlns="http://www.w3.org/2000/svg"><path d="M7 1.166v2.333M7 10.5v2.333M2.875 2.875l1.65 1.65m4.948 4.948l1.65 1.65M1.166 7h2.333M10.5 7h2.333m-9.958 4.123l1.65-1.65m4.948-4.947l1.65-1.651"/></symbol><symbol viewBox="0 0 14 14" id="loupe" xmlns="http://www.w3.org/2000/svg"><path d="M9.959 8.958l-.306.351.329.33 3.45 3.466a.22.22 0 01-.006.323.274.274 0 01-.19.072.272.272 0 01-.196-.08L9.563 9.93l-.292-.294-.343.232a5.436 5.436 0 01-3.073.937C2.885 10.805.5 8.477.5 5.652.5 2.828 2.886.5 5.855.5c2.969 0 5.354 2.328 5.354 5.152a5.02 5.02 0 01-1.25 3.306zm.723-3.306C10.682 3.056 8.5.975 5.855.975c-2.646 0-4.828 2.081-4.828 4.677 0 2.597 2.182 4.678 4.828 4.678 2.645 0 4.827-2.081 4.827-4.678z"/></symbol><symbol viewBox="0 0 24 24" id="mail" xmlns="http://www.w3.org/2000/svg"><path d="M21.89 2.86H2.11C.947 2.86 0 3.805 0 4.968V19.03c0 1.159.944 2.11 2.11 2.11h19.78c1.16 0 2.11-.944 2.11-2.11V4.97c0-1.159-.944-2.11-2.11-2.11zm-.29 1.406l-9.555 9.554-9.638-9.554H21.6zM1.405 18.74V5.253l6.773 6.715-6.773 6.772zm.995.994l6.776-6.776 2.375 2.354a.703.703 0 00.992-.002l2.315-2.316 6.74 6.74H2.401zm20.193-.994L15.854 12l6.74-6.74v13.48z"/></symbol><symbol viewBox="0 0 26 9" id="messageread" xmlns="http://www.w3.org/2000/svg"><path d="M4.136 7.12L1.034 4.298 0 5.239 4.136 9 13 .94 11.966 0l-7.83 7.12zm13 0l-3.102-2.821-1.034.94L17.136 9 26 .94 24.966 0l-7.83 7.12z"/></symbol><symbol viewBox="0 0 24 24" id="moreVertical" xmlns="http://www.w3.org/2000/svg"><path d="M12 13a1 1 0 100-2 1 1 0 000 2zm0-7a1 1 0 100-2 1 1 0 000 2zm0 14a1 1 0 100-2 1 1 0 000 2z"/></symbol><symbol viewBox="0 0 10 12" id="pause" xmlns="http://www.w3.org/2000/svg"><path d="M6.857 0H9.6v12H6.857zM0 0h2.743v12H0z"/></symbol><symbol viewBox="0 0 9 12" id="play" xmlns="http://www.w3.org/2000/svg"><path d="M9 6l-9 5.196V.804L9 6z"/></symbol><symbol viewBox="0 0 22 22" id="ring" xmlns="http://www.w3.org/2000/svg"><g clip-path="url(#bjclip0)"><path d="M19.345 17.508c-.065-.042-.552-.383-1.04-1.415-.894-1.894-1.082-4.562-1.082-6.467a6.242 6.242 0 00-3.675-5.686V2.45A2.452 2.452 0 0011.101 0h-.203a2.451 2.451 0 00-2.445 2.45v1.49a6.242 6.242 0 00-3.675 5.686c0 1.905-.188 4.573-1.083 6.467-.487 1.032-.974 1.373-1.039 1.415a.627.627 0 00-.344.712.656.656 0 00.646.504h4.725A3.325 3.325 0 0011 22a3.325 3.325 0 003.318-3.276h4.724a.656.656 0 00.647-.504.627.627 0 00-.345-.712zM9.74 2.45c0-.64.52-1.16 1.158-1.16h.202c.639 0 1.158.52 1.158 1.16v1.07a6.217 6.217 0 00-2.518 0V2.45zM11 20.709a2.034 2.034 0 01-2.03-1.985h4.059a2.034 2.034 0 01-2.03 1.985zm2.595-3.276H4.426c.112-.174.225-.37.338-.593.864-1.703 1.302-4.13 1.302-7.214A4.943 4.943 0 0111 4.684c2.72 0 4.933 2.217 4.933 4.944v.024c.003 3.071.441 5.49 1.303 7.188.113.223.226.42.337.593h-3.978z"/></g><defs><clipPath id="bjclip0"><path d="M0 0h22v22H0z"/></clipPath></defs></symbol><symbol viewBox="0 0 32 32" id="send" xmlns="http://www.w3.org/2000/svg"><path d="M30.286 16.142H14.73m15.553 0L11.19 25.334l3.535-9.192L11.19 6.95l19.092 9.192z"/></symbol><symbol viewBox="0 0 16 16" id="soundoff" xmlns="http://www.w3.org/2000/svg"><g opacity=".5"><path d="M12 8a3.994 3.994 0 00-2.222-3.578v1.965l2.182 2.182A3.99 3.99 0 0012 8z"/><path d="M14.222 8c0 .836-.182 1.622-.48 2.347l1.347 1.346A7.953 7.953 0 0016 8c0-3.804-2.662-6.987-6.222-7.796V2.04A6.221 6.221 0 0114.222 8zM8 .889L6.142 2.747 8 4.604V.89zM1.133 0L0 1.133l4.2 4.2H0v5.334h3.556L8 15.11V9.133l3.782 3.783a6.262 6.262 0 01-2.004 1.048V15.8a7.973 7.973 0 003.275-1.609L14.867 16 16 14.867l-8-8L1.133 0z"/></g></symbol><symbol viewBox="0 0 17 16" id="soundon" xmlns="http://www.w3.org/2000/svg"><g opacity=".5"><path d="M12.1 7.861a4.026 4.026 0 00-2.24-3.608v7.22a4.039 4.039 0 002.24-3.612zM0 5.172v5.378h3.585l4.482 4.482V.69L3.585 5.172H0z"/><path d="M9.86 0v1.851a6.274 6.274 0 014.482 6.01 6.274 6.274 0 01-4.482 6.01v1.851c3.59-.815 6.274-4.02 6.274-7.86C16.134 4.02 13.45.815 9.86 0z"/></g></symbol><symbol viewBox="0 0 18 18" id="star" xmlns="http://www.w3.org/2000/svg"><path d="M17.984 6.85a.327.327 0 00-.26-.23l-5.829-.889L9.29.19A.32.32 0 009 0a.32.32 0 00-.289.189L6.105 5.732.276 6.62a.327.327 0 00-.26.23.35.35 0 00.081.346l4.218 4.315-.996 6.092a.347.347 0 00.128.33c.1.077.231.087.34.027L9 15.085l5.213 2.876a.31.31 0 00.34-.026.346.346 0 00.128-.33l-.996-6.093 4.218-4.315a.35.35 0 00.081-.346z"/></symbol><symbol viewBox="0 0 68 52" id="thanksCheck" xmlns="http://www.w3.org/2000/svg"><path d="M21.636 41.134L5.41 24.836 0 30.269 21.636 52 68 5.433 62.59 0 21.637 41.134z"/></symbol><symbol viewBox="0 0 20 20" id="time" xmlns="http://www.w3.org/2000/svg"><path d="M10 0C4.486 0 0 4.486 0 10s4.486 10 10 10 10-4.486 10-10S15.514 0 10 0zm0 18.75c-4.825 0-8.75-3.925-8.75-8.75S5.175 1.25 10 1.25s8.75 3.925 8.75 8.75-3.925 8.75-8.75 8.75z"/><path d="M10.625 3.75h-1.25v6.509l3.933 3.933.884-.884-3.567-3.567V3.75z"/></symbol><symbol viewBox="0 0 18 15" id="twitter" xmlns="http://www.w3.org/2000/svg"><path fill-rule="evenodd" clip-rule="evenodd" d="M18 1.702a7.475 7.475 0 01-2.12.573A3.657 3.657 0 0017.503.263a7.469 7.469 0 01-2.345.882A3.714 3.714 0 0013.063.048a3.747 3.747 0 00-2.341.383A3.664 3.664 0 009.1 2.136a3.589 3.589 0 00-.235 2.325A10.611 10.611 0 014.649 3.36 10.455 10.455 0 011.254.663a3.59 3.59 0 00-.406 2.65 3.64 3.64 0 001.548 2.204 3.716 3.716 0 01-1.672-.455v.046c0 .84.295 1.653.835 2.303a3.704 3.704 0 002.126 1.262 3.76 3.76 0 01-1.667.063 3.644 3.644 0 001.314 1.806 3.735 3.735 0 002.136.718A7.483 7.483 0 01.88 12.817c-.294 0-.589-.017-.881-.051A10.572 10.572 0 005.662 14.4c6.791 0 10.506-5.54 10.506-10.345a9.16 9.16 0 00-.011-.47A7.444 7.444 0 0018 1.701z"/></symbol><symbol viewBox="0 0 18 10" id="vk" xmlns="http://www.w3.org/2000/svg"><path fill-rule="evenodd" clip-rule="evenodd" d="M8.807 9.71h1.076s.325-.034.49-.204c.154-.156.149-.449.149-.449s-.021-1.37.649-1.572c.66-.2 1.508 1.324 2.407 1.91.68.444 1.197.347 1.197.347l2.403-.032s1.258-.074.662-1.013c-.05-.076-.348-.694-1.788-1.963-1.507-1.329-1.305-1.114.51-3.412 1.106-1.4 1.548-2.253 1.41-2.62-.132-.348-.945-.256-.945-.256L14.32.462a.644.644 0 00-.35.059.728.728 0 00-.238.276c-.28.69-.614 1.36-1 2.003-1.205 1.943-1.687 2.046-1.884 1.926-.458-.282-.344-1.13-.344-1.733 0-1.883.301-2.668-.585-2.872C9.625.054 9.408.01 8.655.002 7.69-.007 6.872.005 6.41.22c-.308.143-.546.462-.4.48.178.023.583.105.798.382.277.358.267 1.163.267 1.163s.16 2.217-.372 2.492c-.365.189-.865-.196-1.94-1.96a16.042 16.042 0 01-.966-1.9.768.768 0 00-.223-.287A1.152 1.152 0 003.16.43L.587.446S.2.456.059.616c-.126.142-.01.435-.01.435s2.013 4.473 4.293 6.727C6.433 9.845 8.807 9.71 8.807 9.71z"/></symbol><symbol viewBox="0 0 20 20" id="voiceDefault" xmlns="http://www.w3.org/2000/svg"><g clip-path="url(#bsclip0)"><path fill-rule="evenodd" clip-rule="evenodd" d="M5.24 5.19l6.58-3.29v15.67l-6.58-3.29H1.82A1.81 1.81 0 010 12.46V7a1.81 1.81 0 011.82-1.81h3.42zM17 2a11 11 0 013 7.76 11 11 0 01-3 7.77l-1.43-1.15a8.999 8.999 0 002.63-6.62 9.058 9.058 0 00-2.63-6.62L17 2zm-.62 7.76a7.76 7.76 0 00-2.2-5.51l-1.46 1.12a5.87 5.87 0 011.83 4.36 5.889 5.889 0 01-1.83 4.37l1.44 1.14a7.75 7.75 0 002.2-5.51l.02.03z"/></g><defs><clipPath id="bsclip0"><path d="M0 0h20v20H0z"/></clipPath></defs></symbol><symbol viewBox="0 0 20 20" id="voiceNone" xmlns="http://www.w3.org/2000/svg"><g clip-path="url(#btclip0)"><path fill-rule="evenodd" clip-rule="evenodd" d="M1.55 0L.27 1.29l3.9 3.9H1.82A1.81 1.81 0 000 7v5.45a1.81 1.81 0 001.82 1.82h3.42l6.58 3.29v-4.72l6.63 6.63 1.28-1.29L1.55 0zm10.27 7.72V1.9L7.94 3.84l3.88 3.88zm2.69 2.67L16.06 12a8.119 8.119 0 00.3-2.23 7.76 7.76 0 00-2.2-5.51l-1.44 1.11a5.87 5.87 0 011.83 4.36c0 .27-.02.46-.04.68v-.02zm3 3l1.38 1.38A11.78 11.78 0 0020 9.73 11 11 0 0017 2l-1.45 1.11a9.058 9.058 0 012.63 6.62 9.919 9.919 0 01-.68 3.68l.01-.02z"/></g><defs><clipPath id="btclip0"><path d="M0 0h20v19.47H0z"/></clipPath></defs></symbol><symbol viewBox="0 0 20 20" id="voiceSmall" xmlns="http://www.w3.org/2000/svg"><g clip-path="url(#buclip0)"><path fill-rule="evenodd" clip-rule="evenodd" d="M11.82 1.9L5.24 5.19H1.82A1.81 1.81 0 000 7v5.45a1.81 1.81 0 001.82 1.82h3.42l6.58 3.29V1.9zm4.54 7.83a7.76 7.76 0 00-2.2-5.51l-1.44 1.15a5.87 5.87 0 011.83 4.36 5.889 5.889 0 01-1.83 4.37l1.44 1.14a7.75 7.75 0 002.2-5.51z"/></g><defs><clipPath id="buclip0"><path d="M0 0h20v20H0z"/></clipPath></defs></symbol></svg>