<svg width="18" height="22" viewBox="0 0 18 22" fill="none" xmlns="http://www.w3.org/2000/svg">
<path d="M14.4882 6.875L11.8429 16.7475C11.3345 18.6448 9.10672 19.6948 6.86452 19.094C4.62233 18.4932 3.21801 16.4699 3.72637 14.5727L6.60173 3.8417C6.91917 2.657 8.31312 1.99997 9.71323 2.37513C11.1133 2.75029 11.992 4.01626 11.6746 5.20096L9.25927 14.215C9.13275 14.6872 8.57268 14.9511 8.01467 14.8016C7.45666 14.6521 7.10362 14.1435 7.23013 13.6713L9.41541 5.51574L7.89356 5.10796L5.70828 13.2635C5.39084 14.4482 6.26952 15.7142 7.66963 16.0893C9.06973 16.4645 10.4637 15.8075 10.7811 14.6228L13.1964 5.60874C13.7048 3.7115 12.3005 1.6882 10.0583 1.08741C7.81608 0.486616 5.58825 1.53668 5.07988 3.43392L2.20452 14.1649C1.50523 16.7747 3.4352 19.5553 6.51948 20.3817C9.60377 21.2082 12.6655 19.7651 13.3648 17.1553L16.0101 7.28278L14.4882 6.875Z" fill="#2A2D34"/>
</svg>
