<svg xmlns="http://www.w3.org/2000/svg" xmlns:xlink="http://www.w3.org/1999/xlink" viewBox="0 0 352.1 169.2"><defs><linearGradient id="a" x1="162.63" y1="98.1" x2="162.63" y2="75.53" gradientUnits="userSpaceOnUse"><stop offset="0" stop-color="#8294af"/><stop offset="0.99" stop-color="#65abc7"/></linearGradient><linearGradient id="b" x1="171.2" y1="98.1" x2="171.2" y2="75.53" xlink:href="#a"/><linearGradient id="c" x1="219.31" y1="141.01" x2="219.31" y2="117.64" xlink:href="#a"/><linearGradient id="d" x1="230.33" y1="141.01" x2="230.33" y2="117.64" xlink:href="#a"/><linearGradient id="e" x1="103.43" y1="141.01" x2="103.43" y2="117.64" xlink:href="#a"/><linearGradient id="f" x1="114.44" y1="141.01" x2="114.44" y2="117.64" xlink:href="#a"/></defs><title>home</title><g style="isolation:isolate"><rect x="84.8" y="71.8" width="34.2" height="4.96" fill="#d5b363"/><rect x="87.1" y="76.8" width="21.9" height="15.03" fill="#ccc"/><polygon points="204.6 66.3 249.5 66.3 313.3 112.4 204.6 112.4 204.6 66.3" fill="#6d545b"/><rect x="84.8" y="49.6" width="58.4" height="22.26" fill="#59454a"/><polygon points="249.7 114.3 60.1 114.3 154.9 43.7 249.7 114.3" fill="#6d545b"/><polygon points="261.9 101 72.3 101 167.1 30.3 261.9 101" fill="#7b5f67"/><polygon points="201.1 83.6 201.1 88.8 183 70.7 180.4 68 167.1 54.7 153.8 68 133 88.8 133 83.6 167.1 49.6 201.1 83.6" fill="#d5b363"/><rect x="72.3" y="101" width="64.8" height="4.95" fill="#8f6f78"/><rect x="197.1" y="101" width="64.8" height="4.95" fill="#8f6f78"/><rect x="82.8" y="105.9" width="166.7" height="53.3" fill="#e5e5e5"/><rect x="82.8" y="152.9" width="166.7" height="6.35" fill="#999"/><polygon points="201.1 88.8 197.1 88.8 197.1 105.9 137.1 105.9 137.1 88.8 133 88.8 167.1 54.7 201.1 88.8" fill="#e5e5e5"/><rect x="157.8" y="73.9" width="18.4" height="25.82" fill="#d5b363"/><rect x="159.1" y="75.5" width="7.1" height="22.57" fill="url(#a)"/><rect x="167.6" y="75.5" width="7.1" height="22.57" fill="url(#b)"/><polygon points="180.4 68 153.8 68 157.2 64.6 177 64.6 180.4 68" fill="#d5b363"/><rect x="133" y="105.9" width="68.1" height="6.51" fill="#fff"/><rect x="137.1" y="112.4" width="7.4" height="38.32" fill="#fff"/><rect x="189.7" y="112.4" width="7.4" height="38.32" fill="#fff"/><rect x="133" y="150.8" width="68.1" height="4.23" fill="#f2f2f2"/><rect x="129.5" y="155" width="75.1" height="4.23" fill="#fff"/><rect x="154.9" y="116.7" width="24.2" height="34.08" fill="#957a80"/><rect x="213.1" y="116" width="23.6" height="26.75" fill="#d5b363"/><rect x="214.8" y="117.6" width="9.1" height="23.38" fill="url(#c)"/><rect x="225.8" y="117.6" width="9.1" height="23.38" fill="url(#d)"/><rect x="97.2" y="116" width="23.6" height="26.75" fill="#d5b363"/><rect x="98.9" y="117.6" width="9.1" height="23.38" fill="url(#e)"/><rect x="109.9" y="117.6" width="9.1" height="23.38" fill="url(#f)"/><rect x="60.1" y="114.3" width="22.7" height="4.65" fill="#8f6f78"/><rect x="64.5" y="118.9" width="18.3" height="40.28" fill="#ccc"/><rect x="64.5" y="152.9" width="18.3" height="6.35" fill="#b3b3b3"/><path d="M190.7,93.1H142.5v12.8h49.2V93.1Zm-3.2,1.3v1.2h-3.3V94.4Zm-4.3,0v1.2h-4.1V94.4Zm-5.1,0v1.2h-4.4V94.4Zm-5.5,0v1.2h-5V94.4Zm-6,0v1.2h-5.1V94.4Zm-6.1,0v1.2h-4.4V94.4Zm-5.5,0v1.2h-4V94.4Zm-5.1,0v1.2h-3.2V94.4Zm-6.4,0h2.1v1.2h-2.1Zm0,10.3V96.9h2.1v7.8Zm3.2,0V96.9h3.2v7.8Zm4.3,0V96.9h4v7.8Zm5.1,0V96.9h4.4v7.8Zm5.4,0V96.9h5.1v7.8Zm6.1,0V96.9h5v7.8Zm6.1,0V96.9h4.4v7.8Zm5.4,0V96.9h4.1v7.8Zm5.1,0V96.9h3.3v7.8Zm6.5,0h-2.2V96.9h2.2Zm0-9.1h-2.2V94.4h2.2Z" fill="#7b656a"/><polygon points="97.2 116 97.2 120 97.2 142.7 100.9 142.7 100.9 120 120.8 120 120.8 116 97.2 116" fill="#ccc" style="mix-blend-mode:multiply"/><polygon points="213.1 116 213.1 120 213.1 142.7 216.8 142.7 216.8 120 236.7 120 236.7 116 213.1 116" fill="#ccc" style="mix-blend-mode:multiply"/><polygon points="157.8 73.9 157.8 77.8 157.8 99.7 160.7 99.7 160.7 77.8 176.2 77.8 176.2 73.9 157.8 73.9" fill="#ccc" style="mix-blend-mode:multiply"/><rect x="249.5" y="112.4" width="63.8" height="4.24" fill="#8f6f78"/><rect x="249.5" y="116.7" width="51.8" height="42.55" fill="#ccc"/><rect x="249.5" y="152.9" width="51.8" height="6.35" fill="#b3b3b3"/><rect x="252.4" y="125.3" width="44.9" height="33.93" fill="#957a80"/><polygon points="301.4 120.8 301.4 116.7 259 116.7 249.5 116.7 249.5 159.2 259 159.2 259 128.2 297.4 128.2 297.4 125.3 259 125.3 259 120.8 301.4 120.8" fill="#ccc" style="mix-blend-mode:multiply"/><rect x="82.8" y="105.9" width="50.2" height="4.65" fill="#ccc" style="mix-blend-mode:multiply"/><rect x="201.1" y="105.9" width="48.6" height="4.65" fill="#ccc" style="mix-blend-mode:multiply"/><g style="mix-blend-mode:multiply"><polygon points="144.5 120 148.6 120 148.6 150.8 155.9 150.8 160.1 150.8 160.1 124.2 179.1 124.2 179.1 120 189.7 120 189.7 112.4 144.5 112.4 144.5 120" fill="#ccc"/><polygon points="201.1 110.6 201.1 112.4 197.1 112.4 197.1 120 197.1 150.8 201.1 150.8 201.1 152.9 203.9 152.9 203.9 150.8 203.9 120 207.5 120 207.5 110.6 201.1 110.6" fill="#ccc"/></g><rect x="64.5" y="118.9" width="18.3" height="5.27" fill="#ccc" style="mix-blend-mode:multiply"/><polygon points="104.7 76.8 99.3 80.8 87.1 80.8 87.1 76.8 104.7 76.8" fill="#ccc" style="mix-blend-mode:multiply"/><polygon points="159.2 70.7 183 70.7 180.4 68 161.8 68 171.1 58.7 167.1 54.7 153.8 68 153.8 68 153.8 68 133 88.8 137.1 88.8 137.1 93.1 159.2 70.7" fill="#ccc" style="mix-blend-mode:multiply"/><rect x="137.1" y="112.4" width="7.4" height="4.24" fill="#ccc" opacity="0.67"/><rect x="189.7" y="112.4" width="7.4" height="4.24" fill="#ccc" opacity="0.67"/><path d="M280,146.4l-2.4-.6a38.7,38.7,0,0,0-5.6-.5,26,26,0,0,0-4.6.4l-2.3.4a3.4,3.4,0,0,1,.6,1.5l1.8-.4a29,29,0,0,1,4.5-.3,35.5,35.5,0,0,1,5.2.4,15.8,15.8,0,0,1,2.9.8A3.2,3.2,0,0,1,280,146.4Z" fill="#707070"/><path d="M282.6,137.9v15.5a1.5,1.5,0,0,0,1.5,1.5h17.7a1.5,1.5,0,0,0,1.5-1.5v-2.2l2.5-.9,1.8.9,1-1.4,3.6-.7,3,.6a7.9,7.9,0,0,1,8.9,1.1l4.2-1.8,2.7,1.4,3.4-2.1,2.6,1.5,3.5-5.1-3.2-3.1-33.9-1.1V138a1.6,1.6,0,0,0-1.5-1.6H284.1A1.6,1.6,0,0,0,282.6,137.9Zm5.3,10.7a3,3,0,1,1,3-2.9A2.9,2.9,0,0,1,287.9,148.6Z" fill="#a7a1ae"/><polygon points="304.6 142.6 336.9 143.4 338.5 144.8 304.6 144.7 304.6 142.6" fill="#e5e5e5" style="mix-blend-mode:multiply"/><path d="M279.3,138.3l-3.5,15.1a1.5,1.5,0,0,0,1.2,1.8l17.2,4a1.5,1.5,0,0,0,1.8-1.1l.5-2.2,2.6-.3,1.6,1.3,1.3-1.1h3.6l2.8,1.3a8,8,0,0,1,8.4,3l4.5-.8,2.4,2,3.8-1.3,2.2,2,4.5-4.1-2.4-3.8-32.9-8.5.6-2.6a1.5,1.5,0,0,0-1.1-1.9l-17.2-4A1.6,1.6,0,0,0,279.3,138.3Zm2.9,11.6a2.8,2.8,0,0,1-2.2-3.5,3,3,0,1,1,2.2,3.5Z" fill="#d5d8e3"/><polygon points="299.8 147.7 331.1 155.7 332.4 157.5 299.4 149.8 299.8 147.7" fill="#e5e5e5" style="mix-blend-mode:multiply"/><path d="M269.8,135.4l-42.1,2.7a1.5,1.5,0,0,0-1.4,1.6l1.3,20.9a1.5,1.5,0,0,0,1.7,1.4l42-2.7a1.6,1.6,0,0,0,1.5-1.6l-1.4-20.9A1.5,1.5,0,0,0,269.8,135.4ZM263,150.8a3,3,0,1,1,2.7-3.1A2.9,2.9,0,0,1,263,150.8Z" fill="#ffe610"/><path d="M231.1,142.5l.9,14.7,36-2.3-1-14.7Zm31.9,8.3a3,3,0,1,1,2.7-3.1A2.9,2.9,0,0,1,263,150.8Z" fill="#ffe610" style="mix-blend-mode:multiply"/><path d="M282.4,148.7a2.8,2.8,0,0,1-.4,1.2c-1,1-3.4,1.6-5.8,1.9l-4.2.3-4.3-.3a14.2,14.2,0,0,1-4.4-1.1c-1-.5-1.7-1.1-1.7-2s1.5-2.1,3.5-2.6a3.4,3.4,0,0,1,.6,1.5c-1.6.3-2.5.8-2.6,1.1s.8.7,1.9,1l2.7.6,4.3.2a30.4,30.4,0,0,0,4.6-.3,11.1,11.1,0,0,0,4.1-1.2c.1-.1.2-.2.2-.3a1.4,1.4,0,0,0-.8-.6,3.2,3.2,0,0,1-.1-1.7C281.4,146.9,282.4,147.7,282.4,148.7Z" fill="#707070"/><path d="M352.1,164.2a5,5,0,0,1-5,5H5a5,5,0,0,1-5-5H0a5,5,0,0,1,5-5H347.1a5.1,5.1,0,0,1,5,5Z" fill="#94acbc"/><polygon points="237.8 4.9 242.2 12.8 250.1 17.2 242.2 21.5 237.8 29.5 233.4 21.5 225.5 17.2 233.4 12.8 237.8 4.9" fill="#fff"/><polygon points="208.3 46.6 211.9 53.2 218.5 56.8 211.9 60.5 208.3 67.1 204.6 60.5 198 56.8 204.6 53.2 208.3 46.6" fill="#fff"/><polygon points="114.4 0 117.5 5.6 123 8.6 117.5 11.6 114.4 17.2 111.4 11.6 105.8 8.6 111.4 5.6 114.4 0" fill="#fff"/><polygon points="304.2 65.2 306.6 69.5 310.9 71.8 306.6 74.2 304.2 78.5 301.8 74.2 297.5 71.8 301.8 69.5 304.2 65.2" fill="#fff"/><polygon points="140.8 22.8 143.1 27.2 147.4 29.5 143.1 31.9 140.8 36.2 138.4 31.9 134.1 29.5 138.4 27.2 140.8 22.8" fill="#fff"/><polygon points="60.5 64.3 63.7 70.1 69.5 73.3 63.7 76.4 60.5 82.3 57.3 76.4 51.5 73.3 57.3 70.1 60.5 64.3" fill="#fff"/></g></svg>