<svg width="20" height="20" viewBox="0 0 20 20" fill="none" xmlns="http://www.w3.org/2000/svg">
<path d="M0 9.74605V10.2851C0.140625 15.457 4.30469 19.6093 9.26172 20H10.7852C15.7695 19.6054 19.8633 15.4179 20 10.2773V9.74605C19.8633 4.51558 15.6289 0.273396 10.5234 0.0116769C5.03125 -0.265667 0.152344 4.14058 0 9.74605Z" fill="#A33B73"/>
<path d="M10.0469 5.02344C11.6406 5.02344 11.8281 5.02734 12.4609 5.05859C13.043 5.08203 13.3555 5.18359 13.5664 5.26563C13.8437 5.375 14.043 5.50781 14.25 5.71875C14.457 5.92969 14.5898 6.13281 14.6992 6.41406C14.7812 6.62891 14.875 6.94922 14.9062 7.54297C14.9375 8.18359 14.9414 8.375 14.9414 9.99609C14.9414 11.6172 14.9375 11.8086 14.9062 12.4492C14.8828 13.0391 14.7852 13.3633 14.6992 13.5781C14.5898 13.8594 14.4609 14.0625 14.25 14.2734C14.043 14.4844 13.8437 14.6172 13.5664 14.7266C13.3555 14.8125 13.0391 14.9102 12.4609 14.9336C11.832 14.9648 11.6406 14.9688 10.0469 14.9688C8.45312 14.9688 8.26562 14.9648 7.63281 14.9336C7.05078 14.9102 6.73828 14.8086 6.52734 14.7266C6.25 14.6172 6.05078 14.4844 5.84375 14.2734C5.63672 14.0625 5.50391 13.8594 5.39453 13.5781C5.3125 13.3633 5.21875 13.043 5.1875 12.4492C5.15625 11.8086 5.15234 11.6172 5.15234 9.99609C5.15234 8.375 5.15625 8.18359 5.1875 7.54297C5.21094 6.95313 5.30859 6.62891 5.39453 6.41406C5.50391 6.13281 5.63281 5.92969 5.84375 5.71875C6.05078 5.50781 6.25 5.375 6.52734 5.26563C6.73828 5.17969 7.05469 5.08203 7.63281 5.05859C8.26172 5.03125 8.45312 5.02344 10.0469 5.02344ZM10.0469 3.92969C8.42578 3.92969 8.22266 3.9375 7.58984 3.96875C6.95703 4 6.51953 4.10156 6.14062 4.25C5.74609 4.40625 5.41406 4.61328 5.08594 4.95313C4.75391 5.29297 4.55078 5.62891 4.39844 6.03125C4.25 6.41406 4.14844 6.85938 4.12109 7.50391C4.08984 8.14844 4.08594 8.35547 4.08594 10.0039C4.08594 11.6523 4.09375 11.8594 4.12109 12.5039C4.15234 13.1484 4.25391 13.5898 4.39844 13.9766C4.55078 14.375 4.75391 14.7148 5.08594 15.0547C5.41797 15.3945 5.75 15.6016 6.14062 15.7578C6.51953 15.9102 6.95703 16.0117 7.58984 16.0391C8.22656 16.0703 8.42969 16.0781 10.0469 16.0781C11.6641 16.0781 11.8711 16.0703 12.5039 16.0391C13.1367 16.0078 13.5742 15.9062 13.9531 15.7578C14.3477 15.6016 14.6797 15.3945 15.0078 15.0547C15.3398 14.7148 15.543 14.3789 15.6953 13.9766C15.8437 13.5937 15.9453 13.1484 15.9727 12.5039C16.0039 11.8594 16.0078 11.6523 16.0078 10.0039C16.0078 8.35547 16 8.14844 15.9727 7.50391C15.9414 6.85938 15.8398 6.41797 15.6953 6.03125C15.543 5.63281 15.3398 5.29297 15.0078 4.95313C14.6758 4.61328 14.3437 4.40625 13.9531 4.25C13.5742 4.09766 13.1367 3.99609 12.5039 3.96875C11.8711 3.9375 11.6641 3.92969 10.0469 3.92969Z" fill="white"/>
<path d="M10.0469 6.88293C8.35156 6.88293 6.98438 8.27747 6.98438 10.0001C6.98438 11.7228 8.35547 13.1173 10.0469 13.1173C11.7383 13.1173 13.1094 11.7228 13.1094 10.0001C13.1094 8.27747 11.7383 6.88293 10.0469 6.88293ZM10.0469 12.0236C8.94922 12.0236 8.05859 11.1212 8.05859 10.0001C8.05859 8.87903 8.94922 7.97669 10.0469 7.97669C11.1445 7.97669 12.0352 8.87903 12.0352 10.0001C12.0352 11.1212 11.1445 12.0236 10.0469 12.0236Z" fill="white"/>
<path d="M13.2305 7.48425C13.6253 7.48425 13.9453 7.15896 13.9453 6.75769C13.9453 6.35642 13.6253 6.03113 13.2305 6.03113C12.8357 6.03113 12.5156 6.35642 12.5156 6.75769C12.5156 7.15896 12.8357 7.48425 13.2305 7.48425Z" fill="white"/>
</svg>
