<svg width="20" height="20" viewBox="0 0 20 20" fill="none" xmlns="http://www.w3.org/2000/svg">
<path d="M10.0097 8.28782C10.9645 8.28434 11.7251 7.51728 11.7216 6.56035C11.7181 5.60301 10.956 4.84127 10.0007 4.84046C9.03739 4.83943 8.26808 5.61529 8.27544 6.58122C8.2826 7.53467 9.05171 8.2913 10.0097 8.28782Z" fill="#DA8B4C"/>
<path d="M10 0C4.47714 0 0 4.47734 0 10C0 15.5227 4.47714 20 10 20C15.5229 20 20 15.5227 20 10C20 4.47734 15.5229 0 10 0ZM10.0143 3.04102C11.9621 3.04634 13.5255 4.63959 13.5155 6.6089C13.5057 8.53279 11.9167 10.0921 9.97217 10.0855C8.04747 10.079 6.46895 8.48327 6.48041 6.5555C6.49125 4.60665 8.07059 3.0357 10.0143 3.04102ZM13.9595 11.4695C13.5288 11.9116 13.0103 12.2316 12.4346 12.4548C11.8903 12.6658 11.2939 12.772 10.7034 12.8428C10.7928 12.9397 10.8348 12.9874 10.8904 13.0431C11.6917 13.8486 12.4968 14.65 13.2953 15.4578C13.5675 15.7332 13.6241 16.0745 13.4744 16.3943C13.3109 16.7441 12.944 16.9741 12.5841 16.9494C12.3562 16.9336 12.1784 16.8205 12.0207 16.6615C11.4159 16.053 10.7996 15.4553 10.2075 14.8354C10.0346 14.6549 9.95192 14.6893 9.79949 14.846C9.1912 15.4725 8.57289 16.089 7.9511 16.7022C7.67182 16.9776 7.33954 17.0275 7.01545 16.87C6.6711 16.7034 6.45217 16.3517 6.46895 15.998C6.48082 15.7594 6.59826 15.5765 6.76235 15.4132C7.5556 14.6216 8.34639 13.8275 9.13739 13.0341C9.18997 12.9815 9.23867 12.9256 9.31499 12.8438C8.23611 12.731 7.26322 12.4655 6.43028 11.8142C6.32675 11.7332 6.22015 11.655 6.12604 11.5642C5.76123 11.2141 5.7246 10.8129 6.01289 10.4C6.25985 10.0464 6.67396 9.95192 7.10465 10.1551C7.18813 10.1942 7.26752 10.2437 7.34363 10.2961C8.89575 11.3627 11.0281 11.3919 12.5864 10.3437C12.7407 10.2259 12.9058 10.1289 13.0971 10.08C13.4686 9.98425 13.8157 10.1211 14.0149 10.4464C14.2431 10.8182 14.2404 11.1808 13.9595 11.4695Z" fill="#DA8B4C"/>
</svg>
