<?xml version="1.0" encoding="utf-8"?><svg xmlns="http://www.w3.org/2000/svg" xmlns:xlink="http://www.w3.org/1999/xlink"><symbol viewBox="0 0 512 512" id="adjust" xmlns="http://www.w3.org/2000/svg"><path d="M165.138 97.251c-6.386-20.264-25.352-35-47.698-35s-41.312 14.736-47.698 35H0v30h69.741c6.386 20.264 25.352 35 47.698 35s41.312-14.736 47.698-35H512v-30H165.138zm-47.699 35c-11.028 0-20-8.972-20-20s8.972-20 20-20 20 8.972 20 20-8.972 20-20 20zm47.7 252.5c-6.386-20.265-25.353-35.002-47.7-35.002s-41.313 14.737-47.699 35.002H0v30h69.742c6.387 20.263 25.352 34.998 47.697 34.998 22.345 0 41.31-14.735 47.697-34.998H512v-30H165.139zm-47.7 34.998c-11.028 0-20-8.972-20-20s8.972-20 20-20 20 8.972 20 20-8.972 20-20 20zm186.259-178.748C297.312 220.737 278.346 206 256 206s-41.312 14.737-47.699 35.001H0v30h208.302C214.689 291.264 233.654 306 256 306s41.311-14.736 47.698-34.999H512v-30H303.698zM256 276c-11.028 0-20-8.972-20-20s8.972-20 20-20 20 8.972 20 20-8.972 20-20 20z"/></symbol><symbol viewBox="0 0 305 305" id="apple" xmlns="http://www.w3.org/2000/svg"><path class="abdont-remove" d="M40.738 112.119c-25.785 44.745-9.393 112.648 19.121 153.82C74.092 286.523 88.502 305 108.239 305c.372 0 .745-.007 1.127-.022 9.273-.37 15.974-3.225 22.453-5.984 7.274-3.1 14.797-6.305 26.597-6.305 11.226 0 18.39 3.101 25.318 6.099 6.828 2.954 13.861 6.01 24.253 5.815 22.232-.414 35.882-20.352 47.925-37.941 12.567-18.365 18.871-36.196 20.998-43.01l.086-.271a2.5 2.5 0 00-1.328-3.066c-.032-.015-.15-.064-.183-.078-3.915-1.601-38.257-16.836-38.618-58.36-.335-33.736 25.763-51.601 30.997-54.839l.244-.152a2.498 2.498 0 00.71-3.511c-18.014-26.362-45.624-30.335-56.74-30.813a50.043 50.043 0 00-4.95-.242c-13.056 0-25.563 4.931-35.611 8.893-6.936 2.735-12.927 5.097-17.059 5.097-4.643 0-10.668-2.391-17.645-5.159-9.33-3.703-19.905-7.899-31.1-7.899-.267 0-.53.003-.789.008-26.03.383-50.626 15.275-64.186 38.859z"/><path class="abdont-remove" d="M212.101.002c-15.763.642-34.672 10.345-45.974 23.583-9.605 11.127-18.988 29.679-16.516 48.379a2.499 2.499 0 002.284 2.164c1.064.083 2.15.125 3.232.126 15.413 0 32.04-8.527 43.395-22.257 11.951-14.498 17.994-33.104 16.166-49.77a2.515 2.515 0 00-2.587-2.225z"/></symbol><symbol viewBox="0 0 512 512" id="arrowIn" xmlns="http://www.w3.org/2000/svg"><path d="M432 0H80C35.888 0 0 35.888 0 80v40c0 11.046 8.954 20 20 20s20-8.954 20-20V80c0-22.056 17.944-40 40-40h352c22.056 0 40 17.944 40 40v352c0 22.056-17.944 40-40 40H80c-22.056 0-40-17.944-40-40v-40c0-11.046-8.954-20-20-20s-20 8.954-20 20v40c0 44.112 35.888 80 80 80h352c44.112 0 80-35.888 80-80V80c0-44.112-35.888-80-80-80z"/><path d="M335.919 213.567l-74.784-74.716c-7.814-7.807-20.477-7.801-28.284.013-7.807 7.814-7.801 20.477.013 28.284l74.778 74.709c7.798 7.798 7.798 20.486 0 28.284l-.087.088-74.784 75.716c-7.762 7.859-7.684 20.522.175 28.284A19.932 19.932 0 00246.999 380c5.16 0 10.318-1.985 14.23-5.946l74.746-75.677c23.346-23.398 23.329-61.425-.056-84.81z"/><path d="M233 236H20c-11.046 0-20 8.954-20 20s8.954 20 20 20h213c11.046 0 20-8.954 20-20s-8.954-20-20-20z"/></symbol><symbol viewBox="0 0 512 512" id="car" xmlns="http://www.w3.org/2000/svg"><path d="M512 151h-88.5l-60-80h-215l-60 80H0v130h83.58c6.192 17.458 22.865 30 42.42 30s36.228-12.542 42.42-30h122.754c-5.903 13.829-9.174 29.039-9.174 45 0 63.411 51.589 115 115 115s115-51.589 115-115c0-15.961-3.271-31.171-9.174-45H512V151zm-241-50h77.5l37.5 50H271v-50zm-107.5 0H241v50H126l37.5-50zM126 281c-8.271 0-15-6.729-15-15s6.729-15 15-15 15 6.729 15 15-6.729 15-15 15zm271 130c-46.869 0-85-38.131-85-85s38.131-85 85-85 85 38.131 85 85-38.131 85-85 85zm85-162.379C460.952 225.52 430.64 211 397 211c-34.78 0-66.001 15.522-87.107 40H168.42c-6.192-17.458-22.865-30-42.42-30s-36.228 12.542-42.42 30H30v-70h452v67.621z"/><path d="M432.519 282.422l-49.119 49.39-22.002-21.78-21.105 21.321 43.273 42.835 70.224-70.61z"/></symbol><symbol viewBox="0 0 60 60" id="carWash" xmlns="http://www.w3.org/2000/svg"><path d="M14.052 41.926l-6.468-.9A2.266 2.266 0 005 43.265v2.47A2.267 2.267 0 007.265 48h6.47A2.267 2.267 0 0016 45.735v-1.567a2.275 2.275 0 00-1.948-2.242zM14 45.735a.265.265 0 01-.265.265h-6.47A.265.265 0 017 45.735v-2.47c0-.146.117-.264.263-.265a.307.307 0 01.042 0l6.468.9c.13.02.226.13.227.262zm23.418-4.713l-6.473.9A2.275 2.275 0 0029 44.168v1.567A2.267 2.267 0 0031.265 48h6.47A2.267 2.267 0 0040 45.735v-2.47a2.266 2.266 0 00-2.582-2.243zM38 45.735a.265.265 0 01-.265.265h-6.47a.265.265 0 01-.265-.265v-1.567c0-.13.095-.241.224-.262L37.7 43a.269.269 0 01.04 0c.145.002.262.12.262.265zM13 28a1 1 0 00.6-.2l4-3a1 1 0 10-1.2-1.6l-4 3A1 1 0 0013 28zm.2 3.6a1 1 0 001.4.2l8-6a1 1 0 00-1.2-1.6l-8 6a1 1 0 00-.2 1.4z"/><path d="M45.649.57a2.667 2.667 0 00-3.288-.008 49 49 0 00-9.476 9.981A28.434 28.434 0 0028.73 19H15.86a7.346 7.346 0 00-7.041 5.192L7.092 29H3.5a3.48 3.48 0 00-2.477 1.022 3.5 3.5 0 00.5 5.364A4.979 4.979 0 000 38.97V50a3 3 0 002 2.816V57a3 3 0 003 3h3a3 3 0 003-3v-4h23v4a3 3 0 003 3h3a3 3 0 003-3v-4.184A3 3 0 0045 50V39.951a16.052 16.052 0 009.408-3.767A15.8 15.8 0 0060 24.131C60 12.126 47.118 1.718 45.649.57zM10.72 24.81A5.356 5.356 0 0115.86 21h12.414c-.42 2.314-.36 4.69.178 6.979a15.31 15.31 0 002.954 5.991H7.432l1.281-3.57.013-.038zM3.5 34a1.5 1.5 0 010-3h2.874l-1.066 2.97H5c-.1 0-.2.024-.3.03zM9 57a1 1 0 01-1 1H5a1 1 0 01-1-1v-4h5zm31 1h-3a1 1 0 01-1-1v-4h5v4a1 1 0 01-1 1zm2-7H3a1 1 0 01-1-1V38.97A2.993 2.993 0 014.7 36h28.65a15.95 15.95 0 007.943 3.779c.566.089 1.135.148 1.707.178V50a1 1 0 01-1 1zm11.113-16.34a14.174 14.174 0 01-11.5 3.145 13.977 13.977 0 01-7.182-3.505l-.01-.009-.019-.02-.012-.012a13.5 13.5 0 01-3.99-6.745C27.446 15.169 41.931 3.436 43.591 2.139A.656.656 0 0144 2c.153 0 .301.052.422.146C45.808 3.232 58 13.074 58 24.131a13.806 13.806 0 01-4.887 10.529z"/><path d="M42.259 33.857a9.837 9.837 0 01-7.971-7.273 1 1 0 10-1.945.465 11.863 11.863 0 009.595 8.783 1 1 0 10.321-1.975zM26 46h-7a1 1 0 000 2h7a1 1 0 000-2zm0-4h-7a1 1 0 000 2h7a1 1 0 000-2z"/></symbol><symbol viewBox="0 0 485 485" id="chat" xmlns="http://www.w3.org/2000/svg"><path d="M413.974 71.027C368.171 25.225 307.274 0 242.5 0 177.726 0 116.829 25.225 71.027 71.027S0 177.726 0 242.5c0 46.517 13.117 91.428 38.005 130.373L.944 484.055l111.184-37.06C151.071 471.883 195.982 485 242.5 485c64.773 0 125.671-25.225 171.474-71.026C459.775 368.171 485 307.274 485 242.5c0-64.774-25.225-125.671-71.026-171.473zM242.5 455c-42.976 0-84.377-12.77-119.729-36.928l-6.146-4.2-68.247 22.749 22.749-68.245-4.199-6.146C42.77 326.877 30 285.475 30 242.5 30 125.327 125.327 30 242.5 30S455 125.327 455 242.5 359.673 455 242.5 455z"/><path d="M125.238 192.5H359.8v30H125.238zm-.038 70h234.601v30H125.2z"/></symbol><symbol viewBox="0 0 60 47" id="chatLove" xmlns="http://www.w3.org/2000/svg"><path d="M1.627 32.761a2 2 0 002.634 2.44l8.105-3.118c.86.327 1.735.61 2.624.847C17.856 39.907 26.637 45 37 45a29.817 29.817 0 0010.634-1.917l8.1 3.118c.712.276 1.52.12 2.078-.4.562-.517.779-1.31.556-2.041L56.4 37.168A13.944 13.944 0 0060 28c0-7.3-6.251-13.531-15-15.938C42.088 4.938 33.152 0 23 0 10.318 0 0 7.626 0 17a13.944 13.944 0 003.6 9.168zM58 28a12.124 12.124 0 01-3.456 8.242 1 1 0 00-.222.965l2.135 7.128-8.468-3.258a.995.995 0 00-.733.006A27.685 27.685 0 0137 43c-11.58 0-21-6.729-21-15s9.42-15 21-15 21 6.729 21 15zM2 17C2 8.729 11.42 2 23 2c8.7 0 16.381 3.828 19.516 9.5A30.8 30.8 0 0037 11c-12.682 0-23 7.626-23 17 0 .887.094 1.772.279 2.639a25.08 25.08 0 01-1.536-.557 1 1 0 00-.732-.005l-8.468 3.258 2.135-7.128a1 1 0 00-.222-.965A12.124 12.124 0 012 17z"/><path d="M6.2 17.98a1 1 0 00.78-1.18c-.846-4.233 3.357-6.839 3.537-6.948a1 1 0 00-1.032-1.713C9.257 8.28 3.894 11.57 5.02 17.2a1 1 0 001.18.78z"/><circle cx="13" cy="7" r="1"/><path d="M31 18c-3.925 0-7 3.3-7 7.515 0 4.652 3.846 9.175 12.1 14.234a1.73 1.73 0 001.8 0C46.154 34.69 50 30.167 50 25.515 50 21.3 46.925 18 43 18a8.47 8.47 0 00-6 2.478A8.47 8.47 0 0031 18zm6.827 4.562A6.491 6.491 0 0143 20c2.851 0 5 2.371 5 5.515 0 3.862-3.5 7.817-11 12.438-7.5-4.621-11-8.575-11-12.438C26 22.371 28.149 20 31 20a6.488 6.488 0 015.172 2.561 1 1 0 001.655.001z"/></symbol><symbol viewBox="0 0 12 9" id="check" xmlns="http://www.w3.org/2000/svg"><path d="M11.337 1.6L5.291 8.51 5.1 8.346l-.211.212L.571 4.239l1.221-1.221 3.205 3.205L10.025.477 11.337 1.6z"/></symbol><symbol viewBox="0 0 512 512" id="clock" xmlns="http://www.w3.org/2000/svg"><path d="M347.216 301.211l-71.387-53.54V138.609c0-10.966-8.864-19.83-19.83-19.83-10.966 0-19.83 8.864-19.83 19.83v118.978c0 6.246 2.935 12.136 7.932 15.864l79.318 59.489a19.713 19.713 0 0011.878 3.966c6.048 0 11.997-2.717 15.884-7.952 6.585-8.746 4.8-21.179-3.965-27.743z"/><path d="M256 0C114.833 0 0 114.833 0 256s114.833 256 256 256 256-114.833 256-256S397.167 0 256 0zm0 472.341c-119.275 0-216.341-97.066-216.341-216.341S136.725 39.659 256 39.659c119.295 0 216.341 97.066 216.341 216.341S375.275 472.341 256 472.341z"/></symbol><symbol viewBox="0 0 43 44" id="close" xmlns="http://www.w3.org/2000/svg"><path d="M9.9 12.101l1.414-1.414L32.527 31.9l-1.414 1.414z"/><path d="M11.314 33.314L9.899 31.9l21.213-21.213 1.415 1.414z"/></symbol><symbol viewBox="0 0 41.6 76.9" id="facebook" xmlns="http://www.w3.org/2000/svg"><path class="akdont-remove" d="M40 0H30C18.8 0 11.6 7.4 11.6 18.9v8.8h-10A1.6 1.6 0 000 29.2v12.7a1.6 1.6 0 001.6 1.5h10v31.9a1.6 1.6 0 001.6 1.6h13a1.6 1.6 0 001.6-1.6V43.4h11.7a1.6 1.6 0 001.6-1.5V29.2a1.6 1.6 0 00-.5-1.1 1.2 1.2 0 00-1.1-.4H27.8v-7.4c0-3.6.9-5.4 5.5-5.4H40a1.6 1.6 0 001.6-1.6V1.6A1.6 1.6 0 0040 0z" fill="#fff"/></symbol><symbol class="aldont-remove" viewBox="0 0 512 512" opacity=".33" id="finger" xmlns="http://www.w3.org/2000/svg"><path class="aldont-remove" d="M256 4.74c-141.16 0-256 114.84-256 256 0 31.421 5.632 62.116 16.736 91.229a9.486 9.486 0 008.861 6.104 9.458 9.458 0 003.377-.625c4.891-1.866 7.345-7.345 5.479-12.238-10.278-26.947-15.491-55.366-15.491-84.47C18.963 130.036 125.296 23.703 256 23.703S493.037 130.036 493.037 260.74a9.481 9.481 0 009.481 9.481c5.236 0 9.482-4.245 9.482-9.481 0-141.16-114.84-256-256-256z" fill="#fff"/><path class="aldont-remove" d="M256.132 52.147c-56.908 0-115.863 27.535-157.602 73.655-36.968 40.847-55.595 90.375-51.044 135.882l1.053 10.648c7.407 73.761 7.398 73.761-6.509 101.278-.968 1.917-2.002 3.958-3.099 6.148-2.34 4.685-.444 10.38 4.238 12.722a9.428 9.428 0 004.232 1.002 9.484 9.484 0 008.488-5.243c1.081-2.164 2.1-4.181 3.058-6.076 16.405-32.456 16.257-33.942 8.444-111.725l-1.067-10.643c-4.018-40.185 12.819-84.387 46.199-121.269 38.201-42.215 91.97-67.417 143.609-67.417 104.565 0 189.764 85.067 189.764 189.63v47.407c0 5.236 4.245 9.481 9.482 9.481s9.482-4.245 9.482-9.481V260.74c-.001-115.019-93.71-208.593-208.728-208.593z" fill="#fff"/><path class="aldont-remove" d="M315.345 110.832c-18.886-7.484-38.854-11.278-59.345-11.278-43.215 0-83.683 16.551-113.951 46.604-30.459 30.245-47.234 70.937-47.234 114.581 0 24.213 2.231 45.329 4.201 63.958 5.083 48.111 7.884 74.614-28.424 98.82-4.356 2.905-5.535 8.792-2.629 13.148a9.468 9.468 0 007.898 4.222 9.432 9.432 0 005.25-1.592c45.852-30.567 41.84-68.53 36.762-116.588-1.919-18.167-4.095-38.755-4.095-61.968 0-79.75 62.472-142.222 142.222-142.222 18.09 0 35.706 3.345 52.359 9.944 4.863 1.926 10.377-.454 12.308-5.322 1.928-4.867-.454-10.379-5.322-12.307zm101.84 149.542c-.118-51.748-25.315-100.613-67.456-130.782-4.257-3.046-10.18-2.069-13.229 2.192-3.046 4.257-2.067 10.181 2.192 13.229 37.275 26.685 59.53 69.947 59.53 115.727 0 .243.009.486.028.727.093 1.217 9.139 122.623-9.227 196.086a9.484 9.484 0 009.206 11.783 9.486 9.486 0 009.192-7.185c18.79-75.159 10.426-192.935 9.764-201.777z" fill="#fff"/><path class="aldont-remove" d="M362.91 221.716c-16.324-44.713-59.289-74.755-106.91-74.755-62.736 0-113.778 51.039-113.778 113.778 0 .393.025.787.074 1.176.093.745 9.218 75.336.021 139.706-.741 5.183 2.861 9.986 8.047 10.727.454.065.905.097 1.352.097 4.641 0 8.699-3.414 9.375-8.143 9.208-64.458 1.046-136.236.097-144.128.303-52.021 42.72-94.25 94.812-94.25 39.688 0 75.493 25.035 89.095 62.296 1.796 4.919 7.246 7.444 12.16 5.655 4.919-1.795 7.449-7.24 5.655-12.159z" fill="#fff"/><path class="aldont-remove" d="M256.132 194.369c-36.597 0-66.435 29.773-66.435 66.37 0 .37-.014.741.03 1.106.185 1.577 17.963 158.327-26.759 220.938-3.044 4.262-2.065 10.183 2.197 13.227a9.422 9.422 0 005.5 1.766c2.956 0 5.87-1.38 7.72-3.97 47.991-67.187 31.632-221.102 30.211-233.588.28-25.903 21.572-46.887 47.539-46.887 26.141 0 47.539 21.266 47.539 47.407v66.37a9.482 9.482 0 0018.964 0v-66.37c-.001-36.596-29.909-66.369-66.506-66.369zm199.863 136.769c-5.16-.456-9.817 3.401-10.271 8.618l-5.785 66.118a9.477 9.477 0 009.456 10.308c4.861 0 9.002-3.72 9.433-8.655l5.785-66.118c.459-5.218-3.4-9.815-8.618-10.271zM147.481 432.999c-4.354-2.905-10.243-1.727-13.148 2.63l-18.963 28.444c-2.905 4.357-1.727 10.243 2.629 13.148a9.428 9.428 0 005.25 1.592 9.47 9.47 0 007.898-4.222l18.963-28.444c2.906-4.356 1.728-10.243-2.629-13.148zm222.086-174.246c-1.095-5.12-6.139-8.382-11.257-7.285-5.12 1.097-8.382 6.137-7.285 11.257.278 1.296 27.222 130.539-18.174 221.329-2.34 4.685-.442 10.38 4.241 12.722a9.484 9.484 0 0012.722-4.241c48.339-96.677 20.943-228.228 19.753-233.782z" fill="#fff"/><path class="aldont-remove" d="M265.199 248.96c-1.273-5.083-6.431-8.164-11.498-6.9-5.081 1.271-8.169 6.419-6.901 11.498.183.734 17.979 74.12-9.278 155.889-1.655 4.968 1.03 10.336 5.997 11.993a9.478 9.478 0 003 .489c3.968 0 7.669-2.512 8.993-6.486C284.498 328.49 266 252.165 265.199 248.96zm-24.641 192.606c-4.856-1.945-10.377.416-12.324 5.282l-18.963 47.407c-1.944 4.861.419 10.38 5.282 12.324a9.43 9.43 0 003.519.681 9.486 9.486 0 008.806-5.963l18.963-47.407a9.481 9.481 0 00-5.283-12.324zm72.34-76.903h-.009c-5.229 0-9.472 4.426-9.482 9.655 0 .553-.412 56.009-27.678 119.63-2.062 4.813.167 10.435 4.982 12.498 1.218.521 2.484.791 3.729.791 3.678 0 7.178-2.141 8.72-5.738 28.879-67.384 29.211-124.773 29.211-127.176-.001-5.234-4.241-9.66-9.473-9.66z" fill="#fff"/></symbol><symbol viewBox="0 0 48 60" id="foam" xmlns="http://www.w3.org/2000/svg"><path d="M6 18.5A2.511 2.511 0 018.5 16a1 1 0 000-2A4.51 4.51 0 004 18.5a1 1 0 002 0z"/><path d="M45.674 16H24.608a8.68 8.68 0 00-5.3-5.45A1.9 1.9 0 0118 8.79V7.722A1.993 1.993 0 0019 6V3a3 3 0 00-3-3H9a3 3 0 00-3 3v3a1.993 1.993 0 001 1.722V8.73a1.909 1.909 0 01-1.339 1.77 8.492 8.492 0 00-3.01 14.17c.645.595.977 1.456.896 2.33a2.533 2.533 0 01-1.235 1.934l-.049.038A4.821 4.821 0 000 33.04V56a4 4 0 004 4h17a3.8 3.8 0 00.451-.035c.12.021.24.033.361.035h21.376a2.322 2.322 0 002.321-2.167L48 18.458a2.313 2.313 0 00-.621-1.724A2.342 2.342 0 0045.674 16zm.242 2.1a.29.29 0 01.083.227l-.713 11.3c-1.482-.343-3-.511-4.521-.5-4.237 0-7.595 1.63-10.843 3.206-2.948 1.431-6 2.893-9.832 3.251L19 18.331a.294.294 0 01.083-.227.323.323 0 01.242-.1h26.349a.323.323 0 01.242.096zM2 36h16.113l.82 13H2zM8 3a1 1 0 011-1h7a1 1 0 011 1v3H8zM3.367 30.638l.053-.04a4.519 4.519 0 002.117-3.4 4.8 4.8 0 00-1.508-3.982 6.493 6.493 0 012.3-10.834A3.889 3.889 0 009 8.73V8h7v.79a3.872 3.872 0 002.626 3.64A6.714 6.714 0 0122.473 16h-3.147a2.34 2.34 0 00-1.7.734 2.313 2.313 0 00-.621 1.724L17.986 34H2v-.96a2.84 2.84 0 011.367-2.402zM2 56v-5h17.06l.431 6.832c0 .058.019.112.027.168H4a2 2 0 01-2-2zm41.513 1.707a.321.321 0 01-.325.293H21.812a.321.321 0 01-.325-.294l-1.271-20.129c4.208-.377 7.449-1.927 10.579-3.446 3.185-1.546 6.193-3.006 9.97-3.006a16.967 16.967 0 014.392.543z"/><path d="M22 22h2a1 1 0 000-2h-2a1 1 0 000 2zm6 0h12a1 1 0 000-2H28a1 1 0 000 2zm9.5 13a3.5 3.5 0 100 7 3.5 3.5 0 000-7zm0 5a1.5 1.5 0 110-3 1.5 1.5 0 010 3zM29 41a3 3 0 100 6 3 3 0 000-6zm0 4a1 1 0 110-2 1 1 0 010 2z"/><circle cx="35" cy="49" r="1"/><circle cx="33" cy="54" r="1"/></symbol><symbol viewBox="0 0 512 512" id="gear" xmlns="http://www.w3.org/2000/svg"><path d="M512 310.7V201.3h-55.277a205.594 205.594 0 00-20.125-48.538l39.101-39.102-77.355-77.355-39.102 39.097A205.95 205.95 0 00310.7 55.277V0H201.301v55.277a205.786 205.786 0 00-48.543 20.125l-39.102-39.101-77.355 77.355 39.101 39.102A205.786 205.786 0 0055.277 201.3H0v109.398h55.277a205.594 205.594 0 0020.125 48.54l-39.101 39.1 77.355 77.356 39.102-39.101a205.798 205.798 0 0048.543 20.129V512h109.398v-55.277a205.758 205.758 0 0048.54-20.125l39.1 39.101 77.356-77.355-39.097-39.102a205.95 205.95 0 0020.125-48.543zm-78.73 87.64l-34.93 34.933-34.863-34.867-10.2 6.672c-18.586 12.156-38.992 20.617-60.648 25.145l-11.93 2.496V482h-49.398v-49.281l-11.93-2.496c-21.656-4.528-42.062-12.989-60.648-25.145l-10.2-6.672-34.863 34.864-34.93-34.93 34.864-34.863-6.672-10.2c-12.156-18.586-20.613-38.992-25.145-60.648l-2.492-11.93H30v-49.398h49.285l2.492-11.93c4.532-21.656 12.989-42.062 25.145-60.648l6.672-10.2L78.73 113.66l34.93-34.93 34.863 34.864 10.2-6.672c18.586-12.156 38.992-20.613 60.648-25.145l11.93-2.496V30h49.398v49.281l11.93 2.496c21.656 4.528 42.062 12.989 60.648 25.145l10.2 6.672L398.34 78.73l34.93 34.93-34.864 34.863 6.672 10.2c12.156 18.586 20.613 38.992 25.145 60.648l2.492 11.93H482v49.398h-49.285l-2.492 11.93c-4.532 21.656-12.989 42.062-25.145 60.648l-6.672 10.2zm0 0"/><path d="M256 142.547c-62.559 0-113.453 50.894-113.453 113.453S193.44 369.453 256 369.453 369.453 318.56 369.453 256 318.56 142.547 256 142.547zm0 196.906c-46.016 0-83.453-37.437-83.453-83.453s37.437-83.453 83.453-83.453 83.453 37.437 83.453 83.453-37.437 83.453-83.453 83.453zm0 0"/></symbol><symbol viewBox="0 0 512.086 512.086" id="google" xmlns="http://www.w3.org/2000/svg"><path class="aodont-remove" d="M281.963 245.846l-247.68 247.68c-11.84-11.2-18.24-26.56-18.24-43.2V61.846c0-16.96 6.72-32.32 18.88-43.84l247.04 227.84z" fill="#2196f3"/><path class="aodont-remove" d="M496.043 256.086c0 22.4-12.16 42.24-32.32 53.44l-70.4 39.04-87.36-80.64-24-22.08 92.48-92.48 89.28 49.28c20.16 11.2 32.32 31.04 32.32 53.44z" fill="#ffc107"/><path class="aodont-remove" d="M281.963 245.846L34.923 18.006c3.2-3.2 7.36-6.08 11.52-8.64 20.16-12.16 44.48-12.48 65.28-.96l262.72 144.96-92.48 92.48z" fill="#4caf50"/><path class="aodont-remove" d="M393.323 348.566l-281.6 155.2c-9.92 5.76-21.12 8.32-32 8.32-11.52 0-23.04-2.88-33.28-9.28a58.212 58.212 0 01-12.16-9.28l247.68-247.68 24 22.08 87.36 80.64z" fill="#f44336"/></symbol><symbol viewBox="0 0 380 512.001" id="gps" xmlns="http://www.w3.org/2000/svg"><path d="M191.168.004l-.8-.004C85.397 0 0 85.406 0 190.387c0 57.554 29.418 102.445 62.195 147.148L190.113 512S311.02 347.852 318.582 337.54c32.777-44.704 62.195-89.595 62.195-147.15C380.777 85.669 295.797.419 191.168.005zM294.395 319.8c-7.57 10.328-87.004 119.12-103.899 141.996L86.383 319.8c-30.852-42.078-56.387-80.86-56.387-129.414 0-88.192 71.535-159.989 159.625-160.39h.77c88.441 0 160.394 71.952 160.394 160.394 0 48.554-25.539 87.332-56.39 129.41zm0 0"/><path d="M190.39 80.48c-60.605 0-109.906 49.305-109.906 109.907 0 60.605 49.301 109.91 109.907 109.91 60.601 0 109.906-49.305 109.906-109.91 0-60.602-49.305-109.907-109.906-109.907zm0 189.82c-44.066 0-79.913-35.847-79.913-79.913 0-44.063 35.847-79.91 79.914-79.91 44.062 0 79.914 35.847 79.914 79.91 0 44.066-35.852 79.914-79.914 79.914zm0 0"/></symbol><symbol viewBox="0 0 485 485" id="graph" xmlns="http://www.w3.org/2000/svg"><path d="M0 424.999h485v30H0zM385.147 30.001v30h48.64L275 218.788l-65-65L4.394 359.393l21.212 21.212L210 196.214l65 65.001L455 81.214v48.64h30V30.001z"/></symbol><symbol class="ardont-remove" viewBox="0 0 512 512" fill="#e94e1b" id="info" xmlns="http://www.w3.org/2000/svg"><path d="M256 85.333c-23.531 0-42.667 19.135-42.667 42.667s19.135 42.667 42.667 42.667 42.667-19.135 42.667-42.667S279.531 85.333 256 85.333zm0 64c-11.76 0-21.333-9.573-21.333-21.333s9.573-21.333 21.333-21.333 21.333 9.573 21.333 21.333-9.573 21.333-21.333 21.333zM288 192h-85.333A10.66 10.66 0 00192 202.667v42.667a10.66 10.66 0 0010.667 10.667h10.667v160a10.66 10.66 0 0010.667 10.667h64a10.66 10.66 0 0010.667-10.667V202.667A10.662 10.662 0 00288 192zm-10.667 213.333h-42.667v-160a10.66 10.66 0 00-10.667-10.667h-10.667v-21.333h64v192z"/><path d="M256 0C114.844 0 0 114.844 0 256s114.844 256 256 256 256-114.844 256-256S397.156 0 256 0zm0 490.667C126.604 490.667 21.333 385.396 21.333 256S126.604 21.333 256 21.333 490.667 126.604 490.667 256 385.396 490.667 256 490.667z"/></symbol><symbol viewBox="0 0 241 241" id="insta" xmlns="http://www.w3.org/2000/svg"><path class="asdont-remove" fill="#fff" d="M169.5 120.5a49 49 0 11-49-49 49 49 0 0149 49z"/><path class="asdont-remove" fill="#fff" d="M235.1 33.8a45 45 0 00-11-16.9 45.4 45.4 0 00-16.9-11c-5.2-2-12.9-4.4-27.3-5S159.8 0 120.5 0 76.6.1 61.1.9s-22.1 3-27.3 5a46.2 46.2 0 00-16.9 11 46.2 46.2 0 00-11 16.9c-2 5.2-4.4 13-5 27.3S0 81.3 0 120.5s.2 43.9.9 59.4 3 22.1 5 27.3a45.4 45.4 0 0011 16.9 45 45 0 0016.9 11c5.2 2 13 4.4 27.3 5.1s20.2.8 59.4.8 43.9-.1 59.4-.8 22.1-3.1 27.3-5.1a48.5 48.5 0 0027.9-27.9c2-5.2 4.4-12.9 5.1-27.3s.8-20.1.8-59.4-.1-43.9-.8-59.4-3.1-22.1-5.1-27.3zM120.5 196a75.5 75.5 0 1175.5-75.5 75.5 75.5 0 01-75.5 75.5zM199 59.7A17.7 17.7 0 11216.6 42 17.7 17.7 0 01199 59.7z"/></symbol><symbol viewBox="0 0 511.991 511.991" id="letter" xmlns="http://www.w3.org/2000/svg"><path d="M511.991 196.243c0-.179-.094-.333-.102-.503a8.146 8.146 0 00-.35-1.741 8.824 8.824 0 00-.486-1.476 8.236 8.236 0 00-.853-1.28 8.38 8.38 0 00-1.161-1.348c-.137-.12-.196-.282-.341-.393l-82.039-63.735V59.71c0-14.138-11.462-25.6-25.6-25.6h-92.476L271.556 5.361a25.319 25.319 0 00-31.121 0L203.401 34.11h-92.476c-14.138 0-25.6 11.461-25.6 25.6v66.057L3.294 189.502c-.145.111-.205.273-.341.393a8.38 8.38 0 00-1.161 1.348c-.324.399-.61.828-.853 1.28-.207.476-.37.97-.486 1.476a8.087 8.087 0 00-.35 1.707c0 .171-.102.324-.102.503v290.167a25.294 25.294 0 001.425 8.064 8.456 8.456 0 009.387 12.8 25.415 25.415 0 0014.78 4.736h460.8a25.427 25.427 0 0014.822-4.804 8.378 8.378 0 002.244.367 8.456 8.456 0 007.117-13.098 25.318 25.318 0 001.417-8.064V196.243zM250.871 18.827a8.182 8.182 0 0110.18 0l19.686 15.283h-49.493l19.627-15.283zM27.708 494.91l223.164-173.346a8.209 8.209 0 0110.172 0L484.275 494.91H27.708zm467.217-13.329L271.539 308.09a25.309 25.309 0 00-31.095 0L17.058 481.581V209.239l139.836 108.587a8.536 8.536 0 0011.977-1.515 8.536 8.536 0 00-1.515-11.977L25.293 194.016l60.032-46.643v65.937a8.533 8.533 0 0017.066 0V59.71a8.533 8.533 0 018.533-8.533h290.133a8.533 8.533 0 018.533 8.533v153.6a8.533 8.533 0 0017.066 0v-65.937l60.032 46.643-142.317 110.515a8.536 8.536 0 0010.471 13.483L494.925 209.24v272.341z"/><path d="M170.658 110.91h170.667c4.713 0 8.533-3.82 8.533-8.533s-3.82-8.533-8.533-8.533H170.658c-4.713 0-8.533 3.82-8.533 8.533s3.82 8.533 8.533 8.533zm179.2 42.667a8.533 8.533 0 00-8.533-8.533H170.658a8.533 8.533 0 000 17.066h170.667a8.533 8.533 0 008.533-8.533zm0 51.2a8.533 8.533 0 00-8.533-8.533h-76.8c-4.713 0-8.533 3.82-8.533 8.533s3.82 8.533 8.533 8.533h76.8a8.533 8.533 0 008.533-8.533z"/></symbol><symbol viewBox="0 0 267.4 426" id="location" xmlns="http://www.w3.org/2000/svg"><path class="audont-remove" d="M134 0h-.6A133.5 133.5 0 000 133.4c0 48.2 22 111.8 65.2 189a1047 1047 0 0065 101.6 5 5 0 003.9 2h.1a5.1 5.1 0 003.9-2.2c.3-.5 32.6-49.3 64.5-109 43-80.5 64.8-141.6 64.8-181.4A133.5 133.5 0 00134 0zm61.6 136.6a61.9 61.9 0 11-61.9-61.9 62 62 0 0161.9 61.9z" fill="#fff"/><circle class="audont-remove" cx="133.7" cy="136.6" r="61.9" fill="#d5d5d5"/></symbol><symbol viewBox="0 0 340.2 347.3" id="logo" xmlns="http://www.w3.org/2000/svg"><path class="avdont-remove" d="M254.6 198.2a77.4 77.4 0 0016.3 8.1c-13.2 41-58.1 72.5-101.1 71a107.6 107.6 0 110-215.1v46.4a61.1 61.1 0 100 122.2c17.3 1 39.3-10 48.9-24.4-14.6-2.2-37.1 3.5-48.9 12.4v-20.6c23.5-16.9 61.3-16.9 84.8 0" fill="#e94e1b"/><path class="avdont-remove" d="M339.5 198.2v79.1h-48.4v-66.6c14.5 1.9 36.7-3.8 48.4-12.5" fill="#009fe3"/><path class="avdont-remove" d="M339.5 172.4v20.5c-23.6 16.9-61.3 16.9-84.9 0s-61.3-16.9-84.8 0v-20.5c23.5-16.9 61.3-16.9 84.8 0s61.3 16.9 84.9 0" fill="#009fe3"/><path class="avdont-remove" d="M338 147.5a160.1 160.1 0 011.5 19.6c-23.6 16.9-61.3 16.9-84.9 0s-61.3-16.9-84.8 0v-20.6c23.5-16.9 61.3-16.9 84.8 0s60.1 17 83.4 1" fill="#009fe3"/><path class="avdont-remove" d="M337.3 142.6c-23.2 15.6-60 15-82.7-1.4s-61.3-16.9-84.8 0v-20.5c23.5-16.9 61.3-16.9 84.8 0 7.3 5.3 21.7 10.8 30.7 11.8a121.3 121.3 0 00-152.8-78.3C84.1 68 46.7 119.4 48.4 169.7v107.6H.1V169.7C-1.5 88.3 62 13.7 142.7 2.2c92.5-15 179.6 47.9 194.6 140.4M26.4 300.7a1.3 1.3 0 00-1.2-.8h-4.9a1.3 1.3 0 00-1.2.8L.2 344.6a1.2 1.2 0 00.1 1.3 1.5 1.5 0 001.1.6h4.8a1.3 1.3 0 001.2-.8l6-14H32l6 14a1.3 1.3 0 001.2.8h4.7a1.7 1.7 0 001.2-.6 2 2 0 00.1-1.3zm2.7 24.4H16.2l6.5-15.3zm101.3-25.2h-4.3a1.3 1.3 0 00-1.4 1.3v26.7a26.8 26.8 0 01-.4 5.2 8.9 8.9 0 01-1.8 3.8 6.8 6.8 0 01-3 2.5 8.9 8.9 0 01-8.1-.1 7.5 7.5 0 01-3.2-2.9c-1.2-1.9-1.8-4.8-1.8-8.5v-26.7a1.3 1.3 0 00-1.4-1.3h-4.3a1.3 1.3 0 00-1.4 1.3v26.7a37.9 37.9 0 00.3 4.9 16.5 16.5 0 001.1 4.5 17.6 17.6 0 002.4 4.2 14.8 14.8 0 005.6 4.3 16.5 16.5 0 006.9 1.5 17.5 17.5 0 007.1-1.6 14.5 14.5 0 005.5-4.6 14 14 0 002.9-6 30.8 30.8 0 00.7-7.2v-26.7a1.3 1.3 0 00-1.4-1.3zm49 44.7l-18.8-43.9a1.3 1.3 0 00-1.2-.8h-4.9a1.3 1.3 0 00-1.2.8l-18.9 43.9a1.2 1.2 0 00.1 1.3 1.5 1.5 0 001.1.6h4.7a1.3 1.3 0 001.3-.8l6-14h18.6l5.9 14a1.4 1.4 0 001.3.8h4.7a1.4 1.4 0 001.1-.6 1.5 1.5 0 00.2-1.3zm-16.1-19.5h-12.9l6.5-15.3zm-67.7-1.5a24.3 24.3 0 00-3.3-12.5 23.8 23.8 0 00-9-8.8 27 27 0 00-25.1 0 23.5 23.5 0 00-9 8.7 24.1 24.1 0 00-3.4 12.5 23.3 23.3 0 002 9.4 27.3 27.3 0 005.5 7.6 25.7 25.7 0 0024.7 5.7 20.6 20.6 0 005.7-2.3 14.4 14.4 0 009.3 3.4h.6a1.4 1.4 0 001.3-1.4v-4.1a1.8 1.8 0 00-.4-1 1.3 1.3 0 00-1-.3h-.9a6.9 6.9 0 01-3.5-1 25.7 25.7 0 004.5-6.6 22.9 22.9 0 002-9.3zm-9.7 8.6l-2 2.7a48.3 48.3 0 00-6.2-4.7 28.9 28.9 0 00-16.1-4.6 29.9 29.9 0 00-8.4 1.2 16.6 16.6 0 01-.3-3.2 17.2 17.2 0 012.4-8.9 17.9 17.9 0 016.5-6.3 18.6 18.6 0 0117.9 0 17.1 17.1 0 016.5 6.3 16.7 16.7 0 012.3 8.9 16.1 16.1 0 01-.6 4.4 20.3 20.3 0 01-2 4.2zm-25.1.2a30.9 30.9 0 019.4 1.6 29 29 0 017.1 4.3l.7.5a15.1 15.1 0 01-7 1.4 17.6 17.6 0 01-10.1-2.8 16.1 16.1 0 01-4.8-4.5 17.3 17.3 0 014.7-.5z" fill="#009fe3"/><path class="avdont-remove" fill="#e94e1b" d="M233.5 299.9h7.1v46.59h-7.1zm-36.6 30.3h23.9a14 14 0 01-2.9 4.4 15.6 15.6 0 01-5.9 4.2 17.4 17.4 0 01-13.8.2 17 17 0 01-11.1-16 16.3 16.3 0 011.5-6.7 18 18 0 014.1-5.6 15.3 15.3 0 015.6-3.4 18.5 18.5 0 0114.9.8 15.2 15.2 0 016 5.5l.4.7h7.6l-.6-1.8a15.1 15.1 0 00-3.3-5.2 37.7 37.7 0 00-4.9-4.2 22.3 22.3 0 00-6.5-2.9 23.4 23.4 0 00-7.1-1 24.1 24.1 0 00-17.6 7.1A24.8 24.8 0 00180 323a23 23 0 002 9.4 22.6 22.6 0 005.5 7.8 25.8 25.8 0 007.9 5.2 25.4 25.4 0 009.4 1.9 25.3 25.3 0 0016.6-6.4 23 23 0 005.5-7.2 21.7 21.7 0 002.4-8.7v-1.5h-32.4zm130.8-.4a14.2 14.2 0 009.8-7.1 13.5 13.5 0 001.9-7.1 15.5 15.5 0 00-1.9-7.8 14.8 14.8 0 00-5.5-5.6 15.2 15.2 0 00-5.9-1.9 51.6 51.6 0 00-7.3-.4h-11.7v46.6h7.1v-39.9h5.5a42.8 42.8 0 015.6.3 8.7 8.7 0 013.6 1.5 7.9 7.9 0 012.5 2.9 7.7 7.7 0 011 3.8 8.6 8.6 0 01-1.3 4.6 8.3 8.3 0 01-3.6 3.1 10.6 10.6 0 01-3.7.9l-5.3.2h-4l16.9 22.6h8.8zm-52.4 16.7h26.6v-6.7h-19.5v-13.5h18.9v-6.6h-18.9v-13.1h19.5v-6.7h-26.6v46.6zm-3-40.6l.2-.3v-5.7h-28.4v6.7h19.8l-20.5 34.3v5.6h29.8v-6.7h-21.1l20.2-33.9z"/></symbol><symbol viewBox="0 0 340.2 347.3" id="logoNoColor" xmlns="http://www.w3.org/2000/svg"><path d="M254.6 198.2a77.4 77.4 0 0016.3 8.1c-13.2 41-58.1 72.5-101.1 71a107.6 107.6 0 110-215.1v46.4a61.1 61.1 0 100 122.2c17.3 1 39.3-10 48.9-24.4-14.6-2.2-37.1 3.5-48.9 12.4v-20.6c23.5-16.9 61.3-16.9 84.8 0m84.9 0v79.1h-48.4v-66.6c14.5 1.9 36.7-3.8 48.4-12.5"/><path d="M339.5 172.4v20.5c-23.6 16.9-61.3 16.9-84.9 0s-61.3-16.9-84.8 0v-20.5c23.5-16.9 61.3-16.9 84.8 0s61.3 16.9 84.9 0"/><path d="M338 147.5a160.1 160.1 0 011.5 19.6c-23.6 16.9-61.3 16.9-84.9 0s-61.3-16.9-84.8 0v-20.6c23.5-16.9 61.3-16.9 84.8 0s60.1 17 83.4 1"/><path d="M337.3 142.6c-23.2 15.6-60 15-82.7-1.4s-61.3-16.9-84.8 0v-20.5c23.5-16.9 61.3-16.9 84.8 0 7.3 5.3 21.7 10.8 30.7 11.8a121.3 121.3 0 00-152.8-78.3C84.1 68 46.7 119.4 48.4 169.7v107.6H.1V169.7C-1.5 88.3 62 13.7 142.7 2.2c92.5-15 179.6 47.9 194.6 140.4M26.4 300.7a1.3 1.3 0 00-1.2-.8h-4.9a1.3 1.3 0 00-1.2.8L.2 344.6a1.2 1.2 0 00.1 1.3 1.5 1.5 0 001.1.6h4.8a1.3 1.3 0 001.2-.8l6-14H32l6 14a1.3 1.3 0 001.2.8h4.7a1.7 1.7 0 001.2-.6 2 2 0 00.1-1.3zm2.7 24.4H16.2l6.5-15.3zm101.3-25.2h-4.3a1.3 1.3 0 00-1.4 1.3v26.7a26.8 26.8 0 01-.4 5.2 8.9 8.9 0 01-1.8 3.8 6.8 6.8 0 01-3 2.5 8.9 8.9 0 01-8.1-.1 7.5 7.5 0 01-3.2-2.9c-1.2-1.9-1.8-4.8-1.8-8.5v-26.7a1.3 1.3 0 00-1.4-1.3h-4.3a1.3 1.3 0 00-1.4 1.3v26.7a37.9 37.9 0 00.3 4.9 16.5 16.5 0 001.1 4.5 17.6 17.6 0 002.4 4.2 14.8 14.8 0 005.6 4.3 16.5 16.5 0 006.9 1.5 17.5 17.5 0 007.1-1.6 14.5 14.5 0 005.5-4.6 14 14 0 002.9-6 30.8 30.8 0 00.7-7.2v-26.7a1.3 1.3 0 00-1.4-1.3zm49 44.7l-18.8-43.9a1.3 1.3 0 00-1.2-.8h-4.9a1.3 1.3 0 00-1.2.8l-18.9 43.9a1.2 1.2 0 00.1 1.3 1.5 1.5 0 001.1.6h4.7a1.3 1.3 0 001.3-.8l6-14h18.6l5.9 14a1.4 1.4 0 001.3.8h4.7a1.4 1.4 0 001.1-.6 1.5 1.5 0 00.2-1.3zm-16.1-19.5h-12.9l6.5-15.3zm-67.7-1.5a24.3 24.3 0 00-3.3-12.5 23.8 23.8 0 00-9-8.8 27 27 0 00-25.1 0 23.5 23.5 0 00-9 8.7 24.1 24.1 0 00-3.4 12.5 23.3 23.3 0 002 9.4 27.3 27.3 0 005.5 7.6 25.7 25.7 0 0024.7 5.7 20.6 20.6 0 005.7-2.3 14.4 14.4 0 009.3 3.4h.6a1.4 1.4 0 001.3-1.4v-4.1a1.8 1.8 0 00-.4-1 1.3 1.3 0 00-1-.3h-.9a6.9 6.9 0 01-3.5-1 25.7 25.7 0 004.5-6.6 22.9 22.9 0 002-9.3zm-9.7 8.6l-2 2.7a48.3 48.3 0 00-6.2-4.7 28.9 28.9 0 00-16.1-4.6 29.9 29.9 0 00-8.4 1.2 16.6 16.6 0 01-.3-3.2 17.2 17.2 0 012.4-8.9 17.9 17.9 0 016.5-6.3 18.6 18.6 0 0117.9 0 17.1 17.1 0 016.5 6.3 16.7 16.7 0 012.3 8.9 16.1 16.1 0 01-.6 4.4 20.3 20.3 0 01-2 4.2zm-25.1.2a30.9 30.9 0 019.4 1.6 29 29 0 017.1 4.3l.7.5a15.1 15.1 0 01-7 1.4 17.6 17.6 0 01-10.1-2.8 16.1 16.1 0 01-4.8-4.5 17.3 17.3 0 014.7-.5zm172.7-32.5h7.1v46.59h-7.1zm-36.6 30.3h23.9a14 14 0 01-2.9 4.4 15.6 15.6 0 01-5.9 4.2 17.4 17.4 0 01-13.8.2 17 17 0 01-11.1-16 16.3 16.3 0 011.5-6.7 18 18 0 014.1-5.6 15.3 15.3 0 015.6-3.4 18.5 18.5 0 0114.9.8 15.2 15.2 0 016 5.5l.4.7h7.6l-.6-1.8a15.1 15.1 0 00-3.3-5.2 37.7 37.7 0 00-4.9-4.2 22.3 22.3 0 00-6.5-2.9 23.4 23.4 0 00-7.1-1 24.1 24.1 0 00-17.6 7.1A24.8 24.8 0 00180 323a23 23 0 002 9.4 22.6 22.6 0 005.5 7.8 25.8 25.8 0 007.9 5.2 25.4 25.4 0 009.4 1.9 25.3 25.3 0 0016.6-6.4 23 23 0 005.5-7.2 21.7 21.7 0 002.4-8.7v-1.5h-32.4zm130.8-.4a14.2 14.2 0 009.8-7.1 13.5 13.5 0 001.9-7.1 15.5 15.5 0 00-1.9-7.8 14.8 14.8 0 00-5.5-5.6 15.2 15.2 0 00-5.9-1.9 51.6 51.6 0 00-7.3-.4h-11.7v46.6h7.1v-39.9h5.5a42.8 42.8 0 015.6.3 8.7 8.7 0 013.6 1.5 7.9 7.9 0 012.5 2.9 7.7 7.7 0 011 3.8 8.6 8.6 0 01-1.3 4.6 8.3 8.3 0 01-3.6 3.1 10.6 10.6 0 01-3.7.9l-5.3.2h-4l16.9 22.6h8.8zm-52.4 16.7h26.6v-6.7h-19.5v-13.5h18.9v-6.6h-18.9v-13.1h19.5v-6.7h-26.6v46.6zm-3-40.6l.2-.3v-5.7h-28.4v6.7h19.8l-20.5 34.3v5.6h29.8v-6.7h-21.1l20.2-33.9z"/></symbol><symbol viewBox="0 0 512.011 512.011" id="mail" xmlns="http://www.w3.org/2000/svg"><path d="M511.728 212.149c-.107-1.856-.619-3.605-1.216-5.397-.363-1.109-.597-2.219-1.131-3.264-.171-.32-.149-.661-.341-.981-.832-1.387-2.048-2.325-3.115-3.456-.64-.704-.981-1.6-1.728-2.219l-34.859-28.501V85.344c0-11.776-9.557-21.333-21.333-21.333H341.851l-72.32-59.179c-7.872-6.443-19.179-6.443-27.029 0l-72.32 59.179H64.005c-11.776 0-21.333 9.557-21.333 21.333v82.987L7.835 196.853c-.619.491-.896 1.28-1.451 1.835-1.195 1.216-2.517 2.283-3.413 3.819-.192.32-.171.683-.341 1.003-.555 1.024-.747 2.112-1.131 3.2-.597 1.813-1.109 3.563-1.216 5.419-.021.427-.277.789-.277 1.216v277.333c0 11.797 9.557 21.333 21.333 21.333h469.376c2.517 0 4.971-.597 7.339-1.472.555-.213 1.088-.405 1.643-.661 2.176-1.024 4.224-2.283 5.973-4.032.171-.171.277-.384.427-.555 1.088-1.152 2.112-2.347 2.944-3.776.235-.405.235-.853.448-1.259.661-1.28 1.024-2.645 1.408-4.075.384-1.408.747-2.752.832-4.16.043-.469.277-.853.277-1.344V213.344c-.001-.427-.235-.789-.278-1.195zM256.005 48.907l18.475 15.104h-36.928l18.453-15.104zm-170.666 57.77h341.333v119.701L256.027 327.221 85.339 226.357v-119.68zM42.672 469.344V250.741l369.963 218.603H42.672zm426.667-16.064l-171.35-101.269 171.349-101.248V453.28z"/></symbol><symbol viewBox="0 0 512 512" id="marker" xmlns="http://www.w3.org/2000/svg"><path class="aydont-remove" d="M256 0C156.748 0 76 80.748 76 180c0 33.534 9.289 66.26 26.869 94.652l142.885 230.257A15 15 0 00258.499 512h.119a14.997 14.997 0 0012.75-7.292L410.611 272.22C427.221 244.428 436 212.539 436 180 436 80.748 355.252 0 256 0zm128.866 256.818L258.272 468.186l-129.905-209.34C113.734 235.214 105.8 207.95 105.8 180c0-82.71 67.49-150.2 150.2-150.2S406.1 97.29 406.1 180c0 27.121-7.411 53.688-21.234 76.818z" fill="#fff"/><path class="aydont-remove" d="M256 90c-49.626 0-90 40.374-90 90 0 49.309 39.717 90 90 90 50.903 0 90-41.233 90-90 0-49.626-40.374-90-90-90zm0 150.2c-33.257 0-60.2-27.033-60.2-60.2 0-33.084 27.116-60.2 60.2-60.2s60.1 27.116 60.1 60.2c0 32.683-26.316 60.2-60.1 60.2z" fill="#fff"/></symbol><symbol viewBox="0 0 146.8 120.41" id="mastercard" xmlns="http://www.w3.org/2000/svg"><rect class="azdont-remove" fill="none"/><path class="azdont-remove" fill="#231f20" d="M36.35 105.26v-6a3.56 3.56 0 00-3.76-3.8 3.7 3.7 0 00-3.36 1.7 3.51 3.51 0 00-3.16-1.7 3.16 3.16 0 00-2.8 1.42V95.7h-2.08v9.56h2.1V100a2.24 2.24 0 012.34-2.54c1.38 0 2.08.9 2.08 2.52v5.32h2.1V100a2.25 2.25 0 012.34-2.54c1.42 0 2.1.9 2.1 2.52v5.32zm31.07-9.56H64v-2.9h-2.1v2.9H60v1.9h1.94v4.4c0 2.22.86 3.54 3.32 3.54a4.88 4.88 0 002.6-.74l-.6-1.78a3.84 3.84 0 01-1.84.54c-1 0-1.38-.64-1.38-1.6V97.6h3.4zm17.74-.24a2.82 2.82 0 00-2.52 1.4V95.7h-2.06v9.56h2.08V99.9c0-1.58.68-2.46 2-2.46a3.39 3.39 0 011.3.24l.64-2a4.45 4.45 0 00-1.48-.26zm-26.82 1a7.15 7.15 0 00-3.9-1c-2.42 0-4 1.16-4 3.06 0 1.56 1.16 2.52 3.3 2.82l1 .14c1.14.16 1.68.46 1.68 1 0 .74-.76 1.16-2.18 1.16a5.09 5.09 0 01-3.18-1l-1 1.62a6.9 6.9 0 004.14 1.24c2.76 0 4.36-1.3 4.36-3.12s-1.26-2.56-3.34-2.86l-1-.14c-.9-.12-1.62-.3-1.62-.94s.68-1.12 1.82-1.12a6.16 6.16 0 013 .82zm55.71-1a2.82 2.82 0 00-2.52 1.4V95.7h-2.06v9.56h2.08V99.9c0-1.58.68-2.46 2-2.46a3.39 3.39 0 011.3.24l.64-2a4.45 4.45 0 00-1.48-.26zm-26.8 5a4.83 4.83 0 005.1 5 5 5 0 003.44-1.14l-1-1.68a4.2 4.2 0 01-2.5.86 3.07 3.07 0 010-6.12 4.2 4.2 0 012.5.86l1-1.68a5 5 0 00-3.44-1.14 4.83 4.83 0 00-5.1 5zm19.48 0V95.7h-2.08v1.16a3.63 3.63 0 00-3-1.4 5 5 0 000 10 3.63 3.63 0 003-1.4v1.16h2.08zm-7.74 0a2.89 2.89 0 112.9 3.06 2.87 2.87 0 01-2.9-3.06zm-25.1-5a5 5 0 00.14 10 5.81 5.81 0 003.97-1.3l-1-1.54a4.55 4.55 0 01-2.78 1 2.65 2.65 0 01-2.86-2.34h7.1v-.8c0-3-1.86-5-4.54-5zm0 1.86a2.37 2.37 0 012.42 2.32h-5a2.46 2.46 0 012.54-2.32zm52.11 3.16v-8.62h-2v5a3.63 3.63 0 00-3-1.4 5 5 0 000 10 3.63 3.63 0 003-1.4v1.16h2zm3.47 3.39a1 1 0 01.38.07 1 1 0 01.31.2 1 1 0 01.21.3.93.93 0 010 .74 1 1 0 01-.21.3 1 1 0 01-.31.2.94.94 0 01-.38.08 1 1 0 01-.9-.58.94.94 0 010-.74 1 1 0 01.21-.3 1 1 0 01.31-.2 1 1 0 01.41-.07zm0 1.69a.71.71 0 00.29-.06.75.75 0 00.23-.16.74.74 0 000-1 .74.74 0 00-.23-.16.72.72 0 00-.29-.06.75.75 0 00-.29.06.73.73 0 00-.24.16.74.74 0 000 1 .74.74 0 00.24.16.74.74 0 00.32.06zm.06-1.19a.4.4 0 01.26.08.25.25 0 01.09.21.24.24 0 01-.07.18.35.35 0 01-.21.09l.29.33h-.23l-.27-.33h-.09v.33h-.19v-.88zm-.22.17v.24h.22a.21.21 0 00.12 0 .1.1 0 000-.09.1.1 0 000-.09.21.21 0 00-.12 0zm-11-4.06a2.89 2.89 0 112.9 3.06 2.87 2.87 0 01-2.9-3.06zm-70.23 0V95.7H46v1.16a3.63 3.63 0 00-3-1.4 5 5 0 000 10 3.63 3.63 0 003-1.4v1.16h2.08zm-7.74 0a2.89 2.89 0 112.9 3.06 2.87 2.87 0 01-2.92-3.06z"/><path class="azdont-remove" fill="#ff5f00" d="M57.65 22.85h31.5v56.61h-31.5z"/><path class="azdont-remove" fill="#eb001b" d="M59.65 51.16A35.94 35.94 0 0173.4 22.85a36 36 0 100 56.61 35.94 35.94 0 01-13.75-28.3z"/><path class="azdont-remove" fill="#f79e1b" d="M131.65 51.16a36 36 0 01-58.25 28.3 36 36 0 000-56.61 36 36 0 0158.25 28.3zm-3.44 22.3V72.3h.47v-.24h-1.19v.24h.51v1.16zm2.31 0v-1.4h-.36l-.42 1-.42-1H129v1.4h.26v-1.05l.39.91h.27l.39-.91v1.06z"/></symbol><symbol viewBox="0 -32 512 511" id="news" xmlns="http://www.w3.org/2000/svg"><path d="M108.668 164.332h30v-59h28v-30h-86v30h28zM180.332 134h143.336v30H180.332zM79 196.223h244.668v30H79zm0 62.218h244.668v30H79zm0 62.223h244.668v30H79zm0 0"/><path d="M399.059 128.82V.5H0v376.191c0 39.41 32.063 71.473 71.473 71.473h370.46c38.637 0 70.067-31.43 70.067-70.066V128.82zM30 376.691V30.5h339.059v347.598c0 14.89 4.683 28.703 12.632 40.066H71.473C48.605 418.164 30 399.56 30 376.691zm452 1.407c0 22.093-17.973 40.066-40.066 40.066h-1.407c-22.867 0-41.468-18.605-41.468-41.473v-217.87H482zm0 0"/></symbol><symbol viewBox="0 0 512 512" id="note" xmlns="http://www.w3.org/2000/svg"><path d="M410.223 64.059v398.175L453.253 512h15.716L512 462.23V64.06zm71.777 30v40.093h-41.777V94.06zm-41.777 70.09H482v214.894h-41.777zm20.886 311.07l-20.886-24.156v-42.02H482v42.02zM0 87.984V512h383V0H87.98zm92.715-50.289V92.72H37.69zM353 482H30V122.719h92.715V30H353zm0 0"/><path d="M92.285 184.055h198.43v30H92.285zm0 64.613h198.43v30H92.285zm0 64.613h198.43v30H92.285zm0 64.614h198.43v30H92.285zm0 0"/></symbol><symbol viewBox="0 0 24 24" id="odnoklassniki" xmlns="http://www.w3.org/2000/svg"><path class="bcdont-remove" d="M4.721 12.881c-.613 1.205.083 1.781 1.671 2.765 1.35.834 3.215 1.139 4.413 1.261l-4.721 4.541c-1.374 1.317.838 3.43 2.211 2.141l3.717-3.585c1.423 1.369 2.787 2.681 3.717 3.59 1.374 1.294 3.585-.801 2.226-2.141-.102-.097-5.037-4.831-4.736-4.541 1.213-.122 3.05-.445 4.384-1.261l-.001-.001c1.588-.989 2.284-1.564 1.68-2.769-.365-.684-1.349-1.256-2.659-.267 0 0-1.769 1.355-4.622 1.355-2.854 0-4.622-1.355-4.622-1.355-1.309-.994-2.297-.417-2.658.267z" fill="#fff"/><path class="bcdont-remove" d="M11.999 12.142c3.478 0 6.318-2.718 6.318-6.064 0-3.36-2.84-6.078-6.318-6.078C8.52 0 5.68 2.718 5.68 6.078c0 3.346 2.84 6.064 6.319 6.064zm0-9.063c1.709 0 3.103 1.341 3.103 2.999 0 1.644-1.394 2.985-3.103 2.985S8.896 7.722 8.896 6.078c-.001-1.659 1.393-2.999 3.103-2.999z" fill="#fff"/></symbol><symbol viewBox="0 0 512.001 512.001" id="oil" xmlns="http://www.w3.org/2000/svg"><path d="M419.92 338.854c-13.658-20.245-27.158-37.493-33.325-45.179v-.257c16.179-4.752 28.03-19.723 28.03-37.419 0-17.696-11.851-32.667-28.03-37.419V76.419c16.179-4.752 28.03-19.723 28.03-37.419 0-21.505-17.495-39-39-39h-283c-21.505 0-39 17.495-39 39 0 17.696 11.851 32.667 28.03 37.419v142.163c-16.179 4.752-28.03 19.723-28.03 37.419 0 17.696 11.851 32.667 28.03 37.419v142.148c-6.203 1.812-11.898 5.159-16.619 9.868-7.358 7.376-11.411 17.165-11.411 27.565 0 21.505 17.495 39 39 39h283c2.636 0 5.262-.283 7.827-.814 42.262-5.8 74.924-42.138 74.924-85.968 0-19.759-12.579-48.009-38.456-86.365zM92.626 30h283c4.962 0 9 4.038 9 9s-4.038 9-9 9h-283c-4.962 0-9-4.038-9-9s4.037-9 9-9zm263.97 48v139h-244.94V78h244.94zM92.626 247h283c4.962 0 9 4.038 9 9s-4.038 9-9 9h-283c-4.962 0-9-4.038-9-9s4.037-9 9-9zm192.63 187H111.655V295h243.881c-6.562 8.228-19.341 24.696-32.266 43.854-25.877 38.356-38.456 66.606-38.456 86.365.001 2.964.151 5.893.442 8.781zm-192.63 48c-4.963 0-9-4.038-9-9 0-2.399.941-4.664 2.624-6.351A8.977 8.977 0 0192.626 464h201.352a87.132 87.132 0 0012.042 18H92.626zm287.248-.61h-.619l-.751.175a57.08 57.08 0 01-6.909.435c-31.309 0-56.781-25.472-56.781-56.781 0-21.503 31.246-69.067 56.784-102.178 25.538 33.096 56.778 80.646 56.778 102.178 0 28.497-21.104 52.151-48.502 56.171z"/></symbol><symbol viewBox="0 0 453.792 453.792" id="pay" xmlns="http://www.w3.org/2000/svg"><path d="M439.396 0h-425v269.898h52.5v51.153c0 60.377 30.286 121.844 31.575 124.431l4.141 8.31H351.18l4.142-8.31c1.289-2.587 31.574-64.054 31.574-124.431v-51.153h52.5V0zm-30 79.645C384.824 73.944 365.452 54.571 359.751 30h49.645v49.645zM329.19 239.898H154.896v-37.375c0-24.262-19.738-44-44-44-12.546 0-23.874 5.287-31.897 13.739a96.213 96.213 0 00-34.603-12.543v-49.513c41.153-6.459 73.747-39.053 80.206-80.206H329.19c6.459 41.153 39.052 73.747 80.206 80.206v49.487c-41.153 6.458-73.747 39.052-80.206 80.205zM94.041 30C88.34 54.571 68.967 73.944 44.396 79.645V30h49.645zM44.396 239.898v-49.66a66.234 66.234 0 0122.563 9.949 44.13 44.13 0 00-.063 2.336v37.375h-22.5zm77.14 183.894c-7.742-17.845-24.64-61.521-24.64-102.741V202.523c0-7.72 6.28-14 14-14s14 6.28 14 14v137.375h15c49.431 0 90.509 36.457 97.758 83.894H121.536zm235.36-102.741c0 41.223-16.9 84.903-24.64 102.741h-64.334c-6.88-59.115-53.912-106.147-113.026-113.026v-40.868h202v51.153zm2.855-81.153c5.701-24.571 25.073-43.944 49.645-49.645v49.645h-49.645z"/><path d="M226.896 67.449c-37.22 0-67.5 30.28-67.5 67.5s30.28 67.5 67.5 67.5 67.5-30.28 67.5-67.5-30.28-67.5-67.5-67.5zm0 105c-20.678 0-37.5-16.822-37.5-37.5s16.822-37.5 37.5-37.5 37.5 16.822 37.5 37.5-16.822 37.5-37.5 37.5z"/></symbol><symbol viewBox="0 0 512 512" id="planet" xmlns="http://www.w3.org/2000/svg"><path d="M437.02 74.98C388.668 26.63 324.379 0 256 0S123.332 26.629 74.98 74.98C26.63 123.332 0 187.621 0 256s26.629 132.668 74.98 181.02C123.332 485.37 187.621 512 256 512s132.668-26.629 181.02-74.98C485.37 388.668 512 324.379 512 256s-26.629-132.668-74.98-181.02zM87.047 106.074c9.812 8.918 25.469 21.235 47.023 32.496-8.511 31.485-13.504 66.266-14.586 102.43H30.512c3.394-51.59 24.18-98.504 56.535-134.926zm281.625 3.309c-3.95-10.742-8.348-20.969-13.192-30.559-6.734-13.332-14.14-25.074-22.082-35.168 25.914 9.473 49.622 23.567 70.125 41.27-6.636 5.883-16.351 13.543-29.09 21.144a217.129 217.129 0 01-5.761 3.313zM241 137.012c-24.887-1.418-48.43-6.395-70.406-14.871 3.77-10.528 8.011-20.496 12.703-29.79 16.195-32.05 36.625-53.038 57.703-59.894zm0 30.039V241h-91.504c1.008-31.813 5.215-62.332 12.316-90.063 22.133 8.274 48.524 14.54 79.188 16.114zM241 271v73.95c-30.664 1.573-57.055 7.84-79.188 16.112-7.101-27.73-11.308-58.25-12.316-90.062zm0 103.996v104.547c-21.078-6.852-41.508-27.844-57.703-59.895-4.688-9.277-8.918-19.226-12.684-29.734 19.528-7.504 42.985-13.328 70.387-14.918zm30-.008c24.887 1.418 48.43 6.395 70.406 14.871-3.77 10.528-8.011 20.496-12.707 29.79-16.191 32.05-36.625 53.042-57.699 59.894zm0-30.039V271h91.504c-1.008 31.813-5.215 62.332-12.316 90.063-22.137-8.274-48.524-14.54-79.188-16.114zM271 241v-73.95c30.664-1.573 57.05-7.84 79.188-16.113 7.101 27.731 11.308 58.25 12.316 90.063zm0-103.988V32.457c21.078 6.852 41.508 27.844 57.7 59.895 4.695 9.293 8.937 19.261 12.706 29.789-21.976 8.476-45.52 13.453-70.406 14.87zM156.52 78.824c-4.844 9.59-9.243 19.817-13.192 30.559a217.129 217.129 0 01-5.762-3.313c-12.738-7.601-22.449-15.261-29.09-21.144 20.504-17.703 44.215-31.797 70.126-41.27-7.946 10.094-15.348 21.836-22.082 35.168zM119.484 271c1.086 36.164 6.075 70.941 14.586 102.43-21.554 11.261-37.21 23.578-47.023 32.496C54.69 369.504 33.907 322.59 30.512 271zm23.844 131.617c3.95 10.742 8.348 20.969 13.192 30.559 6.734 13.332 14.136 25.074 22.082 35.168-25.922-9.477-49.637-23.574-70.145-41.29 7.566-6.706 19.188-15.745 34.871-24.437zm212.152 30.559c4.844-9.59 9.243-19.817 13.192-30.559a228.54 228.54 0 015.762 3.313c12.742 7.605 22.457 15.265 29.09 21.144-20.504 17.703-44.211 31.797-70.126 41.274 7.942-10.098 15.344-21.84 22.082-35.172zm69.473-27.25c-9.812-8.918-25.469-21.235-47.023-32.496 8.511-31.489 13.504-66.266 14.586-102.43h88.972c-3.394 51.59-24.18 98.504-56.535 134.926zM392.516 241c-1.086-36.164-6.075-70.941-14.586-102.43 21.554-11.261 37.21-23.578 47.023-32.496 32.356 36.422 53.14 83.336 56.535 134.926zm0 0"/></symbol><symbol viewBox="0 0 44.8 89.6" id="play" xmlns="http://www.w3.org/2000/svg"><path class="bgdont-remove" fill="#fff" d="M0 0v89.6l44.8-44.8L0 0z"/></symbol><symbol viewBox="0 0 512.002 512.002" id="ratingStar" xmlns="http://www.w3.org/2000/svg"><path d="M511.267 197.258a14.995 14.995 0 00-12.107-10.209l-158.723-23.065-70.985-143.827a14.998 14.998 0 00-26.901 0l-70.988 143.827-158.72 23.065a14.998 14.998 0 00-8.312 25.585l114.848 111.954-27.108 158.083a14.999 14.999 0 0021.763 15.812l141.967-74.638 141.961 74.637a15 15 0 0021.766-15.813l-27.117-158.081 114.861-111.955a14.994 14.994 0 003.795-15.375z"/></symbol><symbol viewBox="0 0 60 60" id="shampoo" xmlns="http://www.w3.org/2000/svg"><path d="M58.719 33.765a1 1 0 00-.827-.154l-6.9 1.764a1 1 0 00-.177-.456l-10-14a1 1 0 00-.8-.419c-.315.02-.608.166-.813.405l-1.267 1.711A84.9 84.9 0 0022.417.592 2 2 0 0021 0h-.014a1.964 1.964 0 00-1.4.6 86.412 86.412 0 00-6.959 8.1A16.226 16.226 0 0111 1a1 1 0 00-2 0c0 11.769-7.66 12-8 12a1 1 0 000 2c1.413.102 2.77.6 3.914 1.436a7.951 7.951 0 011.563 1.527c-3.84 6.775-6 13.176-6.4 19.028a21.9 21.9 0 005.577 16.1 20.522 20.522 0 0015.366 6.912c3.65.001 7.236-.956 10.4-2.775l3.489 2.22c.164.332.5.545.871.552h10.8a1 1 0 00.757-.346l12.43-14.39c.176-.205.262-.472.239-.741l-.87-10.029a1 1 0 00-.417-.729zM32.055 55.271l-9.5-7.388 4.422-4.443 5.423 5.816 1.774 7.364zm-.6-9.965l-2.906-3.112 1.867-1.2zm-1.534-6.371l-2.727 1.753L24 36.963l5.877 1.8zm-7.911-1.221l3.63 4.235-3.6 3.614zM36.568 58l-5.3-22h11.644l-1.566 18.8v.038l-.258 3.092c0 .027.009.051.009.077zm8.2-23.937l-2.113-7.128 5.279 7.39zm.147 2.017l3.727.31-3.929 11.536-.008.024-1.034 3.039zm5.431 1.512h.062l4.741-1.211-7 7.676zm7-.652l.459 5.289-2.944-2.564zM39.61 23.706L42.661 34H31.985zM4.683 14A10.608 10.608 0 0010 7.684a12.238 12.238 0 001.674 3.233.973.973 0 00.114.152A9.977 9.977 0 0015.317 14 10.608 10.608 0 0010 20.316a12.33 12.33 0 00-1.479-2.941 1.06 1.06 0 00-.1-.148A10.038 10.038 0 004.683 14zm15.671 43.991a18.541 18.541 0 01-13.22-6.236 19.891 19.891 0 01-5.066-14.627c.36-5.269 2.256-11.046 5.6-17.187A16.926 16.926 0 019 27a1 1 0 002 0c0-11.783 7.678-12 8-12a1 1 0 000-2 7.562 7.562 0 01-3.914-1.436 7.847 7.847 0 01-1.248-1.159A85.364 85.364 0 0121 2c1.063 1.076 10.4 10.69 15.566 22.456L29.2 34.405a1 1 0 00-.169.829l.306 1.269-8.04-2.459a.989.989 0 00-.89.153A1 1 0 0020 35l.05 12.976a1 1 0 00.386.79l9.206 7.153a18.779 18.779 0 01-9.288 2.072zM46.122 58H43.4l3.137-9.214 6.973-7.643 4.1 3.567z"/></symbol><symbol viewBox="0 0 512 512" id="star" xmlns="http://www.w3.org/2000/svg"><path d="M437.02 74.98C388.668 26.63 324.379 0 256 0S123.332 26.629 74.98 74.98C26.63 123.332 0 187.621 0 256s26.629 132.668 74.98 181.02C123.332 485.37 187.621 512 256 512s132.668-26.629 181.02-74.98C485.37 388.668 512 324.379 512 256s-26.629-132.668-74.98-181.02zM256 482C131.383 482 30 380.617 30 256S131.383 30 256 30s226 101.383 226 226-101.383 226-226 226zm0 0"/><path d="M308.371 197.7L256 91.585l-52.371 106.113-117.102 17.016 84.735 82.597-20.004 116.63L256 358.878l104.742 55.062-20.004-116.628 84.735-82.598zm12.527 161.402L256 324.984l-64.898 34.118 12.394-72.266-52.5-51.176 72.559-10.543L256 159.371l32.45 65.746 72.554 10.543-52.5 51.18zm0 0"/></symbol><symbol viewBox="0 0 60 52" id="turbo" xmlns="http://www.w3.org/2000/svg"><path d="M3 52h26.442C43.955 52 55.868 40.446 56 26.244A25.718 25.718 0 0054.74 18H57a3 3 0 003-3V3a3 3 0 00-3-3H30.558C16.045 0 4.132 11.554 4 25.756A25.718 25.718 0 005.26 34H3a3 3 0 00-3 3v12a3 3 0 003 3zM2 37a1 1 0 011-1h3.68a1 1 0 00.932-1.364A23.638 23.638 0 016 25.774C6.122 12.665 17.138 2 30.558 2H57a1 1 0 011 1v12a1 1 0 01-1 1h-3.68a1 1 0 00-.932 1.364A23.638 23.638 0 0154 26.226C53.878 39.335 42.862 50 29.442 50H3a1 1 0 01-1-1z"/><path d="M11.9 29.233l-.852.352a3.132 3.132 0 00-1.693 4.085 3.181 3.181 0 001.854 1.764 9.741 9.741 0 003.143.492c.05 0 .1-.005.153-.005l-.648.647a3.113 3.113 0 000 4.429c.59.584 1.387.912 2.217.913h.165a9.89 9.89 0 003.222-.811l-.354.858a3.144 3.144 0 001.7 4.075 3.148 3.148 0 002.558-.067 9.7 9.7 0 002.672-1.977v.912a3.134 3.134 0 003.13 3.13 3.167 3.167 0 002.333-1.046 9.985 9.985 0 001.7-2.859l.354.857a3.124 3.124 0 005.838-.161 9.917 9.917 0 00.486-3.3l.663.663a3.12 3.12 0 005.327-2.2v-.2a9.888 9.888 0 00-.812-3.228l.861.357A3.135 3.135 0 0050 35.239c.16-.383.242-.794.239-1.209 0-.47-.104-.934-.306-1.358A9.656 9.656 0 0047.953 30h.917A3.133 3.133 0 0052 26.87a3.169 3.169 0 00-1.045-2.337 9.936 9.936 0 00-2.864-1.7l.86-.356a3.125 3.125 0 00-.16-5.838 9.943 9.943 0 00-3.3-.486l.653-.653a3.125 3.125 0 00-2.2-5.337h-.185a9.886 9.886 0 00-3.224.809l.355-.864a3.138 3.138 0 00-1.7-4.077 3.2 3.2 0 00-2.563.069 9.821 9.821 0 00-2.667 1.984V7.16a3.133 3.133 0 00-3.13-3.13 3.167 3.167 0 00-2.33 1.046 9.992 9.992 0 00-1.7 2.858l-.354-.856a3.126 3.126 0 00-5.836.155 9.74 9.74 0 00-.491 3.31l-.66-.66a3.126 3.126 0 00-4.415 0 3.091 3.091 0 00-.912 2.2v.185a9.869 9.869 0 00.818 3.237l-.867-.356A3.127 3.127 0 0010 16.831a3.154 3.154 0 00.067 2.558c.5.998 1.17 1.902 1.978 2.672h-.915a3.132 3.132 0 00-2.088 5.464 9.811 9.811 0 002.858 1.708zM30 13c7.18 0 13 5.82 13 13s-5.82 13-13 13-13-5.82-13-13c.008-7.176 5.824-12.992 13-13zM11.887 33.552a1.166 1.166 0 01-.683-.643 1.116 1.116 0 01.608-1.475l3.5-1.447c.082 0 .163.008.245.009.34 1.225.835 2.401 1.473 3.5a8.511 8.511 0 01-5.143.056zm4.293 6.358h-.11c-.3 0-.587-.117-.8-.327a1.108 1.108 0 010-1.591l2.715-2.714c.066-.024.126-.054.191-.08a15.14 15.14 0 002.717 2.7l-.047.044a.357.357 0 00-.027.028 8.583 8.583 0 01-4.639 1.94zm6.32 4.25a1.155 1.155 0 01-.924.026 1.141 1.141 0 01-.617-1.474L22.4 39.22c.07-.063.136-.127.2-.19 1.107.63 2.29 1.114 3.521 1.443A8.4 8.4 0 0122.5 44.16zm7.516 1.486a1.132 1.132 0 01-1.986-.746v-3.792c.037-.079.074-.157.109-.236 1.264.175 2.547.17 3.81-.013a8.624 8.624 0 01-1.938 4.787zm7.5-1.487a1.126 1.126 0 01-2.1.059l-1.448-3.5c0-.088.008-.177.009-.264a14.88 14.88 0 003.5-1.463 8.57 8.57 0 01.03 5.168zm6.354-4.169a1.1 1.1 0 01-.327.783 1.123 1.123 0 01-1.586 0l-2.684-2.684a6.886 6.886 0 00-.091-.253 15.147 15.147 0 002.679-2.688 8.533 8.533 0 012.009 4.7zm4.37-5.96a1.1 1.1 0 01-.083.435 1.129 1.129 0 01-1.474.611L43.15 33.61c-.048-.053-.1-.1-.153-.154a14.9 14.9 0 001.464-3.53 8.375 8.375 0 013.668 3.609c.074.155.112.324.111.495zM50 26.87A1.13 1.13 0 0148.87 28h-3.825c-.059-.027-.122-.05-.183-.076.087-.638.134-1.28.138-1.924-.005-.636-.05-1.27-.134-1.9a8.59 8.59 0 014.751 1.922c.242.215.381.524.383.848zm-1.871-8.346a1.125 1.125 0 01.059 2.1l-3.543 1.467h-.179A14.9 14.9 0 0043 18.548a8.581 8.581 0 015.129-.024zM43.82 12.16h.13a1.134 1.134 0 011.12 1.118c-.001.3-.122.589-.337.8l-2.69 2.69c-.063.023-.123.051-.185.075a15.118 15.118 0 00-2.708-2.707 8.54 8.54 0 014.67-1.976zM37.505 7.9c.291-.136.626-.146.924-.025.574.24.85.897.616 1.474l-1.436 3.488c-.058.052-.115.1-.169.156a14.867 14.867 0 00-3.525-1.457 8.5 8.5 0 013.59-3.636zm-7.516-1.486a1.132 1.132 0 011.981.746v3.8l-.08.172a13.567 13.567 0 00-3.832.008 8.633 8.633 0 011.931-4.726zm-7.5 1.487a1.126 1.126 0 012.1-.059l1.457 3.524v.178a14.874 14.874 0 00-3.54 1.478 8.524 8.524 0 01-.013-5.122zM16.13 12.08a1.121 1.121 0 011.913-.783l2.684 2.685.072.2a15.127 15.127 0 00-2.683 2.7 8.556 8.556 0 01-1.986-4.672zm-4.37 5.95A1.115 1.115 0 0113.32 17l3.5 1.437c.05.056.1.112.152.166a14.938 14.938 0 00-1.446 3.533 8.393 8.393 0 01-3.653-3.606 1.136 1.136 0 01-.113-.5zm-.63 6.03h3.792l.2.094a13.512 13.512 0 00.02 3.822 8.547 8.547 0 01-4.763-1.936 1.131 1.131 0 01.747-1.98z"/><path d="M29.5 36.985a8.064 8.064 0 006.076-2.2 8.177 8.177 0 002.56-5.928c0-7.275-5.712-12.43-6.857-13.389a2 2 0 00-2.575 0c-.651.545-6.37 5.528-6.825 12.5a8.729 8.729 0 002.162 6.3 7.88 7.88 0 005.459 2.717zM23.882 28.1c.4-6.141 5.53-10.606 6.12-11.1.628.526 6.141 5.334 6.141 11.856a6.145 6.145 0 01-6.521 6.132 5.9 5.9 0 01-4.075-2.042 6.724 6.724 0 01-1.665-4.846z"/><path d="M30 33a1 1 0 000-2 2.145 2.145 0 01-2.143-2.143 1 1 0 00-2 0A4.147 4.147 0 0030 33zM8.293 47.707a1 1 0 001.414-1.414L7.414 44H12a1 1 0 000-2H7.414l2.293-2.293a1 1 0 00-1.414-1.414l-4 4a1 1 0 000 1.414zM47.077 9.382a1 1 0 00.216.325l4 4a1 1 0 001.414-1.414L50.414 10H55a1 1 0 000-2h-4.586l2.293-2.293a1 1 0 00-1.414-1.414l-4 4a1 1 0 00-.216 1.089z"/></symbol><symbol viewBox="0 0 504 504" id="visa" xmlns="http://www.w3.org/2000/svg"><path class="bldont-remove" fill="#3c58bf" d="M184.8 324.4l25.6-144h40l-24.8 144z"/><path class="bldont-remove" fill="#293688" d="M184.8 324.4l32.8-144h32.8l-24.8 144z"/><path class="bldont-remove" d="M370.4 182c-8-3.2-20.8-6.4-36.8-6.4-40 0-68.8 20-68.8 48.8 0 21.6 20 32.8 36 40s20.8 12 20.8 18.4c0 9.6-12.8 14.4-24 14.4-16 0-24.8-2.4-38.4-8l-5.6-2.4-5.6 32.8c9.6 4 27.2 8 45.6 8 42.4 0 70.4-20 70.4-50.4 0-16.8-10.4-29.6-34.4-40-14.4-7.2-23.2-11.2-23.2-18.4 0-6.4 7.2-12.8 23.2-12.8 13.6 0 23.2 2.4 30.4 5.6l4 1.6 6.4-31.2z" fill="#3c58bf"/><path class="bldont-remove" d="M370.4 182c-8-3.2-20.8-6.4-36.8-6.4-40 0-61.6 20-61.6 48.8 0 21.6 12.8 32.8 28.8 40s20.8 12 20.8 18.4c0 9.6-12.8 14.4-24 14.4-16 0-24.8-2.4-38.4-8l-5.6-2.4-5.6 32.8c9.6 4 27.2 8 45.6 8 42.4 0 70.4-20 70.4-50.4 0-16.8-10.4-29.6-34.4-40-14.4-7.2-23.2-11.2-23.2-18.4 0-6.4 7.2-12.8 23.2-12.8 13.6 0 23.2 2.4 30.4 5.6l4 1.6 6.4-31.2z" fill="#293688"/><path class="bldont-remove" d="M439.2 180.4c-9.6 0-16.8.8-20.8 10.4l-60 133.6h43.2l8-24h51.2l4.8 24H504l-33.6-144h-31.2zm-18.4 96c2.4-7.2 16-42.4 16-42.4s3.2-8.8 5.6-14.4l2.4 13.6s8 36 9.6 44h-33.6v-.8z" fill="#3c58bf"/><path class="bldont-remove" d="M448.8 180.4c-9.6 0-16.8.8-20.8 10.4l-69.6 133.6h43.2l8-24h51.2l4.8 24H504l-33.6-144h-21.6zm-28 96c3.2-8 16-42.4 16-42.4s3.2-8.8 5.6-14.4l2.4 13.6s8 36 9.6 44h-33.6v-.8z" fill="#293688"/><path class="bldont-remove" d="M111.2 281.2l-4-20.8c-7.2-24-30.4-50.4-56-63.2l36 128h43.2l64.8-144H152l-40.8 100z" fill="#3c58bf"/><path class="bldont-remove" d="M111.2 281.2l-4-20.8c-7.2-24-30.4-50.4-56-63.2l36 128h43.2l64.8-144H160l-48.8 100z" fill="#293688"/><path class="bldont-remove" d="M0 180.4l7.2 1.6c51.2 12 86.4 42.4 100 78.4l-14.4-68c-2.4-9.6-9.6-12-18.4-12H0z" fill="#ffbc00"/><path class="bldont-remove" d="M0 180.4c51.2 12 93.6 43.2 107.2 79.2l-13.6-56.8c-2.4-9.6-10.4-15.2-19.2-15.2L0 180.4z" fill="#f7981d"/><path class="bldont-remove" d="M0 180.4c51.2 12 93.6 43.2 107.2 79.2l-9.6-31.2c-2.4-9.6-5.6-19.2-16.8-23.2L0 180.4z" fill="#ed7c00"/><path class="bldont-remove" d="M151.2 276.4L124 249.2l-12.8 30.4-3.2-20c-7.2-24-30.4-50.4-56-63.2l36 128h43.2l20-48zm74.4 48l-34.4-35.2-6.4 35.2zm92-49.6c3.2 3.2 4.8 5.6 4 8.8 0 9.6-12.8 14.4-24 14.4-16 0-24.8-2.4-38.4-8l-5.6-2.4-5.6 32.8c9.6 4 27.2 8 45.6 8 25.6 0 46.4-7.2 58.4-20l-34.4-33.6zm46.4 49.6h37.6l8-24h51.2l4.8 24H504L490.4 266l-48-46.4 2.4 12.8s8 36 9.6 44h-33.6c3.2-8 16-42.4 16-42.4s3.2-8.8 5.6-14.4" fill="#051244"/></symbol><symbol viewBox="0 0 243.5 137.8" id="vk" xmlns="http://www.w3.org/2000/svg"><path class="bmdont-remove" d="M209.6 87.6c8 7.9 16.6 15.3 23.8 24a69.1 69.1 0 018.5 12.3c3.3 6.4.4 13.4-5.3 13.8h-35.5c-9.2.8-16.5-2.9-22.6-9.1s-9.5-10.5-14.2-15.6a31.8 31.8 0 00-6.4-5.7c-4.8-3.1-9-2.2-11.8 2.9s-3.4 10.8-3.7 16.5c-.4 8.4-2.9 10.6-11.3 10.9-17.9.9-35-1.8-50.8-10.9-13.9-7.9-24.7-19.2-34.1-31.9-18.3-24.9-32.4-52.1-45-80.2-2.8-6.3-.7-9.7 6.2-9.8q17.4-.3 34.8 0c4.7.1 7.8 2.8 9.6 7.2a218.2 218.2 0 0023.5 43.6c2.6 3.6 5.2 7.2 8.9 9.8s7.3 1.9 9.2-2.7a28.6 28.6 0 002-9.2 131.8 131.8 0 00-.5-32c-1-6.7-4.8-11-11.4-12.2-3.4-.7-2.9-1.9-1.2-3.9S87.8 0 93.1 0h40.1c6.3 1.2 7.7 4.1 8.6 10.4V55c0 2.4 1.3 9.7 5.7 11.3s5.9-1.6 8-3.9c9.6-10.2 16.4-22.2 22.6-34.7 2.7-5.5 5-11.1 7.3-16.8s4.3-6.3 9-6.2H233a18.8 18.8 0 013.4.2c6.5 1.1 8.3 3.9 6.3 10.3-3.2 9.9-9.3 18.2-15.3 26.6s-13.3 17.5-19.7 26.4-5.4 12.3 1.9 19.4z" fill="#fff"/></symbol><symbol viewBox="0 0 512 512" id="wallet" xmlns="http://www.w3.org/2000/svg"><path d="M460 246V123h-31V3H75C33.645 3 0 36.645 0 78v356c0 41.355 33.645 75 75 75h385V386h52V246h-52zM75 33h324v29H113v30h286v31H75c-24.813 0-45-20.187-45-45s20.187-45 45-45zm355 446H75c-24.813 0-45-20.187-45-45V137.965l.09.065c.152.114.308.22.461.333a73.345 73.345 0 002.242 1.595c.31.212.625.416.938.623a77.134 77.134 0 002.92 1.84c.644.385 1.295.757 1.95 1.123.327.182.65.368.98.545.856.461 1.723.905 2.598 1.333.127.062.251.13.379.192.998.481 2.011.936 3.033 1.373.324.139.654.267.98.401.716.294 1.435.581 2.162.854a75.984 75.984 0 003.268 1.136c.388.125.776.252 1.167.371.794.242 1.594.467 2.399.683.296.079.588.167.886.243 1.096.28 2.201.536 3.315.767.262.054.527.097.79.148a74.78 74.78 0 002.608.467c.399.063.8.118 1.201.175a72.197 72.197 0 005.97.607c.372.023.743.052 1.116.069 1.177.057 2.358.092 3.547.092h355v93h-54c-38.598 0-70 31.402-70 70s31.402 70 70 70h54v93zm52-123H376c-22.056 0-40-17.944-40-40s17.944-40 40-40h106v80z"/><circle cx="375" cy="316" r="15"/></symbol><symbol viewBox="0 0 42 60" id="water" xmlns="http://www.w3.org/2000/svg"><path d="M1 15c1.414.102 2.77.6 3.915 1.436a7.973 7.973 0 011.562 1.527c-3.84 6.774-6 13.176-6.405 19.028a21.905 21.905 0 005.577 16.1 20.52 20.52 0 0015.364 6.912C32.607 59.996 42.002 50.594 42 39 42 20.814 24.423 2.61 22.417.593A1.9 1.9 0 0020.984 0a1.971 1.971 0 00-1.4.6 86.252 86.252 0 00-6.959 8.1A16.224 16.224 0 0111 1a1 1 0 00-2 0c0 11.769-7.66 12-8 12a1 1 0 000 2zM21 2.005C22.945 3.961 40 21.616 40 39a19.005 19.005 0 01-19.647 18.991 18.537 18.537 0 01-13.219-6.236 19.9 19.9 0 01-5.067-14.627c.361-5.269 2.257-11.047 5.6-17.188A16.934 16.934 0 019 27a1 1 0 002 0c0-11.783 7.678-12 8-12a1 1 0 000-2 7.566 7.566 0 01-3.915-1.436 7.838 7.838 0 01-1.247-1.159A85.123 85.123 0 0121 2.005zM10 7.684a12.238 12.238 0 001.674 3.233.987.987 0 00.115.153A9.984 9.984 0 0015.318 14 10.609 10.609 0 0010 20.316a12.349 12.349 0 00-1.479-2.941.97.97 0 00-.1-.149A10.027 10.027 0 004.682 14 10.609 10.609 0 0010 7.684z"/><path d="M13.4 29.654a1 1 0 001.39.259 10.991 10.991 0 0117.193 8.65l-2.272-2.272a1 1 0 00-1.414 1.414l4 4a1 1 0 001.414 0l4-4a1 1 0 00-1.414-1.414L33.981 38.6a12.99 12.99 0 00-20.326-10.336 1 1 0 00-.255 1.39zm13.814 18.429a10.99 10.99 0 01-17.192-8.637l2.278 2.261a1 1 0 101.41-1.418l-4.021-4A1.118 1.118 0 008.977 36a1 1 0 00-.707.3l-3.979 4a1 1 0 001.418 1.41l2.31-2.322a12.993 12.993 0 0020.326 10.345 1 1 0 00-1.131-1.65z"/></symbol><symbol viewBox="0 0 42 60" id="wax" xmlns="http://www.w3.org/2000/svg"><path d="M1.56 46.722c.014.039.03.077.05.114a21.212 21.212 0 007.674 9.509A20.9 20.9 0 0020.958 60H21a20.9 20.9 0 0011.672-3.653 21.226 21.226 0 007.643-9.432.983.983 0 00.131-.3 21.149 21.149 0 001.454-9.148.916.916 0 00-.006-.138 20.645 20.645 0 00-.51-3.352c-1.063-4.435-3.6-7.672-6.114-10.607-.478-.559-.962-1.115-1.446-1.671a57.537 57.537 0 01-6.3-8.178A49.875 49.875 0 0122.443 1.1a1.523 1.523 0 00-2.929.006 49.876 49.876 0 01-5.076 12.414 57.554 57.554 0 01-6.3 8.178 480.34 480.34 0 00-1.447 1.672C4.18 26.305 1.641 29.542.578 33.977a20.54 20.54 0 00-.512 3.4v.029a21.153 21.153 0 001.494 9.316zm.468-7.446a6.227 6.227 0 008.606 0 4.245 4.245 0 016.063 0 6.216 6.216 0 008.6 0 4.246 4.246 0 016.063 0 6.217 6.217 0 008.576.025 19.193 19.193 0 01-1.3 6.475A4.131 4.131 0 0135.66 47a4.206 4.206 0 01-3.037-1.275 6.216 6.216 0 00-8.6 0 4.246 4.246 0 01-6.063 0 6.214 6.214 0 00-8.6 0 4.246 4.246 0 01-6.055.012 19.19 19.19 0 01-1.286-6.463zM31.545 54.7A18.883 18.883 0 0121 58h-.021a18.842 18.842 0 01-10.568-3.307 19.134 19.134 0 01-5.553-5.857c.483.112.977.167 1.472.164a6.178 6.178 0 004.3-1.728 4.245 4.245 0 016.063 0 6.216 6.216 0 008.6 0 4.246 4.246 0 016.063 0A6.178 6.178 0 0035.66 49c.482.003.962-.048 1.433-.152a19.153 19.153 0 01-5.548 5.852zM8.208 24.67c.475-.554.956-1.106 1.437-1.658a59.178 59.178 0 006.515-8.473 50.247 50.247 0 004.819-11.282A50.27 50.27 0 0025.8 14.54a59 59 0 006.514 8.472c.48.552.96 1.105 1.436 1.658 2.352 2.75 4.729 5.769 5.688 9.773.187.803.32 1.617.4 2.437-.402.258-.787.542-1.153.85a4.25 4.25 0 01-6.065 0 6.216 6.216 0 00-8.6 0 4.246 4.246 0 01-6.063 0 6.214 6.214 0 00-8.6 0 4.257 4.257 0 01-6.074 0 10.956 10.956 0 00-1.173-.865c.08-.814.214-1.622.4-2.419.97-4.007 3.346-7.026 5.698-9.776z"/><path d="M5.207 36.112a1 1 0 001.205-.738c.688-2.862 2.294-5.138 4.839-8.1.467-.548.935-1.085 1.416-1.636l.115-.134c1.174-1.356 2.388-2.759 3.566-4.219a1 1 0 10-1.556-1.256c-1.157 1.433-2.359 2.823-3.522 4.167l-.113.13c-.483.553-.955 1.1-1.426 1.647-2.742 3.2-4.482 5.684-5.263 8.938a1 1 0 00.739 1.201zm12.368-18.196a1 1 0 001.382-.3c.22-.344.435-.693.644-1.047a1 1 0 10-1.722-1.016c-.195.333-.397.66-.605.982a1 1 0 00.301 1.381z"/></symbol><symbol viewBox="0 0 512 358.5" id="youtube" xmlns="http://www.w3.org/2000/svg">><path class="bqdont-remove" d="M501.5 56.1A64.1 64.1 0 00456.3 11C416.3 0 256 0 256 0S95.7 0 55.7 10.5c-21.5 5.9-39.3 23.7-45.2 45.6C0 96.2 0 179.2 0 179.2s0 83.5 10.5 123.2a64.1 64.1 0 0045.2 45.1c40.5 11 200.3 11 200.3 11s160.3 0 200.3-10.6a64.1 64.1 0 0045.2-45.1C512 262.7 512 179.7 512 179.7s.4-83.5-10.5-123.6zM205 256V102.5l133.2 76.7z" fill="#fff"/></symbol></svg>