<?xml version="1.0"?>
<!--Icons from directory ""-->
<svg xmlns="http://www.w3.org/2000/svg" width="21" height="70" viewBox="0 0 21 70"><svg width="21" height="17" id="icon-logout-gray" y="0"><g fill="#c5c5c5"><path d="M21 8.5L12.125 0v6h-6v5h6v6z"/><path d="M3.106 13.952V3.048c.018-.376.171-1.057 1.01-1.057h5.027V0H4.116C1.938 0 1.112 1.81 1.087 3.027v10.946C1.112 15.189 1.938 17 4.116 17h5.027v-1.99H4.116c-.839 0-.992-.683-1.01-1.058z"/></g></svg><svg width="21" height="17" id="icon-logout" y="17"><g fill="#32425C"><path d="M21 8.5L12.125 0v6h-6v5h6v6z"/><path d="M3.106 13.952V3.048c.018-.376.171-1.057 1.01-1.057h5.027V0H4.116C1.938 0 1.112 1.81 1.087 3.027v10.946C1.112 15.189 1.938 17 4.116 17h5.027v-1.99H4.116c-.839 0-.992-.683-1.01-1.058z"/></g></svg><svg width="20" height="18" id="icon-user-gray" y="34"><path fill="#c5c5c5" d="M17.881 14.166c-2.144-.735-4.256-1.666-5.207-2.39-.657-.501-.77-1.618-.517-2.415 1.118-.903 1.864-2.477 1.864-4.278C14.021 2.276 12.221 0 10 0S5.979 2.276 5.979 5.083c0 1.801.746 3.374 1.863 4.277.253.798.141 1.915-.517 2.416-.95.724-3.063 1.654-5.207 2.39S0 18 0 18h20s.025-3.099-2.119-3.834z"/></svg><svg width="20" height="18" id="icon-user" y="52"><path fill="#32425C" d="M17.881 14.166c-2.144-.735-4.256-1.666-5.207-2.39-.657-.501-.77-1.618-.517-2.415 1.118-.903 1.864-2.477 1.864-4.278C14.021 2.276 12.221 0 10 0S5.979 2.276 5.979 5.083c0 1.801.746 3.374 1.863 4.277.253.798.141 1.915-.517 2.416-.95.724-3.063 1.654-5.207 2.39S0 18 0 18h20s.025-3.099-2.119-3.834z"/></svg></svg>
