<?xml version="1.0" encoding="utf-8"?><svg xmlns="http://www.w3.org/2000/svg" xmlns:xlink="http://www.w3.org/1999/xlink"><symbol fill="none" viewBox="0 0 160 90" id="camera" xmlns="http://www.w3.org/2000/svg"><path d="M6.354 46.075a48.92 48.92 0 01-.42-.52c.149-.169.32-.36.512-.57a86.77 86.77 0 013.854-3.953c3.396-3.28 8.408-7.66 14.855-12.041C38.056 20.226 56.642 11.5 79.5 11.5c24.373 0 42.954 8.736 55.453 17.48 6.251 4.372 10.975 8.743 14.132 12.015a72.888 72.888 0 013.548 3.939c.207.248.386.468.537.657a36.01 36.01 0 01-.394.584 53.038 53.038 0 01-2.99 3.91c-2.716 3.251-6.913 7.603-12.803 11.959C125.218 70.745 106.651 79.5 79.5 79.5c-24.625 0-43.205-8.738-55.637-17.477-6.219-4.372-10.895-8.741-14.012-12.011a70.643 70.643 0 01-3.497-3.937z" stroke="#fff" stroke-width="3" fill="currentColor"/><circle cx="81" cy="45" r="24.5" stroke="#fff" stroke-width="3"/><circle cx="81" cy="45" r="21.5" stroke="#77B900" stroke-width="3"/><circle cx="81" cy="45" r="9.5" stroke="#77B900" stroke-width="5"/><circle cx="100" cy="32" r="7" fill="#fff"/></symbol><symbol fill="none" viewBox="0 0 160 90" id="clock" xmlns="http://www.w3.org/2000/svg"><path d="M6.354 46.075a48.92 48.92 0 01-.42-.52c.149-.169.32-.36.512-.57a86.77 86.77 0 013.854-3.953c3.396-3.28 8.408-7.66 14.855-12.041C38.056 20.226 56.642 11.5 79.5 11.5c24.373 0 42.954 8.736 55.453 17.48 6.251 4.372 10.975 8.743 14.132 12.015a72.888 72.888 0 013.548 3.939c.207.248.386.468.537.657a36.01 36.01 0 01-.394.584 53.038 53.038 0 01-2.99 3.91c-2.716 3.251-6.913 7.603-12.803 11.959C125.218 70.745 106.651 79.5 79.5 79.5c-24.625 0-43.205-8.738-55.637-17.477-6.219-4.372-10.895-8.741-14.012-12.011a70.643 70.643 0 01-3.497-3.937z" stroke="#fff" stroke-width="3" fill="currentColor"/><circle cx="81" cy="45" r="24.5" stroke="#fff" stroke-width="3"/><circle cx="81" cy="45" r="21.5" stroke="#77B900" stroke-width="3"/><path d="M81 28.5V45h13" stroke="#77B900" stroke-width="4" stroke-linecap="round" stroke-linejoin="round"/></symbol><symbol fill="none" viewBox="0 0 160 90" id="gamut" xmlns="http://www.w3.org/2000/svg"><path d="M6.354 46.075a48.92 48.92 0 01-.42-.52c.149-.169.32-.36.512-.57a86.77 86.77 0 013.854-3.953c3.396-3.28 8.408-7.66 14.855-12.041C38.056 20.226 56.642 11.5 79.5 11.5c24.373 0 42.954 8.736 55.453 17.48 6.251 4.372 10.975 8.743 14.132 12.015a72.888 72.888 0 013.548 3.939c.207.248.386.468.537.657a36.01 36.01 0 01-.394.584 53.038 53.038 0 01-2.99 3.91c-2.716 3.251-6.913 7.603-12.803 11.959C125.218 70.745 106.651 79.5 79.5 79.5c-24.625 0-43.205-8.738-55.637-17.477-6.219-4.372-10.895-8.741-14.012-12.011a70.643 70.643 0 01-3.497-3.937z" stroke="#fff" stroke-width="3" fill="currentColor"/><circle cx="79.5" cy="37.5" r="11.5" fill="#77B900" fill-opacity=".75" stroke="#fff" stroke-width="2"/><circle cx="70.5" cy="52.5" r="11.5" fill="#77B900" fill-opacity=".5" stroke="#fff" stroke-width="2"/><circle cx="88.5" cy="52.5" r="11.5" fill="#fff" fill-opacity=".45" stroke="#fff" stroke-width="2"/></symbol><symbol fill="none" viewBox="0 0 48 48" id="inst" xmlns="http://www.w3.org/2000/svg"><path d="M35.816 12.935a3.053 3.053 0 00-2.24-.935H15.174a3.054 3.054 0 00-2.24.935 3.057 3.057 0 00-.935 2.24v18.4a3.055 3.055 0 00.935 2.24 3.056 3.056 0 002.24.935h18.4a3.192 3.192 0 003.175-3.175v-18.4a3.056 3.056 0 00-.934-2.24zm-14.93 7.984a4.863 4.863 0 013.506-1.41 4.883 4.883 0 013.52 1.41 4.712 4.712 0 010 6.816 4.881 4.881 0 01-3.52 1.41 4.865 4.865 0 01-3.505-1.41 4.712 4.712 0 010-6.816zm13.06 11.998a.94.94 0 01-.29.7.96.96 0 01-.692.281H15.739a.964.964 0 01-.984-.983V22.474h2.272a6.936 6.936 0 00-.323 2.11 7.075 7.075 0 002.257 5.279 7.528 7.528 0 005.43 2.183 7.748 7.748 0 003.868-1 7.52 7.52 0 002.804-2.715 7.139 7.139 0 001.031-3.746 6.939 6.939 0 00-.323-2.11h2.176v10.442zm0-14.39a1.1 1.1 0 01-1.111 1.113H30.03a1.1 1.1 0 01-1.111-1.111v-2.661a1.08 1.08 0 01.323-.782 1.06 1.06 0 01.789-.33h2.804a1.061 1.061 0 01.79.33 1.08 1.08 0 01.322.782v2.658l-.001.002z" fill="currentColor"/></symbol><symbol fill="none" viewBox="0 0 160 90" id="lightning" xmlns="http://www.w3.org/2000/svg"><path d="M6.354 46.075a48.92 48.92 0 01-.42-.52c.149-.169.32-.36.512-.57a86.77 86.77 0 013.854-3.953c3.396-3.28 8.408-7.66 14.855-12.041C38.056 20.226 56.642 11.5 79.5 11.5c24.373 0 42.954 8.736 55.453 17.48 6.251 4.372 10.975 8.743 14.132 12.015a72.888 72.888 0 013.548 3.939c.207.248.386.468.537.657a36.01 36.01 0 01-.394.584 53.038 53.038 0 01-2.99 3.91c-2.716 3.251-6.913 7.603-12.803 11.959C125.218 70.745 106.651 79.5 79.5 79.5c-24.625 0-43.205-8.738-55.637-17.477-6.219-4.372-10.895-8.741-14.012-12.011a70.643 70.643 0 01-3.497-3.937z" stroke="#fff" stroke-width="3" fill="currentColor"/><path d="M115.967 41.718c-1.052-12.26-10.879-21.994-23.178-22.924 7.899 4.255 13.269 12.598 13.269 22.197 0 .247-.031.483-.038.727h-8.091l12.49 16.076 13.491-16.076h-7.943zM54.68 51.009c0-.273.031-.538.04-.808h8.351L50.582 34.126 37.09 50.2h7.675c1.018 12.297 10.858 22.075 23.182 23.006-7.897-4.257-13.266-12.6-13.266-22.198z" fill="#fff"/><path d="M88 30H71v17h5l-1.5 18.25L90 44H78l10-14z" fill="#77B900"/></symbol><symbol fill="none" viewBox="0 0 45 34" id="logo" xmlns="http://www.w3.org/2000/svg"><g clip-path="url(#fclip0)"><path d="M44.686 32.924c0 .496-.355.828-.774.828v-.003c-.432.003-.78-.33-.78-.825 0-.495.348-.826.78-.826.42 0 .774.331.774.826zm.314 0c0-.68-.515-1.074-1.088-1.074-.578 0-1.093.394-1.093 1.074S43.334 34 43.912 34c.574 0 1.088-.396 1.088-1.076zm-1.269.091h.117l.27.487h.296l-.299-.507c.155-.012.282-.087.282-.3 0-.266-.178-.351-.48-.351h-.437v1.158h.251v-.487zm0-.196v-.279h.175c.095 0 .224.008.224.127 0 .13-.067.152-.179.152h-.22zm-6.061-5.818l1.358 3.81h-2.756L37.671 27zm-1.452-1.483l-3.127 8.13h2.208l.494-1.437h3.701l.468 1.437h2.397l-3.15-8.131-2.991.001zm-6.278 8.133h2.24v-8.136h-2.24v8.136zm-15.553-8.136l-1.869 6.448-1.79-6.448H8.31l2.557 8.136h3.227l2.578-8.136h-2.286zm9.056 1.772h.963c1.396 0 2.3.643 2.3 2.313 0 1.67-.904 2.314-2.3 2.314h-.963v-4.627zm-2.222-1.772v8.136h3.632c1.935 0 2.567-.33 3.25-1.07.483-.52.795-1.661.795-2.909 0-1.143-.264-2.163-.725-2.799-.83-1.136-2.025-1.358-3.809-1.358h-3.143zM0 25.504v8.147h2.26v-6.186h1.75c.58 0 .993.148 1.272.454.354.387.498 1.012.498 2.154v3.578h2.19V29.15c0-3.213-1.996-3.646-3.949-3.646H0zm17.616.011v8.136h2.24v-8.136h-2.24z" fill="#fff"/><path d="M6.02 9.315s2.882-4.362 8.635-4.813V2.919c-6.372.525-11.89 6.063-11.89 6.063s3.125 9.271 11.89 10.12V17.42c-6.432-.83-8.634-8.105-8.634-8.105zm8.635 4.76v1.54c-4.861-.89-6.21-6.075-6.21-6.075s2.333-2.653 6.21-3.083v1.69h-.007c-2.035-.251-3.624 1.7-3.624 1.7s.89 3.283 3.631 4.227zm0-14.075v2.92c.187-.016.374-.028.562-.035 7.245-.25 11.965 6.097 11.965 6.097s-5.421 6.765-11.07 6.765c-.517 0-1.002-.05-1.457-.132v1.805c.39.05.793.08 1.214.08 5.256 0 9.057-2.754 12.738-6.014.61.502 3.108 1.722 3.622 2.256-3.5 3.006-11.656 5.43-16.28 5.43-.445 0-.873-.028-1.294-.07v2.537h19.978V0H14.655zm0 6.457V4.502c.185-.013.372-.024.562-.03 5.21-.168 8.628 4.594 8.628 4.594s-3.692 5.26-7.65 5.26c-.57 0-1.08-.093-1.54-.252V8.147c2.028.252 2.436 1.171 3.656 3.257l2.711-2.347s-1.98-2.664-5.316-2.664c-.363 0-.71.026-1.05.064z" fill="currentColor"/></g><defs><clipPath id="fclip0"><path fill="#fff" d="M0 0h45v34H0z"/></clipPath></defs></symbol><symbol fill="none" viewBox="0 0 48 48" id="tw" xmlns="http://www.w3.org/2000/svg"><path d="M39 14.85c-1.126.486-2.32.802-3.54.939a5.898 5.898 0 002.703-3.339 12.182 12.182 0 01-3.904 1.463 6.16 6.16 0 00-1.998-1.395 6.246 6.246 0 00-4.802-.076 6.17 6.17 0 00-2.043 1.33 5.834 5.834 0 00-1.35 1.959 5.76 5.76 0 00-.45 2.325c.003.466.055.93.156 1.386a17.342 17.342 0 01-7.076-1.862 17.384 17.384 0 01-5.609-4.472 5.863 5.863 0 00-.837 3.056 5.828 5.828 0 00.742 2.89 6.084 6.084 0 002 2.155 6.17 6.17 0 01-2.78-.77v.075a5.798 5.798 0 001.399 3.852 6.065 6.065 0 003.531 2.09 6.459 6.459 0 01-1.618.207 7.953 7.953 0 01-1.156-.095 6.072 6.072 0 002.192 3.006 6.226 6.226 0 003.557 1.194 12.159 12.159 0 01-7.634 2.587c-.495.003-.99-.022-1.483-.074A17.27 17.27 0 0018.44 36c2.094.015 4.174-.33 6.147-1.02a15.698 15.698 0 004.912-2.738 18.398 18.398 0 003.513-3.947 17.465 17.465 0 002.198-4.659 16.961 16.961 0 00.706-5.654A12.77 12.77 0 0039 14.851z" fill="currentColor"/></symbol></svg>