<svg xmlns="http://www.w3.org/2000/svg" xmlns:xlink="http://www.w3.org/1999/xlink"><symbol id="fb" viewBox="0 0 10 21"><path d="M2.161 4.066v2.89H0v3.535h2.161v10.504h4.44V10.492h2.98s.279-1.695.414-3.548H6.618V4.527c0-.361.484-.847.963-.847H10V0H6.71C2.053 0 2.162 3.538 2.162 4.066z"/></symbol><symbol id="twitter" viewBox="0 0 18 12"><path d="M15.96 5.335c1.011-.08 1.697-.525 1.961-1.129-.364.217-1.497.453-2.122.228a7.337 7.337 0 00-.098-.399c-.477-1.693-2.108-3.056-3.817-2.892.139-.054.279-.104.419-.15C12.49.93 13.594.756 13.42.379c-.147-.332-1.495.25-1.75.327.336-.122.89-.332.95-.705a2.716 2.716 0 00-1.407.645.925.925 0 00.27-.517c-1.37.846-2.17 2.553-2.817 4.21-.509-.478-.96-.853-1.364-1.062-1.134-.588-2.49-1.202-4.618-1.967-.065.682.348 1.588 1.54 2.19-.258-.033-.73.042-1.108.13.154.78.656 1.423 2.016 1.734-.621.04-.943.177-1.234.472.283.543.974 1.182 2.216 1.05-1.38.577-.563 1.643.561 1.484-1.917 1.917-4.94 1.776-6.676.173 4.532 5.976 14.384 3.534 15.852-2.222 1.1.01 1.747-.369 2.148-.785-.634.104-1.552-.004-2.04-.2z"/></symbol><symbol id="vk" viewBox="0 0 16 10"><path d="M15.857 8.92c-.043-.08-.309-.713-1.589-2.014-1.34-1.363-1.16-1.142.454-3.498.983-1.435 1.376-2.311 1.253-2.686-.117-.357-.84-.263-.84-.263l-2.404.015s-.178-.026-.31.06c-.13.086-.213.283-.213.283s-.38 1.111-.889 2.055c-1.071 1.993-1.5 2.098-1.675 1.974-.407-.288-.305-1.159-.305-1.776 0-1.932.267-2.737-.521-2.945C8.556.056 8.364.01 7.695.002c-.858-.01-1.585.004-1.996.224-.274.147-.485.474-.356.493.159.023.519.106.71.39.247.368.238 1.194.238 1.194s.142 2.273-.331 2.555c-.325.194-.77-.201-1.725-2.01-.49-.925-.86-1.95-.86-1.95s-.07-.19-.198-.292a.94.94 0 00-.37-.163L.521.458S.178.469.052.632c-.112.146-.009.446-.009.446s1.79 4.587 3.817 6.9c1.859 2.119 3.969 1.98 3.969 1.98h.956s.289-.035.436-.21c.136-.16.13-.46.13-.46s-.018-1.405.578-1.612c.587-.204 1.341 1.358 2.14 1.96.604.454 1.063.355 1.063.355l2.137-.033s1.118-.076.588-1.039z"/></symbol></svg>