<svg xmlns="http://www.w3.org/2000/svg" viewBox="0 0 99.3 114.9"><title>map-marker-babel</title><path d="M49.6.6h-.2A28.4,28.4,0,0,0,21,29c0,10.3,4.7,23.9,13.9,40.3A215.6,215.6,0,0,0,48.8,91a1.2,1.2,0,0,0,.8.4h0a1,1,0,0,0,.8-.5c.1-.1,7-10.5,13.8-23.2C73.4,50.5,78,37.5,78,29A28.4,28.4,0,0,0,49.6.6ZM62.7,29.7A13.2,13.2,0,1,1,49.5,16.5h0A13.2,13.2,0,0,1,62.7,29.7Z" transform="translate(0 -0.6)" fill="#fff"/><circle cx="49.5" cy="29.1" r="13.2" fill="#e94e1b"/><text transform="translate(0 110.4)" font-size="18" font-family="FuturaDemiC, FuturaDemiC">Бебеля, 29А</text></svg>