<svg xmlns="http://www.w3.org/2000/svg" viewBox="0 0 109 114.9"><title>map-marker-taganskaya</title><path d="M54.6.6h-.2A28.4,28.4,0,0,0,26,29c0,10.3,4.7,23.9,13.9,40.3A215.6,215.6,0,0,0,53.8,91a1.2,1.2,0,0,0,.8.4h0a1,1,0,0,0,.8-.5c.1-.1,7-10.5,13.8-23.2C78.4,50.5,83,37.5,83,29A28.4,28.4,0,0,0,54.6.6ZM67.7,29.7A13.2,13.2,0,1,1,54.5,16.5h0A13.2,13.2,0,0,1,67.7,29.7Z" transform="translate(0 -0.6)" fill="#fff"/><circle cx="54.5" cy="29.1" r="13.2" fill="#e94e1b"/><text transform="translate(0 110.4)" font-size="18" font-family="FuturaDemiC, FuturaDemiC"><tspan letter-spacing="-0.04em">Т</tspan><tspan x="7.2" y="0">аганская, 66</tspan></text></svg>