<svg xmlns="http://www.w3.org/2000/svg" viewBox="0 0 137.8 114.9"><title>map-marker-sheikmana</title><path d="M67.6.6h-.2A28.4,28.4,0,0,0,39,29c0,10.3,4.7,23.9,13.9,40.3A215.6,215.6,0,0,0,66.8,91a1.2,1.2,0,0,0,.8.4h0a1,1,0,0,0,.8-.5c.1-.1,7-10.5,13.8-23.2C91.4,50.5,96,37.5,96,29A28.4,28.4,0,0,0,67.6.6ZM80.7,29.7A13.2,13.2,0,1,1,67.5,16.5h0A13.2,13.2,0,0,1,80.7,29.7Z" transform="translate(0 -0.6)" fill="#fff"/><circle cx="67.5" cy="29.1" r="13.2" fill="#e94e1b"/><text transform="translate(0 110.4)" font-size="18" font-family="FuturaDemiC, FuturaDemiC">Шейкмана, 123Б</text></svg>